Droid Devanagari-Regular.ufo
<glyph name="five" format="1">
  <advance width="1145"/>
  <unicode hex="0035"/>
  <outline>
    <contour>
      <point x="573" y="100"/>
      <point x="646" y="122"/>
      <point x="699" y="176" type="curve" smooth="yes"/>
      <point x="751" y="230"/>
      <point x="782" y="317"/>
      <point x="782" y="446" type="curve" smooth="yes"/>
      <point x="782" y="554"/>
      <point x="752" y="634"/>
      <point x="697" y="687" type="curve" smooth="yes"/>
      <point x="642" y="740"/>
      <point x="566" y="766"/>
      <point x="471" y="766" type="curve" smooth="yes"/>
      <point x="400" y="766"/>
      <point x="351" y="760"/>
      <point x="312" y="752" type="curve" smooth="yes"/>
      <point x="272" y="743"/>
      <point x="244" y="732"/>
      <point x="219" y="721" type="curve"/>
      <point x="170" y="735" type="line"/>
      <point x="236" y="1460" type="line"/>
      <point x="920" y="1460" type="line"/>
      <point x="930" y="1151" type="line"/>
      <point x="844" y="1151" type="line"/>
      <point x="836" y="1212" type="line" smooth="yes"/>
      <point x="832" y="1241"/>
      <point x="826" y="1262"/>
      <point x="810" y="1276" type="curve" smooth="yes"/>
      <point x="794" y="1290"/>
      <point x="768" y="1296"/>
      <point x="725" y="1296" type="curve" smooth="yes"/>
      <point x="328" y="1296" type="line"/>
      <point x="289" y="846" type="line"/>
      <point x="330" y="861"/>
      <point x="407" y="879"/>
      <point x="528" y="879" type="curve" smooth="yes"/>
      <point x="660" y="879"/>
      <point x="777" y="843"/>
      <point x="861" y="771" type="curve" smooth="yes"/>
      <point x="945" y="699"/>
      <point x="995" y="590"/>
      <point x="995" y="446" type="curve" smooth="yes"/>
      <point x="995" y="307"/>
      <point x="949" y="191"/>
      <point x="865" y="109" type="curve" smooth="yes"/>
      <point x="780" y="27"/>
      <point x="656" y="-20"/>
      <point x="500" y="-20" type="curve" smooth="yes"/>
      <point x="348" y="-20"/>
      <point x="252" y="9"/>
      <point x="193" y="49" type="curve" smooth="yes"/>
      <point x="134" y="89"/>
      <point x="113" y="141"/>
      <point x="113" y="186" type="curve" smooth="yes"/>
      <point x="113" y="262"/>
      <point x="154" y="307"/>
      <point x="242" y="307" type="curve"/>
      <point x="242" y="248"/>
      <point x="263" y="196"/>
      <point x="304" y="160" type="curve" smooth="yes"/>
      <point x="344" y="123"/>
      <point x="406" y="100"/>
      <point x="489" y="100" type="curve" smooth="yes"/>
    </contour>
  </outline>
</glyph>
<glyph name="backslash" format="1">
  <advance width="590"/>
  <unicode hex="005C"/>
  <outline>
    <contour>
      <point x="590" y="-248" type="line"/>
      <point x="469" y="-248" type="line"/>
      <point x="0" y="1556" type="line"/>
      <point x="119" y="1556" type="line"/>
    </contour>
  </outline>
</glyph>
<glyph name="candrabinduinverteddeva" format="1">
  <advance width="0"/>
  <unicode hex="0900"/>
  <outline>
    <contour>
      <point x="-10" y="1570"/>
      <point x="5" y="1584"/>
      <point x="5" y="1628" type="curve" smooth="yes"/>
      <point x="5" y="1757"/>
      <point x="-126" y="1954"/>
      <point x="-331" y="1954" type="curve" smooth="yes"/>
      <point x="-511" y="1954"/>
      <point x="-638" y="1801"/>
      <point x="-638" y="1680" type="curve" smooth="yes"/>
      <point x="-638" y="1628"/>
      <point x="-615" y="1602"/>
      <point x="-548" y="1574" type="curve"/>
      <point x="-506" y="1744"/>
      <point x="-407" y="1821"/>
      <point x="-295" y="1821" type="curve" smooth="yes"/>
      <point x="-189" y="1821"/>
      <point x="-97" y="1751"/>
      <point x="-36" y="1556" type="curve"/>
    </contour>
    <contour>
      <point x="-345" y="1681"/>
      <point x="-389" y="1637"/>
      <point x="-389" y="1583" type="curve" smooth="yes"/>
      <point x="-389" y="1530"/>
      <point x="-345" y="1486"/>
      <point x="-291" y="1486" type="curve" smooth="yes"/>
      <point x="-238" y="1486"/>
      <point x="-194" y="1530"/>
      <point x="-194" y="1583" type="curve" smooth="yes"/>
      <point x="-194" y="1637"/>
      <point x="-238" y="1681"/>
      <point x="-291" y="1681" type="curve" smooth="yes"/>
    </contour>
    <contour>
      <point x="-120" y="666" type="move" name="_class0"/>
    </contour>
  </outline>
</glyph>
<glyph name="candrabindudeva" format="1">
  <advance width="0"/>
  <unicode hex="0901"/>
  <outline>
    <contour>
      <point x="-268" y="1759"/>
      <point x="-224" y="1803"/>
      <point x="-224" y="1857" type="curve" smooth="yes"/>
      <point x="-224" y="1910"/>
      <point x="-268" y="1954"/>
      <point x="-322" y="1954" type="curve" smooth="yes"/>
      <point x="-375" y="1954"/>
      <point x="-419" y="1910"/>
      <point x="-419" y="1857" type="curve" smooth="yes"/>
      <point x="-419" y="1803"/>
      <point x="-375" y="1759"/>
      <point x="-322" y="1759" type="curve" smooth="yes"/>
    </contour>
    <contour>
      <point x="-610" y="1870"/>
      <point x="-625" y="1856"/>
      <point x="-625" y="1812" type="curve" smooth="yes"/>
      <point x="-625" y="1683"/>
      <point x="-494" y="1486"/>
      <point x="-289" y="1486" type="curve" smooth="yes"/>
      <point x="-109" y="1486"/>
      <point x="18" y="1639"/>
      <point x="18" y="1760" type="curve" smooth="yes"/>
      <point x="18" y="1812"/>
      <point x="-5" y="1838"/>
      <point x="-72" y="1866" type="curve"/>
      <point x="-114" y="1696"/>
      <point x="-213" y="1619"/>
      <point x="-325" y="1619" type="curve" smooth="yes"/>
      <point x="-431" y="1619"/>
      <point x="-523" y="1689"/>
      <point x="-584" y="1884" type="curve"/>
    </contour>
    <contour>
      <point x="-120" y="666" type="move" name="_class0"/>
    </contour>
  </outline>
</glyph>
<glyph name="anusvaradeva" format="1">
  <advance width="0"/>
  <unicode hex="0902"/>
  <outline>
    <contour>
      <point x="-347" y="1650"/>
      <point x="-390" y="1607"/>
      <point x="-390" y="1555" type="curve" smooth="yes"/>
      <point x="-390" y="1502"/>
      <point x="-347" y="1459"/>
      <point x="-294" y="1459" type="curve" smooth="yes"/>
      <point x="-242" y="1459"/>
      <point x="-199" y="1502"/>
      <point x="-199" y="1555" type="curve" smooth="yes"/>
      <point x="-199" y="1607"/>
      <point x="-242" y="1650"/>
      <point x="-294" y="1650" type="curve" smooth="yes"/>
    </contour>
    <contour>
      <point x="-133" y="666" type="move" name="_class0"/>
    </contour>
  </outline>
</glyph>
<glyph name="visargadeva" format="1">
  <advance width="573"/>
  <unicode hex="0903"/>
  <outline>
    <contour>
      <point x="231" y="1017"/>
      <point x="182" y="968"/>
      <point x="182" y="908" type="curve" smooth="yes"/>
      <point x="182" y="848"/>
      <point x="231" y="799"/>
      <point x="291" y="799" type="curve" smooth="yes"/>
      <point x="351" y="799"/>
      <point x="401" y="848"/>
      <point x="401" y="908" type="curve" smooth="yes"/>
      <point x="401" y="968"/>
      <point x="351" y="1017"/>
      <point x="291" y="1017" type="curve" smooth="yes"/>
    </contour>
    <contour>
      <point x="231" y="347"/>
      <point x="182" y="298"/>
      <point x="182" y="238" type="curve" smooth="yes"/>
      <point x="182" y="178"/>
      <point x="231" y="129"/>
      <point x="291" y="129" type="curve" smooth="yes"/>
      <point x="351" y="129"/>
      <point x="401" y="178"/>
      <point x="401" y="238" type="curve" smooth="yes"/>
      <point x="401" y="298"/>
      <point x="351" y="347"/>
      <point x="291" y="347" type="curve" smooth="yes"/>
    </contour>
  </outline>
</glyph>
<glyph name="adeva" format="1">
  <advance width="1550"/>
  <unicode hex="0905"/>
  <outline>
    <contour>
      <point x="284" y="1335"/>
      <point x="177" y="1234"/>
      <point x="177" y="1136" type="curve" smooth="yes"/>
      <point x="177" y="1065"/>
      <point x="234" y="1017"/>
      <point x="323" y="1017" type="curve"/>
      <point x="323" y="1135"/>
      <point x="407" y="1224"/>
      <point x="547" y="1224" type="curve" smooth="yes"/>
      <point x="665" y="1224"/>
      <point x="746" y="1161"/>
      <point x="746" y="1039" type="curve" smooth="yes"/>
      <point x="746" y="898"/>
      <point x="638" y="812"/>
      <point x="388" y="799" type="curve"/>
      <point x="382" y="789" type="line"/>
      <point x="463" y="632" type="line"/>
      <point x="548" y="642"/>
      <point x="620" y="659"/>
      <point x="679" y="683" type="curve"/>
      <point x="768" y="644"/>
      <point x="827" y="550"/>
      <point x="827" y="448" type="curve" smooth="yes"/>
      <point x="827" y="317"/>
      <point x="730" y="224"/>
      <point x="578" y="224" type="curve" smooth="yes"/>
      <point x="379" y="224"/>
      <point x="207" y="385"/>
      <point x="154" y="756" type="curve"/>
      <point x="107" y="752"/>
      <point x="80" y="735"/>
      <point x="80" y="664" type="curve" smooth="yes"/>
      <point x="80" y="489"/>
      <point x="245" y="62"/>
      <point x="621" y="62" type="curve" smooth="yes"/>
      <point x="833" y="62"/>
      <point x="962" y="198"/>
      <point x="962" y="383" type="curve" smooth="yes"/>
      <point x="962" y="460"/>
      <point x="940" y="531"/>
      <point x="899" y="600" type="curve"/>
      <point x="948" y="582"/>
      <point x="999" y="573"/>
      <point x="1045" y="573" type="curve" smooth="yes"/>
      <point x="1090" y="573"/>
      <point x="1133" y="582"/>
      <point x="1182" y="605" type="curve"/>
      <point x="1182" y="19" type="line"/>
      <point x="1333" y="-19" type="line"/>
      <point x="1342" y="-12" type="line"/>
      <point x="1342" y="1197" type="line"/>
      <point x="1600" y="1197" type="line"/>
      <point x="1606" y="1206" type="line"/>
      <point x="1550" y="1330" type="line"/>
      <point x="969" y="1330" type="line"/>
      <point x="963" y="1321" type="line"/>
      <point x="1019" y="1197" type="line"/>
      <point x="1182" y="1197" type="line"/>
      <point x="1182" y="907" type="line" smooth="yes"/>
      <point x="1182" y="770"/>
      <point x="1085" y="696"/>
      <point x="957" y="696" type="curve" smooth="yes"/>
      <point x="903" y="696"/>
      <point x="840" y="709"/>
      <point x="780" y="740" type="curve"/>
      <point x="860" y="809"/>
      <point x="892" y="878"/>
      <point x="892" y="970" type="curve" smooth="yes"/>
      <point x="892" y="1182"/>
      <point x="724" y="1335"/>
      <point x="481" y="1335" type="curve" smooth="yes"/>
    </contour>
  </outline>
</glyph>
<glyph name="udeva" format="1">
  <advance width="1118"/>
  <unicode hex="0909"/>
  <outline>
    <contour>
      <point x="1168" y="1197" type="line"/>
      <point x="1174" y="1206" type="line"/>
      <point x="1118" y="1330" type="line"/>
      <point x="-50" y="1330" type="line"/>
      <point x="-56" y="1321" type="line"/>
      <point x="0" y="1197" type="line"/>
      <point x="614" y="1197" type="line" smooth="yes"/>
      <point x="735" y="1197"/>
      <point x="791" y="1110"/>
      <point x="791" y="1031" type="curve" smooth="yes"/>
      <point x="791" y="908"/>
      <point x="656" y="830"/>
      <point x="415" y="828" type="curve"/>
      <point x="409" y="819" type="line"/>
      <point x="477" y="655" type="line"/>
      <point x="564" y="655"/>
      <point x="640" y="666"/>
      <point x="703" y="687" type="curve"/>
      <point x="800" y="650"/>
      <point x="869" y="574"/>
      <point x="869" y="463" type="curve" smooth="yes"/>
      <point x="869" y="323"/>
      <point x="760" y="232"/>
      <point x="610" y="232" type="curve" smooth="yes"/>
      <point x="395" y="232"/>
      <point x="217" y="421"/>
      <point x="156" y="806" type="curve"/>
      <point x="101" y="801"/>
      <point x="79" y="771"/>
      <point x="79" y="708" type="curve" smooth="yes"/>
      <point x="79" y="527"/>
      <point x="257" y="70"/>
      <point x="653" y="70" type="curve" smooth="yes"/>
      <point x="874" y="70"/>
      <point x="1007" y="213"/>
      <point x="1007" y="394" type="curve" smooth="yes"/>
      <point x="1007" y="532"/>
      <point x="929" y="653"/>
      <point x="810" y="736" type="curve"/>
      <point x="896" y="800"/>
      <point x="930" y="869"/>
      <point x="930" y="953" type="curve" smooth="yes"/>
      <point x="930" y="1032"/>
      <point x="900" y="1107"/>
      <point x="826" y="1197" type="curve"/>
    </contour>
  </outline>
</glyph>
<glyph name="uudeva" format="1">
  <advance width="1518"/>
  <unicode hex="090A"/>
  <outline>
    <contour>
      <point x="930" y="1032"/>
      <point x="900" y="1107"/>
      <point x="826" y="1197" type="curve"/>
      <point x="1568" y="1197" type="line"/>
      <point x="1574" y="1206" type="line"/>
      <point x="1518" y="1330" type="line"/>
      <point x="-50" y="1330" type="line"/>
      <point x="-56" y="1321" type="line"/>
      <point x="0" y="1197" type="line"/>
      <point x="614" y="1197" type="line" smooth="yes"/>
      <point x="735" y="1197"/>
      <point x="791" y="1110"/>
      <point x="791" y="1031" type="curve" smooth="yes"/>
      <point x="791" y="908"/>
      <point x="656" y="830"/>
      <point x="415" y="828" type="curve"/>
      <point x="409" y="819" type="line"/>
      <point x="477" y="655" type="line"/>
      <point x="564" y="655"/>
      <point x="640" y="666"/>
      <point x="703" y="687" type="curve"/>
      <point x="800" y="650"/>
      <point x="869" y="574"/>
      <point x="869" y="463" type="curve" smooth="yes"/>
      <point x="869" y="323"/>
      <point x="760" y="232"/>
      <point x="610" y="232" type="curve" smooth="yes"/>
      <point x="395" y="232"/>
      <point x="217" y="421"/>
      <point x="156" y="806" type="curve"/>
      <point x="101" y="801"/>
      <point x="79" y="771"/>
      <point x="79" y="708" type="curve" smooth="yes"/>
      <point x="79" y="527"/>
      <point x="257" y="70"/>
      <point x="653" y="70" type="curve" smooth="yes"/>
      <point x="874" y="70"/>
      <point x="1007" y="213"/>
      <point x="1007" y="395" type="curve" smooth="yes"/>
      <point x="1007" y="447"/>
      <point x="996" y="497"/>
      <point x="977" y="543" type="curve"/>
      <point x="1057" y="649"/>
      <point x="1129" y="703"/>
      <point x="1202" y="703" type="curve" smooth="yes"/>
      <point x="1287" y="703"/>
      <point x="1339" y="630"/>
      <point x="1339" y="520" type="curve" smooth="yes"/>
      <point x="1339" y="382"/>
      <point x="1256" y="267"/>
      <point x="1138" y="213" type="curve"/>
      <point x="1165" y="163"/>
      <point x="1219" y="126"/>
      <point x="1275" y="126" type="curve" smooth="yes"/>
      <point x="1374" y="126"/>
      <point x="1470" y="243"/>
      <point x="1470" y="428" type="curve" smooth="yes"/>
      <point x="1470" y="658"/>
      <point x="1321" y="829"/>
      <point x="1141" y="829" type="curve" smooth="yes"/>
      <point x="1050" y="829"/>
      <point x="981" y="785"/>
      <point x="883" y="682" type="curve"/>
      <point x="861" y="701"/>
      <point x="837" y="719"/>
      <point x="810" y="736" type="curve"/>
      <point x="896" y="800"/>
      <point x="930" y="869"/>
      <point x="930" y="953" type="curve" smooth="yes"/>
    </contour>
  </outline>
</glyph>
<glyph name="aideva" format="1">
  <advance width="1126"/>
  <unicode hex="0910"/>
  <outline>
    <contour>
      <point x="682" y="576"/>
      <point x="731" y="544"/>
      <point x="785" y="544" type="curve" smooth="yes"/>
      <point x="860" y="544"/>
      <point x="908" y="607"/>
      <point x="908" y="707" type="curve" smooth="yes"/>
      <point x="908" y="1197" type="line"/>
      <point x="1176" y="1197" type="line"/>
      <point x="1182" y="1206" type="line"/>
      <point x="1126" y="1330" type="line"/>
      <point x="879" y="1330" type="line"/>
      <point x="483" y="1842"/>
      <point x="332" y="1922"/>
      <point x="197" y="1922" type="curve" smooth="yes"/>
      <point x="78" y="1922"/>
      <point x="10" y="1859"/>
      <point x="10" y="1788" type="curve" smooth="yes"/>
      <point x="10" y="1732"/>
      <point x="51" y="1687"/>
      <point x="109" y="1668" type="curve"/>
      <point x="142" y="1735"/>
      <point x="192" y="1771"/>
      <point x="266" y="1771" type="curve" smooth="yes"/>
      <point x="371" y="1771"/>
      <point x="471" y="1698"/>
      <point x="756" y="1338" type="curve"/>
      <point x="753" y="1330" type="line"/>
      <point x="-50" y="1330" type="line"/>
      <point x="-56" y="1321" type="line"/>
      <point x="0" y="1197" type="line"/>
      <point x="123" y="1197" type="line"/>
      <point x="123" y="787" type="line" smooth="yes"/>
      <point x="123" y="526"/>
      <point x="268" y="458"/>
      <point x="686" y="266" type="curve" smooth="yes"/>
      <point x="886" y="174"/>
      <point x="909" y="151"/>
      <point x="909" y="101" type="curve" smooth="yes"/>
      <point x="909" y="39"/>
      <point x="874" y="-10"/>
      <point x="779" y="-59" type="curve"/>
      <point x="807" y="-103"/>
      <point x="862" y="-141"/>
      <point x="918" y="-141" type="curve" smooth="yes"/>
      <point x="992" y="-141"/>
      <point x="1066" y="-73"/>
      <point x="1066" y="38" type="curve" smooth="yes"/>
      <point x="1066" y="144"/>
      <point x="998" y="238"/>
      <point x="642" y="403" type="curve" smooth="yes"/>
      <point x="406" y="513"/>
      <point x="283" y="539"/>
      <point x="283" y="671" type="curve" smooth="yes"/>
      <point x="284" y="1197" type="line"/>
      <point x="748" y="1197" type="line"/>
      <point x="748" y="781" type="line" smooth="yes"/>
      <point x="748" y="711"/>
      <point x="712" y="649"/>
      <point x="640" y="621" type="curve"/>
    </contour>
  </outline>
</glyph>
<glyph name="cadeva" format="1">
  <advance width="1321"/>
  <unicode hex="091A"/>
  <outline>
    <contour>
      <point x="1114" y="-12" type="line"/>
      <point x="1114" y="1197" type="line"/>
      <point x="1371" y="1197" type="line"/>
      <point x="1377" y="1206" type="line"/>
      <point x="1321" y="1330" type="line"/>
      <point x="-50" y="1330" type="line"/>
      <point x="-56" y="1321" type="line"/>
      <point x="0" y="1197" type="line"/>
      <point x="954" y="1197" type="line"/>
      <point x="954" y="660" type="line" smooth="yes"/>
      <point x="954" y="508"/>
      <point x="805" y="373"/>
      <point x="632" y="373" type="curve" smooth="yes"/>
      <point x="497" y="373"/>
      <point x="411" y="456"/>
      <point x="411" y="565" type="curve" smooth="yes"/>
      <point x="411" y="699"/>
      <point x="540" y="830"/>
      <point x="741" y="830" type="curve" smooth="yes"/>
      <point x="796" y="830" type="line"/>
      <point x="802" y="839" type="line"/>
      <point x="746" y="963" type="line"/>
      <point x="68" y="963" type="line"/>
      <point x="62" y="954" type="line"/>
      <point x="118" y="830" type="line"/>
      <point x="355" y="830" type="line"/>
      <point x="304" y="763"/>
      <point x="279" y="699"/>
      <point x="279" y="626" type="curve" smooth="yes"/>
      <point x="279" y="435"/>
      <point x="452" y="251"/>
      <point x="697" y="251" type="curve" smooth="yes"/>
      <point x="787" y="251"/>
      <point x="871" y="276"/>
      <point x="954" y="331" type="curve"/>
      <point x="954" y="19" type="line"/>
      <point x="1105" y="-19" type="line"/>
    </contour>
  </outline>
</glyph>
<glyph name="chadeva" format="1">
  <advance width="1371"/>
  <unicode hex="091B"/>
  <outline>
    <contour>
      <point x="1062" y="1197" type="line"/>
      <point x="1421" y="1197" type="line"/>
      <point x="1427" y="1206" type="line"/>
      <point x="1371" y="1330" type="line"/>
      <point x="-50" y="1330" type="line"/>
      <point x="-56" y="1321" type="line"/>
      <point x="0" y="1197" type="line"/>
      <point x="922" y="1197" type="line"/>
      <point x="922" y="1055" type="line"/>
      <point x="830" y="1031"/>
      <point x="775" y="955"/>
      <point x="775" y="853" type="curve" smooth="yes"/>
      <point x="775" y="735"/>
      <point x="848" y="598"/>
      <point x="1027" y="458" type="curve"/>
      <point x="931" y="309"/>
      <point x="776" y="197"/>
      <point x="612" y="197" type="curve" smooth="yes"/>
      <point x="493" y="197"/>
      <point x="401" y="257"/>
      <point x="401" y="358" type="curve" smooth="yes"/>
      <point x="401" y="461"/>
      <point x="495" y="557"/>
      <point x="693" y="589" type="curve"/>
      <point x="697" y="599" type="line"/>
      <point x="586" y="728" type="line"/>
      <point x="508" y="720"/>
      <point x="440" y="693"/>
      <point x="388" y="654" type="curve"/>
      <point x="301" y="692"/>
      <point x="262" y="737"/>
      <point x="262" y="798" type="curve" smooth="yes"/>
      <point x="262" y="886"/>
      <point x="343" y="947"/>
      <point x="556" y="947" type="curve"/>
      <point x="513" y="1045"/>
      <point x="459" y="1088"/>
      <point x="366" y="1088" type="curve" smooth="yes"/>
      <point x="226" y="1088"/>
      <point x="116" y="993"/>
      <point x="116" y="858" type="curve" smooth="yes"/>
      <point x="116" y="755"/>
      <point x="180" y="652"/>
      <point x="316" y="584" type="curve"/>
      <point x="286" y="538"/>
      <point x="269" y="480"/>
      <point x="269" y="426" type="curve" smooth="yes"/>
      <point x="269" y="247"/>
      <point x="449" y="61"/>
      <point x="691" y="61" type="curve" smooth="yes"/>
      <point x="1006" y="61"/>
      <point x="1254" y="374"/>
      <point x="1254" y="694" type="curve" smooth="yes"/>
      <point x="1254" y="860"/>
      <point x="1187" y="995"/>
      <point x="1062" y="1042" type="curve"/>
    </contour>
    <contour>
      <point x="1130" y="702"/>
      <point x="1111" y="617"/>
      <point x="1077" y="539" type="curve"/>
      <point x="965" y="632"/>
      <point x="915" y="715"/>
      <point x="915" y="791" type="curve" smooth="yes"/>
      <point x="915" y="867"/>
      <point x="966" y="932"/>
      <point x="1036" y="932" type="curve" smooth="yes"/>
      <point x="1097" y="932"/>
      <point x="1130" y="883"/>
      <point x="1130" y="780" type="curve" smooth="yes"/>
    </contour>
  </outline>
</glyph>
<glyph name="jadeva" format="1">
  <advance width="1421"/>
  <unicode hex="091C"/>
  <outline>
    <contour>
      <point x="1214" y="-12" type="line"/>
      <point x="1214" y="1197" type="line"/>
      <point x="1471" y="1197" type="line"/>
      <point x="1477" y="1206" type="line"/>
      <point x="1421" y="1330" type="line"/>
      <point x="-50" y="1330" type="line"/>
      <point x="-56" y="1321" type="line"/>
      <point x="0" y="1197" type="line"/>
      <point x="1054" y="1197" type="line"/>
      <point x="1054" y="923" type="line"/>
      <point x="444" y="923" type="line"/>
      <point x="438" y="914" type="line"/>
      <point x="494" y="790" type="line"/>
      <point x="631" y="790"/>
      <point x="704" y="688"/>
      <point x="704" y="578" type="curve" smooth="yes"/>
      <point x="704" y="456"/>
      <point x="615" y="389"/>
      <point x="511" y="389" type="curve" smooth="yes"/>
      <point x="350" y="389"/>
      <point x="221" y="551"/>
      <point x="171" y="923" type="curve"/>
      <point x="112" y="917"/>
      <point x="89" y="894"/>
      <point x="90" y="826" type="curve" smooth="yes"/>
      <point x="91" y="659"/>
      <point x="226" y="227"/>
      <point x="554" y="227" type="curve" smooth="yes"/>
      <point x="720" y="227"/>
      <point x="842" y="337"/>
      <point x="842" y="506" type="curve" smooth="yes"/>
      <point x="842" y="601"/>
      <point x="804" y="699"/>
      <point x="721" y="790" type="curve"/>
      <point x="1054" y="790" type="line"/>
      <point x="1054" y="19" type="line"/>
      <point x="1205" y="-19" type="line"/>
    </contour>
  </outline>
</glyph>
<glyph name="jhadeva" format="1">
  <advance width="1500"/>
  <unicode hex="091D"/>
  <outline>
    <contour>
      <point x="1292" y="-12" type="line"/>
      <point x="1292" y="1197" type="line"/>
      <point x="1550" y="1197" type="line"/>
      <point x="1556" y="1206" type="line"/>
      <point x="1500" y="1330" type="line"/>
      <point x="-50" y="1330" type="line"/>
      <point x="-56" y="1321" type="line"/>
      <point x="0" y="1197" type="line"/>
      <point x="618" y="1197" type="line"/>
      <point x="618" y="1034" type="line" smooth="yes"/>
      <point x="618" y="1029"/>
      <point x="615" y="1026"/>
      <point x="610" y="1026" type="curve" smooth="yes"/>
      <point x="307" y="1026" type="line" smooth="yes"/>
      <point x="175" y="1026"/>
      <point x="114" y="961"/>
      <point x="114" y="877" type="curve" smooth="yes"/>
      <point x="114" y="740"/>
      <point x="275" y="540"/>
      <point x="457" y="540" type="curve" smooth="yes"/>
      <point x="513" y="540"/>
      <point x="673" y="559"/>
      <point x="708" y="559" type="curve" smooth="yes"/>
      <point x="756" y="559"/>
      <point x="778" y="523"/>
      <point x="778" y="483" type="curve" smooth="yes"/>
      <point x="778" y="381"/>
      <point x="630" y="310"/>
      <point x="420" y="311" type="curve"/>
      <point x="380" y="396"/>
      <point x="334" y="447"/>
      <point x="266" y="447" type="curve" smooth="yes"/>
      <point x="214" y="447"/>
      <point x="155" y="416"/>
      <point x="155" y="341" type="curve" smooth="yes"/>
      <point x="155" y="248"/>
      <point x="245" y="163"/>
      <point x="403" y="150" type="curve"/>
      <point x="475" y="-61"/>
      <point x="593" y="-143"/>
      <point x="698" y="-143" type="curve" smooth="yes"/>
      <point x="770" y="-143"/>
      <point x="824" y="-105"/>
      <point x="824" y="-42" type="curve" smooth="yes"/>
      <point x="824" y="-20"/>
      <point x="817" y="5"/>
      <point x="802" y="33" type="curve"/>
      <point x="772" y="23"/>
      <point x="746" y="17"/>
      <point x="703" y="17" type="curve" smooth="yes"/>
      <point x="609" y="17"/>
      <point x="552" y="45"/>
      <point x="491" y="149" type="curve"/>
      <point x="728" y="164"/>
      <point x="886" y="268"/>
      <point x="886" y="434" type="curve" smooth="yes"/>
      <point x="886" y="466"/>
      <point x="880" y="499"/>
      <point x="858" y="546" type="curve"/>
      <point x="904" y="532"/>
      <point x="952" y="523"/>
      <point x="999" y="523" type="curve" smooth="yes"/>
      <point x="1046" y="523"/>
      <point x="1084" y="532"/>
      <point x="1132" y="558" type="curve"/>
      <point x="1132" y="19" type="line"/>
      <point x="1283" y="-19" type="line"/>
    </contour>
    <contour>
      <point x="764" y="885" type="line"/>
      <point x="772" y="893" type="line"/>
      <point x="772" y="1197" type="line"/>
      <point x="1132" y="1197" type="line"/>
      <point x="1132" y="857" type="line" smooth="yes"/>
      <point x="1132" y="721"/>
      <point x="1038" y="646"/>
      <point x="902" y="646" type="curve" smooth="yes"/>
      <point x="858" y="646"/>
      <point x="808" y="654"/>
      <point x="754" y="682" type="curve"/>
      <point x="717" y="699"/>
      <point x="676" y="713"/>
      <point x="629" y="713" type="curve" smooth="yes"/>
      <point x="568" y="713"/>
      <point x="426" y="690"/>
      <point x="370" y="690" type="curve" smooth="yes"/>
      <point x="298" y="690"/>
      <point x="256" y="729"/>
      <point x="256" y="790" type="curve" smooth="yes"/>
      <point x="256" y="845"/>
      <point x="291" y="885"/>
      <point x="389" y="885" type="curve" smooth="yes"/>
    </contour>
  </outline>
</glyph>
<glyph name="nyadeva" format="1">
  <advance width="1531"/>
  <unicode hex="091E"/>
  <outline>
    <contour>
      <point x="1324" y="-12" type="line"/>
      <point x="1324" y="1197" type="line"/>
      <point x="1581" y="1197" type="line"/>
      <point x="1587" y="1206" type="line"/>
      <point x="1531" y="1330" type="line"/>
      <point x="-50" y="1330" type="line"/>
      <point x="-56" y="1321" type="line"/>
      <point x="0" y="1197" type="line"/>
      <point x="1164" y="1197" type="line"/>
      <point x="1164" y="787" type="line" smooth="yes"/>
      <point x="1164" y="677"/>
      <point x="1103" y="646"/>
      <point x="1044" y="646" type="curve" smooth="yes"/>
      <point x="1000" y="646"/>
      <point x="959" y="663"/>
      <point x="911" y="714" type="curve"/>
      <point x="848" y="873"/>
      <point x="700" y="994"/>
      <point x="549" y="994" type="curve" smooth="yes"/>
      <point x="427" y="994"/>
      <point x="351" y="915"/>
      <point x="351" y="839" type="curve" smooth="yes"/>
      <point x="351" y="789"/>
      <point x="384" y="740"/>
      <point x="452" y="723" type="curve"/>
      <point x="504" y="818"/>
      <point x="573" y="842"/>
      <point x="630" y="842" type="curve" smooth="yes"/>
      <point x="740" y="842"/>
      <point x="815" y="752"/>
      <point x="815" y="623" type="curve" smooth="yes"/>
      <point x="815" y="462"/>
      <point x="699" y="357"/>
      <point x="545" y="357" type="curve" smooth="yes"/>
      <point x="361" y="357"/>
      <point x="224" y="506"/>
      <point x="173" y="830" type="curve"/>
      <point x="114" y="830"/>
      <point x="97" y="798"/>
      <point x="97" y="743" type="curve" smooth="yes"/>
      <point x="97" y="574"/>
      <point x="257" y="195"/>
      <point x="598" y="195" type="curve" smooth="yes"/>
      <point x="814" y="195"/>
      <point x="937" y="347"/>
      <point x="942" y="565" type="curve"/>
      <point x="994" y="514"/>
      <point x="1051" y="483"/>
      <point x="1112" y="483" type="curve" smooth="yes"/>
      <point x="1127" y="483"/>
      <point x="1142" y="485"/>
      <point x="1164" y="491" type="curve"/>
      <point x="1164" y="19" type="line"/>
      <point x="1315" y="-19" type="line"/>
    </contour>
  </outline>
</glyph>
<glyph name="ttadeva" format="1">
  <advance width="1058"/>
  <unicode hex="091F"/>
  <outline>
    <contour>
      <point x="842" y="827" type="line"/>
      <point x="842" y="1197" type="line"/>
      <point x="1108" y="1197" type="line"/>
      <point x="1114" y="1206" type="line"/>
      <point x="1058" y="1330" type="line"/>
      <point x="-50" y="1330" type="line"/>
      <point x="-56" y="1321" type="line"/>
      <point x="0" y="1197" type="line"/>
      <point x="688" y="1197" type="line"/>
      <point x="688" y="974" type="line" smooth="yes"/>
      <point x="688" y="969"/>
      <point x="685" y="966"/>
      <point x="680" y="966" type="curve" smooth="yes"/>
      <point x="557" y="966" type="line" smooth="yes"/>
      <point x="265" y="966"/>
      <point x="101" y="800"/>
      <point x="101" y="592" type="curve" smooth="yes"/>
      <point x="101" y="346"/>
      <point x="332" y="91"/>
      <point x="634" y="91" type="curve" smooth="yes"/>
      <point x="832" y="91"/>
      <point x="996" y="201"/>
      <point x="996" y="321" type="curve" smooth="yes"/>
      <point x="996" y="373"/>
      <point x="965" y="415"/>
      <point x="901" y="435" type="curve"/>
      <point x="849" y="308"/>
      <point x="719" y="222"/>
      <point x="561" y="222" type="curve" smooth="yes"/>
      <point x="359" y="222"/>
      <point x="249" y="361"/>
      <point x="249" y="518" type="curve" smooth="yes"/>
      <point x="249" y="691"/>
      <point x="384" y="819"/>
      <point x="613" y="819" type="curve" smooth="yes"/>
      <point x="834" y="819" type="line"/>
    </contour>
  </outline>
</glyph>
<glyph name="ddadeva" format="1">
  <advance width="1052"/>
  <unicode hex="0921"/>
  <outline>
    <contour>
      <point x="862" y="893" type="line"/>
      <point x="862" y="1197" type="line"/>
      <point x="1102" y="1197" type="line"/>
      <point x="1108" y="1206" type="line"/>
      <point x="1052" y="1330" type="line"/>
      <point x="-50" y="1330" type="line"/>
      <point x="-56" y="1321" type="line"/>
      <point x="0" y="1197" type="line"/>
      <point x="708" y="1197" type="line"/>
      <point x="708" y="1034" type="line" smooth="yes"/>
      <point x="708" y="1029"/>
      <point x="705" y="1026"/>
      <point x="700" y="1026" type="curve" smooth="yes"/>
      <point x="377" y="1026" type="line" smooth="yes"/>
      <point x="245" y="1026"/>
      <point x="184" y="965"/>
      <point x="184" y="865" type="curve" smooth="yes"/>
      <point x="184" y="696"/>
      <point x="358" y="522"/>
      <point x="524" y="522" type="curve" smooth="yes"/>
      <point x="576" y="522"/>
      <point x="696" y="539"/>
      <point x="736" y="539" type="curve" smooth="yes"/>
      <point x="803" y="539"/>
      <point x="845" y="491"/>
      <point x="845" y="430" type="curve" smooth="yes"/>
      <point x="845" y="328"/>
      <point x="729" y="255"/>
      <point x="595" y="255" type="curve" smooth="yes"/>
      <point x="426" y="255"/>
      <point x="255" y="372"/>
      <point x="133" y="616" type="curve"/>
      <point x="103" y="601"/>
      <point x="88" y="572"/>
      <point x="91" y="535" type="curve" smooth="yes"/>
      <point x="101" y="411"/>
      <point x="319" y="99"/>
      <point x="649" y="99" type="curve" smooth="yes"/>
      <point x="837" y="99"/>
      <point x="950" y="200"/>
      <point x="950" y="367" type="curve" smooth="yes"/>
      <point x="950" y="553"/>
      <point x="810" y="701"/>
      <point x="667" y="701" type="curve" smooth="yes"/>
      <point x="613" y="701"/>
      <point x="503" y="680"/>
      <point x="444" y="680" type="curve" smooth="yes"/>
      <point x="360" y="680"/>
      <point x="316" y="723"/>
      <point x="316" y="787" type="curve" smooth="yes"/>
      <point x="316" y="845"/>
      <point x="352" y="885"/>
      <point x="459" y="885" type="curve" smooth="yes"/>
      <point x="854" y="885" type="line"/>
    </contour>
  </outline>
</glyph>
<glyph name="ddhadeva" format="1">
  <advance width="1058"/>
  <unicode hex="0922"/>
  <outline>
    <contour>
      <point x="842" y="837" type="line"/>
      <point x="842" y="1197" type="line"/>
      <point x="1108" y="1197" type="line"/>
      <point x="1114" y="1206" type="line"/>
      <point x="1058" y="1330" type="line"/>
      <point x="-50" y="1330" type="line"/>
      <point x="-56" y="1321" type="line"/>
      <point x="0" y="1197" type="line"/>
      <point x="688" y="1197" type="line"/>
      <point x="688" y="984" type="line" smooth="yes"/>
      <point x="688" y="979"/>
      <point x="685" y="976"/>
      <point x="680" y="976" type="curve" smooth="yes"/>
      <point x="562" y="976" type="line" smooth="yes"/>
      <point x="271" y="976"/>
      <point x="107" y="807"/>
      <point x="107" y="593" type="curve" smooth="yes"/>
      <point x="107" y="329"/>
      <point x="354" y="61"/>
      <point x="642" y="61" type="curve" smooth="yes"/>
      <point x="845" y="61"/>
      <point x="1002" y="194"/>
      <point x="1002" y="372" type="curve" smooth="yes"/>
      <point x="1002" y="524"/>
      <point x="887" y="655"/>
      <point x="739" y="655" type="curve" smooth="yes"/>
      <point x="630" y="655"/>
      <point x="549" y="583"/>
      <point x="549" y="462" type="curve" smooth="yes"/>
      <point x="549" y="382"/>
      <point x="585" y="303"/>
      <point x="684" y="203" type="curve"/>
      <point x="651" y="195"/>
      <point x="615" y="192"/>
      <point x="585" y="192" type="curve" smooth="yes"/>
      <point x="368" y="192"/>
      <point x="249" y="353"/>
      <point x="249" y="519" type="curve" smooth="yes"/>
      <point x="249" y="696"/>
      <point x="384" y="829"/>
      <point x="613" y="829" type="curve" smooth="yes"/>
      <point x="834" y="829" type="line"/>
    </contour>
    <contour>
      <point x="858" y="531"/>
      <point x="901" y="489"/>
      <point x="901" y="425" type="curve" smooth="yes"/>
      <point x="901" y="352"/>
      <point x="846" y="278"/>
      <point x="760" y="234" type="curve"/>
      <point x="708" y="299"/>
      <point x="687" y="354"/>
      <point x="687" y="402" type="curve" smooth="yes"/>
      <point x="687" y="477"/>
      <point x="740" y="531"/>
      <point x="803" y="531" type="curve" smooth="yes"/>
    </contour>
  </outline>
</glyph>
<glyph name="nnadeva" format="1">
  <advance width="1421"/>
  <unicode hex="0923"/>
  <outline>
    <contour>
      <point x="1214" y="-12" type="line"/>
      <point x="1214" y="1197" type="line"/>
      <point x="1471" y="1197" type="line"/>
      <point x="1477" y="1206" type="line"/>
      <point x="1421" y="1330" type="line"/>
      <point x="-50" y="1330" type="line"/>
      <point x="-56" y="1321" type="line"/>
      <point x="0" y="1197" type="line"/>
      <point x="129" y="1197" type="line"/>
      <point x="129" y="755" type="line" smooth="yes"/>
      <point x="129" y="534"/>
      <point x="326" y="351"/>
      <point x="528" y="351" type="curve" smooth="yes"/>
      <point x="689" y="351"/>
      <point x="809" y="468"/>
      <point x="809" y="631" type="curve" smooth="yes"/>
      <point x="809" y="1197" type="line"/>
      <point x="1054" y="1197" type="line"/>
      <point x="1054" y="19" type="line"/>
      <point x="1205" y="-19" type="line"/>
    </contour>
    <contour>
      <point x="289" y="1197" type="line"/>
      <point x="654" y="1197" type="line"/>
      <point x="654" y="700" type="line" smooth="yes"/>
      <point x="654" y="555"/>
      <point x="569" y="473"/>
      <point x="462" y="473" type="curve" smooth="yes"/>
      <point x="366" y="473"/>
      <point x="289" y="539"/>
      <point x="289" y="670" type="curve" smooth="yes"/>
    </contour>
  </outline>
</glyph>
<glyph name="thadeva" format="1">
  <advance width="1341"/>
  <unicode hex="0925"/>
  <outline>
    <contour>
      <point x="182" y="1387"/>
      <point x="78" y="1310"/>
      <point x="78" y="1186" type="curve" smooth="yes"/>
      <point x="78" y="1046"/>
      <point x="212" y="922"/>
      <point x="330" y="922" type="curve" smooth="yes"/>
      <point x="370" y="922"/>
      <point x="390" y="936"/>
      <point x="399" y="951" type="curve"/>
      <point x="275" y="1000"/>
      <point x="228" y="1067"/>
      <point x="228" y="1136" type="curve" smooth="yes"/>
      <point x="228" y="1214"/>
      <point x="290" y="1260"/>
      <point x="370" y="1260" type="curve" smooth="yes"/>
      <point x="469" y="1260"/>
      <point x="545" y="1189"/>
      <point x="545" y="1064" type="curve" smooth="yes"/>
      <point x="545" y="904"/>
      <point x="421" y="786"/>
      <point x="150" y="710" type="curve"/>
      <point x="145" y="700" type="line"/>
      <point x="328" y="374"/>
      <point x="544" y="241"/>
      <point x="748" y="241" type="curve" smooth="yes"/>
      <point x="836" y="241"/>
      <point x="905" y="266"/>
      <point x="974" y="316" type="curve"/>
      <point x="974" y="19" type="line"/>
      <point x="1125" y="-19" type="line"/>
      <point x="1134" y="-12" type="line"/>
      <point x="1134" y="1197" type="line"/>
      <point x="1391" y="1197" type="line"/>
      <point x="1397" y="1206" type="line"/>
      <point x="1341" y="1330" type="line"/>
      <point x="730" y="1330" type="line"/>
      <point x="724" y="1321" type="line"/>
      <point x="780" y="1197" type="line"/>
      <point x="974" y="1197" type="line"/>
      <point x="974" y="680" type="line" smooth="yes"/>
      <point x="974" y="512"/>
      <point x="837" y="401"/>
      <point x="676" y="401" type="curve" smooth="yes"/>
      <point x="570" y="401"/>
      <point x="435" y="449"/>
      <point x="332" y="591" type="curve"/>
      <point x="570" y="675"/>
      <point x="685" y="810"/>
      <point x="685" y="984" type="curve" smooth="yes"/>
      <point x="685" y="1207"/>
      <point x="497" y="1387"/>
      <point x="307" y="1387" type="curve" smooth="yes"/>
    </contour>
  </outline>
</glyph>
<glyph name="dadeva" format="1">
  <advance width="1058"/>
  <unicode hex="0926"/>
  <outline>
    <contour>
      <point x="834" y="819" type="line"/>
      <point x="842" y="827" type="line"/>
      <point x="842" y="1197" type="line"/>
      <point x="1108" y="1197" type="line"/>
      <point x="1114" y="1206" type="line"/>
      <point x="1058" y="1330" type="line"/>
      <point x="-50" y="1330" type="line"/>
      <point x="-56" y="1321" type="line"/>
      <point x="0" y="1197" type="line"/>
      <point x="688" y="1197" type="line"/>
      <point x="688" y="974" type="line" smooth="yes"/>
      <point x="688" y="969"/>
      <point x="685" y="966"/>
      <point x="680" y="966" type="curve" smooth="yes"/>
      <point x="562" y="966" type="line" smooth="yes"/>
      <point x="243" y="966"/>
      <point x="107" y="785"/>
      <point x="107" y="594" type="curve" smooth="yes"/>
      <point x="107" y="346"/>
      <point x="335" y="91"/>
      <point x="620" y="91" type="curve" smooth="yes"/>
      <point x="700" y="91"/>
      <point x="771" y="111"/>
      <point x="827" y="140" type="curve"/>
      <point x="883" y="81"/>
      <point x="904" y="41"/>
      <point x="904" y="9" type="curve" smooth="yes"/>
      <point x="904" y="-39"/>
      <point x="857" y="-79"/>
      <point x="785" y="-98" type="curve"/>
      <point x="811" y="-164"/>
      <point x="855" y="-202"/>
      <point x="911" y="-202" type="curve" smooth="yes"/>
      <point x="978" y="-202"/>
      <point x="1030" y="-147"/>
      <point x="1030" y="-60" type="curve" smooth="yes"/>
      <point x="1030" y="1"/>
      <point x="1005" y="68"/>
      <point x="895" y="190" type="curve"/>
      <point x="935" y="228"/>
      <point x="965" y="281"/>
      <point x="965" y="339" type="curve" smooth="yes"/>
      <point x="965" y="420"/>
      <point x="906" y="499"/>
      <point x="813" y="499" type="curve" smooth="yes"/>
      <point x="732" y="499"/>
      <point x="679" y="438"/>
      <point x="679" y="364" type="curve" smooth="yes"/>
      <point x="679" y="326"/>
      <point x="693" y="294"/>
      <point x="723" y="257" type="curve"/>
      <point x="676" y="233"/>
      <point x="616" y="219"/>
      <point x="555" y="219" type="curve" smooth="yes"/>
      <point x="357" y="219"/>
      <point x="249" y="365"/>
      <point x="249" y="518" type="curve" smooth="yes"/>
      <point x="249" y="690"/>
      <point x="384" y="819"/>
      <point x="613" y="819" type="curve" smooth="yes"/>
    </contour>
  </outline>
</glyph>
<glyph name="nadeva" format="1">
  <advance width="1121"/>
  <unicode hex="0928"/>
  <outline>
    <contour>
      <point x="914" y="-12" type="line"/>
      <point x="914" y="1197" type="line"/>
      <point x="1171" y="1197" type="line"/>
      <point x="1177" y="1206" type="line"/>
      <point x="1121" y="1330" type="line"/>
      <point x="-50" y="1330" type="line"/>
      <point x="-56" y="1321" type="line"/>
      <point x="0" y="1197" type="line"/>
      <point x="754" y="1197" type="line"/>
      <point x="754" y="853" type="line"/>
      <point x="236" y="853" type="line" smooth="yes"/>
      <point x="135" y="853"/>
      <point x="55" y="837"/>
      <point x="55" y="763" type="curve" smooth="yes"/>
      <point x="55" y="654"/>
      <point x="227" y="484"/>
      <point x="303" y="484" type="curve" smooth="yes"/>
      <point x="331" y="484"/>
      <point x="358" y="507"/>
      <point x="358" y="563" type="curve" smooth="yes"/>
      <point x="358" y="708" type="line"/>
      <point x="754" y="708" type="line"/>
      <point x="754" y="19" type="line"/>
      <point x="905" y="-19" type="line"/>
    </contour>
  </outline>
</glyph>
<glyph name="phadeva" format="1">
  <advance width="1480"/>
  <unicode hex="092B"/>
  <outline>
    <contour>
      <point x="1396" y="811"/>
      <point x="1239" y="942"/>
      <point x="1065" y="942" type="curve" smooth="yes"/>
      <point x="981" y="942"/>
      <point x="908" y="912"/>
      <point x="844" y="849" type="curve"/>
      <point x="844" y="1197" type="line"/>
      <point x="1530" y="1197" type="line"/>
      <point x="1536" y="1206" type="line"/>
      <point x="1480" y="1330" type="line"/>
      <point x="-50" y="1330" type="line"/>
      <point x="-56" y="1321" type="line"/>
      <point x="0" y="1197" type="line"/>
      <point x="129" y="1197" type="line"/>
      <point x="129" y="745" type="line" smooth="yes"/>
      <point x="129" y="536"/>
      <point x="304" y="361"/>
      <point x="494" y="361" type="curve" smooth="yes"/>
      <point x="553" y="361"/>
      <point x="617" y="378"/>
      <point x="684" y="417" type="curve"/>
      <point x="684" y="19" type="line"/>
      <point x="835" y="-19" type="line"/>
      <point x="844" y="-12" type="line"/>
      <point x="844" y="518" type="line" smooth="yes"/>
      <point x="844" y="694"/>
      <point x="1003" y="815"/>
      <point x="1128" y="815" type="curve" smooth="yes"/>
      <point x="1216" y="815"/>
      <point x="1271" y="755"/>
      <point x="1271" y="647" type="curve" smooth="yes"/>
      <point x="1271" y="521"/>
      <point x="1196" y="386"/>
      <point x="1060" y="317" type="curve"/>
      <point x="1091" y="266"/>
      <point x="1143" y="230"/>
      <point x="1195" y="230" type="curve" smooth="yes"/>
      <point x="1290" y="230"/>
      <point x="1396" y="349"/>
      <point x="1396" y="557" type="curve" smooth="yes"/>
    </contour>
    <contour>
      <point x="289" y="1197" type="line"/>
      <point x="684" y="1197" type="line"/>
      <point x="684" y="720" type="line" smooth="yes"/>
      <point x="684" y="588"/>
      <point x="558" y="483"/>
      <point x="435" y="483" type="curve" smooth="yes"/>
      <point x="342" y="483"/>
      <point x="289" y="543"/>
      <point x="289" y="660" type="curve" smooth="yes"/>
    </contour>
  </outline>
</glyph>
<glyph name="bhadeva" format="1">
  <advance width="1383"/>
  <unicode hex="092D"/>
  <outline>
    <contour>
      <point x="68" y="1058"/>
      <point x="202" y="934"/>
      <point x="320" y="934" type="curve" smooth="yes"/>
      <point x="360" y="934"/>
      <point x="380" y="948"/>
      <point x="389" y="963" type="curve"/>
      <point x="265" y="1012"/>
      <point x="218" y="1079"/>
      <point x="218" y="1148" type="curve" smooth="yes"/>
      <point x="218" y="1217"/>
      <point x="263" y="1260"/>
      <point x="331" y="1260" type="curve" smooth="yes"/>
      <point x="406" y="1260"/>
      <point x="447" y="1207"/>
      <point x="447" y="1069" type="curve" smooth="yes"/>
      <point x="447" y="662" type="line"/>
      <point x="371" y="659"/>
      <point x="302" y="641"/>
      <point x="302" y="573" type="curve" smooth="yes"/>
      <point x="302" y="464"/>
      <point x="474" y="294"/>
      <point x="550" y="294" type="curve" smooth="yes"/>
      <point x="578" y="294"/>
      <point x="605" y="317"/>
      <point x="605" y="373" type="curve" smooth="yes"/>
      <point x="605" y="518" type="line"/>
      <point x="1016" y="518" type="line"/>
      <point x="1016" y="19" type="line"/>
      <point x="1167" y="-19" type="line"/>
      <point x="1176" y="-12" type="line"/>
      <point x="1176" y="1197" type="line"/>
      <point x="1433" y="1197" type="line"/>
      <point x="1439" y="1206" type="line"/>
      <point x="1383" y="1330" type="line"/>
      <point x="684" y="1330" type="line"/>
      <point x="678" y="1321" type="line"/>
      <point x="734" y="1197" type="line"/>
      <point x="1016" y="1197" type="line"/>
      <point x="1016" y="663" type="line"/>
      <point x="605" y="663" type="line"/>
      <point x="605" y="973" type="line" smooth="yes"/>
      <point x="605" y="1206"/>
      <point x="445" y="1387"/>
      <point x="266" y="1387" type="curve" smooth="yes"/>
      <point x="146" y="1387"/>
      <point x="68" y="1304"/>
      <point x="68" y="1198" type="curve" smooth="yes"/>
    </contour>
  </outline>
</glyph>
<glyph name="radeva" format="1">
  <advance width="866"/>
  <unicode hex="0930"/>
  <outline>
    <contour>
      <point x="916" y="1197" type="line"/>
      <point x="922" y="1206" type="line"/>
      <point x="866" y="1330" type="line"/>
      <point x="-50" y="1330" type="line"/>
      <point x="-56" y="1321" type="line"/>
      <point x="0" y="1197" type="line"/>
      <point x="462" y="1197" type="line"/>
      <point x="497" y="1104"/>
      <point x="513" y="1009"/>
      <point x="513" y="938" type="curve" smooth="yes"/>
      <point x="513" y="834"/>
      <point x="479" y="767"/>
      <point x="397" y="723" type="curve"/>
      <point x="328" y="762"/>
      <point x="262" y="779"/>
      <point x="213" y="779" type="curve" smooth="yes"/>
      <point x="125" y="779"/>
      <point x="78" y="723"/>
      <point x="78" y="653" type="curve" smooth="yes"/>
      <point x="78" y="452"/>
      <point x="461" y="-2"/>
      <point x="639" y="-2" type="curve" smooth="yes"/>
      <point x="681" y="-2"/>
      <point x="723" y="24"/>
      <point x="733" y="66" type="curve"/>
      <point x="530" y="170"/>
      <point x="383" y="289"/>
      <point x="255" y="484" type="curve"/>
      <point x="557" y="539"/>
      <point x="647" y="694"/>
      <point x="647" y="862" type="curve" smooth="yes"/>
      <point x="647" y="968"/>
      <point x="611" y="1083"/>
      <point x="561" y="1197" type="curve"/>
    </contour>
  </outline>
</glyph>
<glyph name="lladeva" format="1">
  <advance width="1431"/>
  <unicode hex="0933"/>
  <outline>
    <contour>
      <point x="1074" y="1197" type="line"/>
      <point x="1481" y="1197" type="line"/>
      <point x="1487" y="1206" type="line"/>
      <point x="1431" y="1330" type="line"/>
      <point x="-50" y="1330" type="line"/>
      <point x="-56" y="1321" type="line"/>
      <point x="0" y="1197" type="line"/>
      <point x="924" y="1197" type="line"/>
      <point x="924" y="894" type="line"/>
      <point x="848" y="876"/>
      <point x="798" y="823"/>
      <point x="736" y="724" type="curve"/>
      <point x="608" y="850"/>
      <point x="489" y="910"/>
      <point x="370" y="910" type="curve" smooth="yes"/>
      <point x="188" y="910"/>
      <point x="56" y="771"/>
      <point x="56" y="587" type="curve" smooth="yes"/>
      <point x="56" y="360"/>
      <point x="255" y="157"/>
      <point x="457" y="157" type="curve" smooth="yes"/>
      <point x="584" y="157"/>
      <point x="653" y="237"/>
      <point x="723" y="361" type="curve"/>
      <point x="848" y="216"/>
      <point x="964" y="147"/>
      <point x="1084" y="147" type="curve" smooth="yes"/>
      <point x="1255" y="147"/>
      <point x="1385" y="286"/>
      <point x="1385" y="470" type="curve" smooth="yes"/>
      <point x="1385" y="663"/>
      <point x="1242" y="838"/>
      <point x="1074" y="887" type="curve"/>
    </contour>
    <contour>
      <point x="525" y="769"/>
      <point x="609" y="726"/>
      <point x="689" y="641" type="curve"/>
      <point x="551" y="379"/>
      <point x="508" y="288"/>
      <point x="393" y="288" type="curve" smooth="yes"/>
      <point x="276" y="288"/>
      <point x="200" y="381"/>
      <point x="200" y="511" type="curve" smooth="yes"/>
      <point x="200" y="654"/>
      <point x="293" y="769"/>
      <point x="437" y="769" type="curve" smooth="yes"/>
    </contour>
    <contour>
      <point x="1168" y="769"/>
      <point x="1241" y="676"/>
      <point x="1241" y="547" type="curve" smooth="yes"/>
      <point x="1241" y="403"/>
      <point x="1150" y="288"/>
      <point x="1017" y="288" type="curve" smooth="yes"/>
      <point x="930" y="288"/>
      <point x="850" y="338"/>
      <point x="769" y="449" type="curve"/>
      <point x="904" y="718"/>
      <point x="958" y="769"/>
      <point x="1047" y="769" type="curve" smooth="yes"/>
    </contour>
  </outline>
</glyph>
<glyph name="vadeva" format="1">
  <advance width="1160"/>
  <unicode hex="0935"/>
  <outline>
    <contour>
      <point x="953" y="-12" type="line"/>
      <point x="953" y="1197" type="line"/>
      <point x="1210" y="1197" type="line"/>
      <point x="1216" y="1206" type="line"/>
      <point x="1160" y="1330" type="line"/>
      <point x="-50" y="1330" type="line"/>
      <point x="-56" y="1321" type="line"/>
      <point x="0" y="1197" type="line"/>
      <point x="793" y="1197" type="line"/>
      <point x="793" y="855" type="line"/>
      <point x="692" y="961"/>
      <point x="567" y="1007"/>
      <point x="448" y="1007" type="curve" smooth="yes"/>
      <point x="236" y="1007"/>
      <point x="79" y="860"/>
      <point x="79" y="666" type="curve" smooth="yes"/>
      <point x="79" y="421"/>
      <point x="329" y="219"/>
      <point x="552" y="219" type="curve" smooth="yes"/>
      <point x="622" y="219"/>
      <point x="709" y="239"/>
      <point x="793" y="297" type="curve"/>
      <point x="793" y="19" type="line"/>
      <point x="944" y="-19" type="line"/>
    </contour>
    <contour>
      <point x="674" y="863"/>
      <point x="793" y="773"/>
      <point x="793" y="652" type="curve" smooth="yes"/>
      <point x="793" y="618" type="line" smooth="yes"/>
      <point x="793" y="464"/>
      <point x="637" y="350"/>
      <point x="481" y="350" type="curve" smooth="yes"/>
      <point x="330" y="350"/>
      <point x="228" y="457"/>
      <point x="228" y="597" type="curve" smooth="yes"/>
      <point x="228" y="747"/>
      <point x="345" y="863"/>
      <point x="520" y="863" type="curve" smooth="yes"/>
    </contour>
  </outline>
</glyph>
<glyph name="ssadeva" format="1">
  <advance width="1112"/>
  <unicode hex="0937"/>
  <outline>
    <contour>
      <point x="904" y="-12" type="line"/>
      <point x="904" y="1197" type="line"/>
      <point x="1162" y="1197" type="line"/>
      <point x="1168" y="1206" type="line"/>
      <point x="1112" y="1330" type="line"/>
      <point x="-50" y="1330" type="line"/>
      <point x="-56" y="1321" type="line"/>
      <point x="0" y="1197" type="line"/>
      <point x="129" y="1197" type="line"/>
      <point x="129" y="755" type="line" smooth="yes"/>
      <point x="129" y="536"/>
      <point x="320" y="351"/>
      <point x="522" y="351" type="curve" smooth="yes"/>
      <point x="596" y="351"/>
      <point x="669" y="373"/>
      <point x="744" y="421" type="curve"/>
      <point x="744" y="19" type="line"/>
      <point x="895" y="-19" type="line"/>
    </contour>
    <contour>
      <point x="293" y="1197" type="line"/>
      <point x="744" y="1197" type="line"/>
      <point x="744" y="750" type="line" smooth="yes"/>
      <point x="744" y="710"/>
      <point x="737" y="675"/>
      <point x="721" y="641" type="curve"/>
    </contour>
    <contour>
      <point x="355" y="473"/>
      <point x="289" y="541"/>
      <point x="289" y="670" type="curve" smooth="yes"/>
      <point x="289" y="1032" type="line"/>
      <point x="660" y="557" type="line"/>
      <point x="607" y="505"/>
      <point x="535" y="473"/>
      <point x="462" y="473" type="curve" smooth="yes"/>
    </contour>
  </outline>
</glyph>
<glyph name="sadeva" format="1">
  <advance width="1360"/>
  <unicode hex="0938"/>
  <outline>
    <contour>
      <point x="1152" y="-12" type="line"/>
      <point x="1152" y="1197" type="line"/>
      <point x="1410" y="1197" type="line"/>
      <point x="1416" y="1206" type="line"/>
      <point x="1360" y="1330" type="line"/>
      <point x="-50" y="1330" type="line"/>
      <point x="-56" y="1321" type="line"/>
      <point x="0" y="1197" type="line"/>
      <point x="404" y="1197" type="line"/>
      <point x="444" y="1105"/>
      <point x="463" y="1011"/>
      <point x="463" y="932" type="curve" smooth="yes"/>
      <point x="463" y="840"/>
      <point x="437" y="777"/>
      <point x="377" y="733" type="curve"/>
      <point x="316" y="765"/>
      <point x="257" y="779"/>
      <point x="213" y="779" type="curve" smooth="yes"/>
      <point x="125" y="779"/>
      <point x="78" y="723"/>
      <point x="78" y="653" type="curve" smooth="yes"/>
      <point x="78" y="452"/>
      <point x="461" y="-2"/>
      <point x="639" y="-2" type="curve" smooth="yes"/>
      <point x="681" y="-2"/>
      <point x="723" y="24"/>
      <point x="733" y="66" type="curve"/>
      <point x="530" y="171"/>
      <point x="380" y="293"/>
      <point x="255" y="484" type="curve"/>
      <point x="362" y="508"/>
      <point x="432" y="543"/>
      <point x="486" y="591" type="curve"/>
      <point x="595" y="540"/>
      <point x="718" y="503"/>
      <point x="823" y="503" type="curve" smooth="yes"/>
      <point x="878" y="503"/>
      <point x="932" y="513"/>
      <point x="992" y="542" type="curve"/>
      <point x="992" y="19" type="line"/>
      <point x="1143" y="-19" type="line"/>
    </contour>
    <contour>
      <point x="597" y="965"/>
      <point x="562" y="1074"/>
      <point x="504" y="1197" type="curve"/>
      <point x="992" y="1197" type="line"/>
      <point x="992" y="830" type="line" smooth="yes"/>
      <point x="990" y="711"/>
      <point x="888" y="626"/>
      <point x="740" y="626" type="curve" smooth="yes"/>
      <point x="687" y="626"/>
      <point x="613" y="637"/>
      <point x="542" y="660" type="curve"/>
      <point x="584" y="726"/>
      <point x="597" y="782"/>
      <point x="597" y="851" type="curve" smooth="yes"/>
    </contour>
  </outline>
</glyph>
<glyph name="hadeva" format="1">
  <advance width="1006"/>
  <unicode hex="0939"/>
  <outline>
    <contour>
      <point x="802" y="883" type="line"/>
      <point x="802" y="1197" type="line"/>
      <point x="1056" y="1197" type="line"/>
      <point x="1062" y="1206" type="line"/>
      <point x="1006" y="1330" type="line"/>
      <point x="-50" y="1330" type="line"/>
      <point x="-56" y="1321" type="line"/>
      <point x="0" y="1197" type="line"/>
      <point x="648" y="1197" type="line"/>
      <point x="648" y="1024" type="line" smooth="yes"/>
      <point x="648" y="1019"/>
      <point x="645" y="1016"/>
      <point x="640" y="1016" type="curve" smooth="yes"/>
      <point x="297" y="1016" type="line" smooth="yes"/>
      <point x="159" y="1016"/>
      <point x="94" y="938"/>
      <point x="94" y="840" type="curve" smooth="yes"/>
      <point x="94" y="756"/>
      <point x="142" y="654"/>
      <point x="235" y="579" type="curve"/>
      <point x="185" y="523"/>
      <point x="153" y="445"/>
      <point x="153" y="356" type="curve" smooth="yes"/>
      <point x="153" y="100"/>
      <point x="415" y="-123"/>
      <point x="704" y="-123" type="curve" smooth="yes"/>
      <point x="818" y="-123"/>
      <point x="858" y="-88"/>
      <point x="858" y="-32" type="curve"/>
      <point x="503" y="-32"/>
      <point x="303" y="119"/>
      <point x="303" y="304" type="curve" smooth="yes"/>
      <point x="303" y="444"/>
      <point x="416" y="556"/>
      <point x="600" y="556" type="curve" smooth="yes"/>
      <point x="723" y="556"/>
      <point x="788" y="506"/>
      <point x="788" y="432" type="curve" smooth="yes"/>
      <point x="788" y="366"/>
      <point x="737" y="307"/>
      <point x="628" y="258" type="curve"/>
      <point x="668" y="190"/>
      <point x="708" y="170"/>
      <point x="750" y="170" type="curve" smooth="yes"/>
      <point x="829" y="170"/>
      <point x="898" y="240"/>
      <point x="898" y="364" type="curve" smooth="yes"/>
      <point x="898" y="549"/>
      <point x="744" y="699"/>
      <point x="529" y="699" type="curve" smooth="yes"/>
      <point x="450" y="699"/>
      <point x="369" y="679"/>
      <point x="304" y="637" type="curve"/>
      <point x="263" y="673"/>
      <point x="239" y="715"/>
      <point x="239" y="760" type="curve" smooth="yes"/>
      <point x="239" y="817"/>
      <point x="277" y="875"/>
      <point x="379" y="875" type="curve" smooth="yes"/>
      <point x="794" y="875" type="line"/>
    </contour>
  </outline>
</glyph>
<glyph name="nuktadeva" format="1">
  <advance width="0"/>
  <unicode hex="093C"/>
  <outline>
    <contour>
      <point x="-741" y="172"/>
      <point x="-784" y="129"/>
      <point x="-784" y="77" type="curve" smooth="yes"/>
      <point x="-784" y="24"/>
      <point x="-741" y="-19"/>
      <point x="-688" y="-19" type="curve" smooth="yes"/>
      <point x="-636" y="-19"/>
      <point x="-593" y="24"/>
      <point x="-593" y="77" type="curve" smooth="yes"/>
      <point x="-593" y="129"/>
      <point x="-636" y="172"/>
      <point x="-688" y="172" type="curve" smooth="yes"/>
    </contour>
  </outline>
</glyph>
<glyph name="aasigndeva" format="1">
  <advance width="573"/>
  <unicode hex="093E"/>
  <outline>
    <contour>
      <point x="206" y="19" type="line"/>
      <point x="357" y="-19" type="line"/>
      <point x="366" y="-12" type="line"/>
      <point x="366" y="1197" type="line"/>
      <point x="623" y="1197" type="line"/>
      <point x="629" y="1206" type="line"/>
      <point x="573" y="1330" type="line"/>
      <point x="-50" y="1330" type="line"/>
      <point x="-56" y="1321" type="line"/>
      <point x="0" y="1197" type="line"/>
      <point x="206" y="1197" type="line"/>
    </contour>
  </outline>
</glyph>
<glyph name="usigndeva" format="1">
  <advance width="0"/>
  <unicode hex="0941"/>
  <outline>
    <contour>
      <point x="-449" y="30"/>
      <point x="-539" y="-36"/>
      <point x="-539" y="-104" type="curve" smooth="yes"/>
      <point x="-539" y="-147"/>
      <point x="-505" y="-193"/>
      <point x="-433" y="-198" type="curve"/>
      <point x="-376" y="-126"/>
      <point x="-326" y="-97"/>
      <point x="-270" y="-97" type="curve" smooth="yes"/>
      <point x="-202" y="-97"/>
      <point x="-155" y="-140"/>
      <point x="-155" y="-208" type="curve" smooth="yes"/>
      <point x="-155" y="-299"/>
      <point x="-238" y="-369"/>
      <point x="-374" y="-369" type="curve" smooth="yes"/>
      <point x="-555" y="-369"/>
      <point x="-696" y="-245"/>
      <point x="-801" y="-14" type="curve"/>
      <point x="-827" y="-21"/>
      <point x="-847" y="-46"/>
      <point x="-847" y="-74" type="curve" smooth="yes"/>
      <point x="-847" y="-163"/>
      <point x="-630" y="-515"/>
      <point x="-316" y="-515" type="curve" smooth="yes"/>
      <point x="-154" y="-515"/>
      <point x="-41" y="-421"/>
      <point x="-41" y="-273" type="curve" smooth="yes"/>
      <point x="-41" y="-112"/>
      <point x="-176" y="30"/>
      <point x="-338" y="30" type="curve" smooth="yes"/>
    </contour>
    <contour>
      <point x="-143" y="61" type="move" name="_class0"/>
    </contour>
  </outline>
</glyph>
<glyph name="uusigndeva" format="1">
  <advance width="0"/>
  <unicode hex="0942"/>
  <outline>
    <contour>
      <point x="-496" y="34"/>
      <point x="-605" y="-56"/>
      <point x="-605" y="-196" type="curve" smooth="yes"/>
      <point x="-605" y="-348"/>
      <point x="-475" y="-493"/>
      <point x="-315" y="-493" type="curve" smooth="yes"/>
      <point x="-209" y="-493"/>
      <point x="-117" y="-429"/>
      <point x="-117" y="-365" type="curve" smooth="yes"/>
      <point x="-117" y="-322"/>
      <point x="-151" y="-276"/>
      <point x="-223" y="-271" type="curve"/>
      <point x="-278" y="-335"/>
      <point x="-330" y="-366"/>
      <point x="-385" y="-367" type="curve" smooth="yes"/>
      <point x="-450" y="-366"/>
      <point x="-491" y="-322"/>
      <point x="-491" y="-258" type="curve" smooth="yes"/>
      <point x="-491" y="-171"/>
      <point x="-415" y="-112"/>
      <point x="-294" y="-113" type="curve" smooth="yes"/>
      <point x="-142" y="-112"/>
      <point x="4" y="-205"/>
      <point x="165" y="-386" type="curve"/>
      <point x="187" y="-377"/>
      <point x="196" y="-356"/>
      <point x="196" y="-342" type="curve" smooth="yes"/>
      <point x="196" y="-277"/>
      <point x="-85" y="34"/>
      <point x="-346" y="34" type="curve" smooth="yes"/>
    </contour>
    <contour>
      <point x="-130" y="69" type="move" name="_class0"/>
    </contour>
  </outline>
</glyph>
<glyph name="rrvocalicsigndeva" format="1">
  <advance width="0"/>
  <unicode hex="0944"/>
  <outline>
    <contour>
      <point x="-92" y="-528"/>
      <point x="-201" y="-579"/>
      <point x="-275" y="-579" type="curve" smooth="yes"/>
      <point x="-329" y="-579"/>
      <point x="-362" y="-551"/>
      <point x="-362" y="-506" type="curve" smooth="yes"/>
      <point x="-362" y="-451"/>
      <point x="-315" y="-391"/>
      <point x="-106" y="-292" type="curve"/>
      <point x="-103" y="-281" type="line"/>
      <point x="-191" y="-182" type="line"/>
      <point x="-306" y="-260"/>
      <point x="-351" y="-286"/>
      <point x="-398" y="-286" type="curve" smooth="yes"/>
      <point x="-448" y="-286"/>
      <point x="-475" y="-257"/>
      <point x="-475" y="-216" type="curve" smooth="yes"/>
      <point x="-475" y="-167"/>
      <point x="-436" y="-85"/>
      <point x="-207" y="-22" type="curve"/>
      <point x="-207" y="-11" type="line"/>
      <point x="-313" y="93" type="line"/>
      <point x="-529" y="35"/>
      <point x="-594" y="-70"/>
      <point x="-594" y="-158" type="curve" smooth="yes"/>
      <point x="-594" y="-234"/>
      <point x="-546" y="-309"/>
      <point x="-456" y="-354" type="curve"/>
      <point x="-483" y="-385"/>
      <point x="-491" y="-419"/>
      <point x="-491" y="-449" type="curve" smooth="yes"/>
      <point x="-491" y="-569"/>
      <point x="-361" y="-687"/>
      <point x="-200" y="-687" type="curve" smooth="yes"/>
      <point x="-63" y="-687"/>
      <point x="42" y="-602"/>
      <point x="42" y="-527" type="curve" smooth="yes"/>
      <point x="42" y="-483"/>
      <point x="5" y="-451"/>
      <point x="-36" y="-435" type="curve"/>
    </contour>
    <contour>
      <point x="-130" y="69" type="move" name="_class0"/>
    </contour>
  </outline>
</glyph>
<glyph name="eshortsigndeva" format="1">
  <advance width="0"/>
  <unicode hex="0946"/>
  <outline>
    <contour>
      <point x="-352" y="1311" type="line"/>
      <point x="-212" y="1311" type="line"/>
      <point x="-212" y="1330" type="line"/>
      <point x="-257" y="1646"/>
      <point x="-430" y="1677"/>
      <point x="-737" y="1732" type="curve" smooth="yes"/>
      <point x="-957" y="1772"/>
      <point x="-1075" y="1794"/>
      <point x="-1168" y="1956" type="curve"/>
      <point x="-1179" y="1934"/>
      <point x="-1186" y="1912"/>
      <point x="-1186" y="1878" type="curve" smooth="yes"/>
      <point x="-1186" y="1645"/>
      <point x="-870" y="1594"/>
      <point x="-631" y="1558" type="curve" smooth="yes"/>
      <point x="-441" y="1529"/>
      <point x="-334" y="1512"/>
      <point x="-334" y="1415" type="curve" smooth="yes"/>
      <point x="-334" y="1392"/>
      <point x="-340" y="1362"/>
      <point x="-352" y="1330" type="curve"/>
    </contour>
    <contour>
      <point x="-127" y="665" type="move" name="_class0"/>
    </contour>
  </outline>
</glyph>
<glyph name="esigndeva" format="1">
  <advance width="0"/>
  <unicode hex="0947"/>
  <outline>
    <contour>
      <point x="-754" y="1771"/>
      <point x="-658" y="1703"/>
      <point x="-362" y="1330" type="curve"/>
      <point x="-362" y="1272" type="line"/>
      <point x="-246" y="1272" type="line"/>
      <point x="-246" y="1330" type="line"/>
      <point x="-642" y="1842"/>
      <point x="-793" y="1922"/>
      <point x="-928" y="1922" type="curve" smooth="yes"/>
      <point x="-1047" y="1922"/>
      <point x="-1115" y="1859"/>
      <point x="-1115" y="1788" type="curve" smooth="yes"/>
      <point x="-1115" y="1732"/>
      <point x="-1074" y="1687"/>
      <point x="-1016" y="1668" type="curve"/>
      <point x="-983" y="1735"/>
      <point x="-933" y="1771"/>
      <point x="-859" y="1771" type="curve" smooth="yes"/>
    </contour>
    <contour>
      <point x="-122" y="664" type="move" name="_class0"/>
    </contour>
  </outline>
</glyph>
<glyph name="aisigndeva" format="1">
  <advance width="0"/>
  <unicode hex="0948"/>
  <outline>
    <contour>
      <point x="-776" y="2022"/>
      <point x="-825" y="1962"/>
      <point x="-825" y="1905" type="curve" smooth="yes"/>
      <point x="-825" y="1853"/>
      <point x="-784" y="1820"/>
      <point x="-732" y="1801" type="curve"/>
      <point x="-705" y="1839"/>
      <point x="-670" y="1864"/>
      <point x="-622" y="1864" type="curve" smooth="yes"/>
      <point x="-554" y="1864"/>
      <point x="-491" y="1813"/>
      <point x="-368" y="1445" type="curve"/>
      <point x="-586" y="1616"/>
      <point x="-807" y="1732"/>
      <point x="-939" y="1732" type="curve" smooth="yes"/>
      <point x="-1027" y="1732"/>
      <point x="-1095" y="1677"/>
      <point x="-1095" y="1603" type="curve" smooth="yes"/>
      <point x="-1095" y="1551"/>
      <point x="-1061" y="1508"/>
      <point x="-983" y="1488" type="curve"/>
      <point x="-958" y="1550"/>
      <point x="-914" y="1589"/>
      <point x="-850" y="1589" type="curve" smooth="yes"/>
      <point x="-752" y="1589"/>
      <point x="-568" y="1501"/>
      <point x="-376" y="1330" type="curve"/>
      <point x="-376" y="1282" type="line"/>
      <point x="-233" y="1282" type="line"/>
      <point x="-233" y="1330" type="line"/>
      <point x="-407" y="1929"/>
      <point x="-556" y="2022"/>
      <point x="-678" y="2022" type="curve" smooth="yes"/>
    </contour>
    <contour>
      <point x="-135" y="664" type="move" name="_class0"/>
    </contour>
  </outline>
</glyph>
<glyph name="ocandrasigndeva" format="1">
  <advance width="483"/>
  <unicode hex="0949"/>
  <outline>
    <contour>
      <point x="-357" y="1870"/>
      <point x="-372" y="1856"/>
      <point x="-372" y="1812" type="curve" smooth="yes"/>
      <point x="-372" y="1683"/>
      <point x="-241" y="1486"/>
      <point x="-36" y="1486" type="curve" smooth="yes"/>
      <point x="144" y="1486"/>
      <point x="271" y="1639"/>
      <point x="271" y="1760" type="curve" smooth="yes"/>
      <point x="271" y="1812"/>
      <point x="248" y="1838"/>
      <point x="181" y="1866" type="curve"/>
      <point x="139" y="1696"/>
      <point x="40" y="1619"/>
      <point x="-72" y="1619" type="curve" smooth="yes"/>
      <point x="-178" y="1619"/>
      <point x="-270" y="1689"/>
      <point x="-331" y="1884" type="curve"/>
    </contour>
    <contour>
      <point x="116" y="19" type="line"/>
      <point x="267" y="-19" type="line"/>
      <point x="276" y="-12" type="line"/>
      <point x="276" y="1197" type="line"/>
      <point x="533" y="1197" type="line"/>
      <point x="539" y="1206" type="line"/>
      <point x="483" y="1330" type="line"/>
      <point x="-140" y="1330" type="line"/>
      <point x="-146" y="1321" type="line"/>
      <point x="-90" y="1197" type="line"/>
      <point x="116" y="1197" type="line"/>
    </contour>
  </outline>
</glyph>
<glyph name="oshortsigndeva" format="1">
  <advance width="573"/>
  <unicode hex="094A"/>
  <outline>
    <contour>
      <point x="623" y="1197" type="line"/>
      <point x="629" y="1206" type="line"/>
      <point x="573" y="1330" type="line"/>
      <point x="361" y="1330" type="line"/>
      <point x="316" y="1646"/>
      <point x="138" y="1679"/>
      <point x="-164" y="1732" type="curve" smooth="yes"/>
      <point x="-394" y="1772"/>
      <point x="-518" y="1794"/>
      <point x="-615" y="1956" type="curve"/>
      <point x="-626" y="1934"/>
      <point x="-633" y="1912"/>
      <point x="-633" y="1878" type="curve" smooth="yes"/>
      <point x="-633" y="1643"/>
      <point x="-298" y="1593"/>
      <point x="-58" y="1558" type="curve" smooth="yes"/>
      <point x="134" y="1530"/>
      <point x="239" y="1510"/>
      <point x="239" y="1414" type="curve" smooth="yes"/>
      <point x="239" y="1392"/>
      <point x="233" y="1362"/>
      <point x="221" y="1330" type="curve"/>
      <point x="-50" y="1330" type="line"/>
      <point x="-56" y="1321" type="line"/>
      <point x="0" y="1197" type="line"/>
      <point x="206" y="1197" type="line"/>
      <point x="206" y="19" type="line"/>
      <point x="357" y="-19" type="line"/>
      <point x="366" y="-12" type="line"/>
      <point x="366" y="1197" type="line"/>
    </contour>
  </outline>
</glyph>
<glyph name="osigndeva" format="1">
  <advance width="573"/>
  <unicode hex="094B"/>
  <outline>
    <contour>
      <point x="366" y="-12" type="line"/>
      <point x="366" y="1197" type="line"/>
      <point x="623" y="1197" type="line"/>
      <point x="629" y="1206" type="line"/>
      <point x="573" y="1330" type="line"/>
      <point x="330" y="1330" type="line"/>
      <point x="-66" y="1842"/>
      <point x="-217" y="1922"/>
      <point x="-352" y="1922" type="curve" smooth="yes"/>
      <point x="-471" y="1922"/>
      <point x="-539" y="1859"/>
      <point x="-539" y="1788" type="curve" smooth="yes"/>
      <point x="-539" y="1732"/>
      <point x="-498" y="1687"/>
      <point x="-440" y="1668" type="curve"/>
      <point x="-407" y="1735"/>
      <point x="-357" y="1771"/>
      <point x="-283" y="1771" type="curve" smooth="yes"/>
      <point x="-178" y="1771"/>
      <point x="-82" y="1703"/>
      <point x="214" y="1330" type="curve"/>
      <point x="-50" y="1330" type="line"/>
      <point x="-56" y="1321" type="line"/>
      <point x="0" y="1197" type="line"/>
      <point x="206" y="1197" type="line"/>
      <point x="206" y="19" type="line"/>
      <point x="357" y="-19" type="line"/>
    </contour>
  </outline>
</glyph>
<glyph name="ausigndeva" format="1">
  <advance width="573"/>
  <unicode hex="094C"/>
  <outline>
    <contour>
      <point x="623" y="1197" type="line"/>
      <point x="629" y="1206" type="line"/>
      <point x="573" y="1330" type="line"/>
      <point x="350" y="1330" type="line"/>
      <point x="176" y="1929"/>
      <point x="27" y="2022"/>
      <point x="-95" y="2022" type="curve" smooth="yes"/>
      <point x="-193" y="2022"/>
      <point x="-242" y="1962"/>
      <point x="-242" y="1905" type="curve" smooth="yes"/>
      <point x="-242" y="1853"/>
      <point x="-201" y="1820"/>
      <point x="-149" y="1801" type="curve"/>
      <point x="-122" y="1839"/>
      <point x="-87" y="1864"/>
      <point x="-39" y="1864" type="curve" smooth="yes"/>
      <point x="29" y="1864"/>
      <point x="92" y="1813"/>
      <point x="215" y="1445" type="curve"/>
      <point x="-3" y="1616"/>
      <point x="-224" y="1732"/>
      <point x="-356" y="1732" type="curve" smooth="yes"/>
      <point x="-444" y="1732"/>
      <point x="-512" y="1677"/>
      <point x="-512" y="1603" type="curve" smooth="yes"/>
      <point x="-512" y="1551"/>
      <point x="-478" y="1508"/>
      <point x="-400" y="1488" type="curve"/>
      <point x="-375" y="1550"/>
      <point x="-331" y="1589"/>
      <point x="-267" y="1589" type="curve" smooth="yes"/>
      <point x="-169" y="1589"/>
      <point x="15" y="1501"/>
      <point x="207" y="1330" type="curve"/>
      <point x="-50" y="1330" type="line"/>
      <point x="-56" y="1321" type="line"/>
      <point x="0" y="1197" type="line"/>
      <point x="206" y="1197" type="line"/>
      <point x="206" y="19" type="line"/>
      <point x="357" y="-19" type="line"/>
      <point x="366" y="-12" type="line"/>
      <point x="366" y="1197" type="line"/>
    </contour>
  </outline>
</glyph>
<glyph name="viramadeva" format="1">
  <advance width="0"/>
  <unicode hex="094D"/>
  <outline>
    <contour>
      <point x="-465" y="-92"/>
      <point x="-518" y="-127"/>
      <point x="-518" y="-178" type="curve" smooth="yes"/>
      <point x="-518" y="-212"/>
      <point x="-494" y="-246"/>
      <point x="-451" y="-278" type="curve"/>
      <point x="-415" y="-268"/>
      <point x="-361" y="-257"/>
      <point x="-304" y="-257" type="curve" smooth="yes"/>
      <point x="-186" y="-257"/>
      <point x="-48" y="-304"/>
      <point x="157" y="-539" type="curve"/>
      <point x="179" y="-530"/>
      <point x="188" y="-509"/>
      <point x="188" y="-496" type="curve" smooth="yes"/>
      <point x="188" y="-447"/>
      <point x="57" y="-278"/>
      <point x="-119" y="-171" type="curve" smooth="yes"/>
      <point x="-226" y="-106"/>
      <point x="-306" y="-92"/>
      <point x="-368" y="-92" type="curve" smooth="yes"/>
    </contour>
    <contour>
      <point x="-119" y="42" type="move" name="_class0"/>
    </contour>
  </outline>
</glyph>
<glyph name="awsigndeva" format="1">
  <advance width="573"/>
  <unicode hex="094F"/>
  <outline>
    <contour>
      <point x="366" y="-12" type="line"/>
      <point x="366" y="1197" type="line"/>
      <point x="623" y="1197" type="line"/>
      <point x="629" y="1206" type="line"/>
      <point x="573" y="1330" type="line"/>
      <point x="360" y="1330" type="line"/>
      <point x="321" y="1727"/>
      <point x="218" y="1768"/>
      <point x="-96" y="1860" type="curve" smooth="yes"/>
      <point x="-265" y="1910"/>
      <point x="-346" y="1928"/>
      <point x="-386" y="2033" type="curve"/>
      <point x="-401" y="2010"/>
      <point x="-409" y="1979"/>
      <point x="-409" y="1944" type="curve" smooth="yes"/>
      <point x="-409" y="1790"/>
      <point x="-259" y="1764"/>
      <point x="-46" y="1711" type="curve" smooth="yes"/>
      <point x="147" y="1663"/>
      <point x="226" y="1633"/>
      <point x="261" y="1489" type="curve"/>
      <point x="171" y="1597"/>
      <point x="103" y="1603"/>
      <point x="-194" y="1631" type="curve" smooth="yes"/>
      <point x="-440" y="1654"/>
      <point x="-557" y="1686"/>
      <point x="-625" y="1826" type="curve"/>
      <point x="-636" y="1804"/>
      <point x="-643" y="1782"/>
      <point x="-643" y="1748" type="curve" smooth="yes"/>
      <point x="-643" y="1578"/>
      <point x="-462" y="1506"/>
      <point x="-138" y="1488" type="curve" smooth="yes"/>
      <point x="137" y="1473"/>
      <point x="229" y="1467"/>
      <point x="229" y="1392" type="curve" smooth="yes"/>
      <point x="229" y="1379"/>
      <point x="226" y="1354"/>
      <point x="219" y="1330" type="curve"/>
      <point x="-50" y="1330" type="line"/>
      <point x="-56" y="1321" type="line"/>
      <point x="0" y="1197" type="line"/>
      <point x="206" y="1197" type="line"/>
      <point x="206" y="19" type="line"/>
      <point x="357" y="-19" type="line"/>
    </contour>
  </outline>
</glyph>
<glyph name="udattadeva" format="1">
  <advance width="0"/>
  <unicode hex="0951"/>
  <outline>
    <contour>
      <point x="-358" y="1509" type="line"/>
      <point x="-224" y="1481" type="line"/>
      <point x="-215" y="1488" type="line"/>
      <point x="-215" y="1917" type="line"/>
      <point x="-349" y="1945" type="line"/>
      <point x="-358" y="1938" type="line"/>
    </contour>
    <contour>
      <point x="-127" y="666" type="move" name="_class0"/>
    </contour>
  </outline>
</glyph>
<glyph name="anudattadeva" format="1">
  <advance width="0"/>
  <unicode hex="0952"/>
  <outline>
    <contour>
      <point x="-774" y="-189" type="line"/>
      <point x="-728" y="-293" type="line"/>
      <point x="-168" y="-293" type="line"/>
      <point x="-162" y="-284" type="line"/>
      <point x="-208" y="-180" type="line"/>
      <point x="-768" y="-180" type="line"/>
    </contour>
  </outline>
</glyph>
<glyph name="gravedeva" format="1">
  <advance width="0"/>
  <unicode hex="0953"/>
  <outline>
    <contour>
      <point x="-638" y="1863" type="line"/>
      <point x="-333" y="1497" type="line"/>
      <point x="-245" y="1552" type="line"/>
      <point x="-243" y="1564" type="line"/>
      <point x="-548" y="1930" type="line"/>
      <point x="-636" y="1875" type="line"/>
    </contour>
    <contour>
      <point x="-69" y="664" type="move" name="_class0"/>
    </contour>
  </outline>
</glyph>
<glyph name="acutedeva" format="1">
  <advance width="0"/>
  <unicode hex="0954"/>
  <outline>
    <contour>
      <point x="-347" y="1552" type="line"/>
      <point x="-259" y="1497" type="line"/>
      <point x="46" y="1863" type="line"/>
      <point x="44" y="1875" type="line"/>
      <point x="-44" y="1930" type="line"/>
      <point x="-349" y="1564" type="line"/>
    </contour>
    <contour>
      <point x="-143" y="665" type="move" name="_class0"/>
    </contour>
  </outline>
</glyph>
<glyph name="uesigndeva" format="1">
  <advance width="0"/>
  <unicode hex="0956"/>
  <outline>
    <contour>
      <point x="-1026" y="-114"/>
      <point x="-1038" y="-128"/>
      <point x="-1038" y="-151" type="curve" smooth="yes"/>
      <point x="-1038" y="-245"/>
      <point x="-844" y="-441"/>
      <point x="-571" y="-441" type="curve" smooth="yes"/>
      <point x="-360" y="-441"/>
      <point x="-200" y="-323"/>
      <point x="-200" y="-214" type="curve" smooth="yes"/>
      <point x="-200" y="-167"/>
      <point x="-230" y="-129"/>
      <point x="-283" y="-110" type="curve"/>
      <point x="-350" y="-238"/>
      <point x="-479" y="-311"/>
      <point x="-626" y="-311" type="curve" smooth="yes"/>
      <point x="-770" y="-311"/>
      <point x="-911" y="-241"/>
      <point x="-1012" y="-104" type="curve"/>
    </contour>
    <contour>
      <point x="-259" y="-1" type="move" name="_class0"/>
    </contour>
  </outline>
</glyph>
<glyph name="qadeva" format="1">
  <advance width="1542"/>
  <unicode hex="0958"/>
  <outline>
    <contour>
      <point x="893" y="1197" type="line"/>
      <point x="1592" y="1197" type="line"/>
      <point x="1598" y="1206" type="line"/>
      <point x="1542" y="1330" type="line"/>
      <point x="-50" y="1330" type="line"/>
      <point x="-56" y="1321" type="line"/>
      <point x="0" y="1197" type="line"/>
      <point x="733" y="1197" type="line"/>
      <point x="733" y="846" type="line"/>
      <point x="634" y="952"/>
      <point x="516" y="987"/>
      <point x="422" y="987" type="curve" smooth="yes"/>
      <point x="234" y="987"/>
      <point x="99" y="849"/>
      <point x="99" y="667" type="curve" smooth="yes"/>
      <point x="99" y="421"/>
      <point x="348" y="219"/>
      <point x="554" y="219" type="curve" smooth="yes"/>
      <point x="612" y="219"/>
      <point x="670" y="235"/>
      <point x="733" y="279" type="curve"/>
      <point x="733" y="19" type="line"/>
      <point x="884" y="-19" type="line"/>
      <point x="893" y="-12" type="line"/>
      <point x="893" y="496" type="line" smooth="yes"/>
      <point x="893" y="678"/>
      <point x="1060" y="805"/>
      <point x="1183" y="805" type="curve" smooth="yes"/>
      <point x="1271" y="805"/>
      <point x="1331" y="740"/>
      <point x="1331" y="626" type="curve" smooth="yes"/>
      <point x="1331" y="500"/>
      <point x="1258" y="359"/>
      <point x="1120" y="287" type="curve"/>
      <point x="1151" y="236"/>
      <point x="1203" y="200"/>
      <point x="1255" y="200" type="curve" smooth="yes"/>
      <point x="1350" y="200"/>
      <point x="1456" y="318"/>
      <point x="1456" y="529" type="curve" smooth="yes"/>
      <point x="1456" y="785"/>
      <point x="1301" y="932"/>
      <point x="1119" y="932" type="curve" smooth="yes"/>
      <point x="1029" y="932"/>
      <point x="957" y="896"/>
      <point x="893" y="833" type="curve"/>
    </contour>
    <contour>
      <point x="635" y="843"/>
      <point x="733" y="745"/>
      <point x="733" y="632" type="curve" smooth="yes"/>
      <point x="733" y="568" type="line" smooth="yes"/>
      <point x="733" y="444"/>
      <point x="614" y="358"/>
      <point x="486" y="358" type="curve" smooth="yes"/>
      <point x="350" y="358"/>
      <point x="248" y="456"/>
      <point x="248" y="597" type="curve" smooth="yes"/>
      <point x="248" y="734"/>
      <point x="345" y="843"/>
      <point x="494" y="843" type="curve" smooth="yes"/>
    </contour>
    <contour>
      <point x="346" y="72"/>
      <point x="303" y="29"/>
      <point x="303" y="-23" type="curve" smooth="yes"/>
      <point x="303" y="-76"/>
      <point x="346" y="-119"/>
      <point x="399" y="-119" type="curve" smooth="yes"/>
      <point x="451" y="-119"/>
      <point x="494" y="-76"/>
      <point x="494" y="-23" type="curve" smooth="yes"/>
      <point x="494" y="29"/>
      <point x="451" y="72"/>
      <point x="399" y="72" type="curve" smooth="yes"/>
    </contour>
  </outline>
</glyph>
<glyph name="ghhadeva" format="1">
  <advance width="1241"/>
  <unicode hex="095A"/>
  <outline>
    <contour>
      <point x="1034" y="-12" type="line"/>
      <point x="1034" y="1197" type="line"/>
      <point x="1291" y="1197" type="line"/>
      <point x="1297" y="1206" type="line"/>
      <point x="1241" y="1330" type="line"/>
      <point x="-50" y="1330" type="line"/>
      <point x="-56" y="1321" type="line"/>
      <point x="0" y="1197" type="line"/>
      <point x="284" y="1197" type="line"/>
      <point x="284" y="666" type="line"/>
      <point x="169" y="666" type="line" smooth="yes"/>
      <point x="113" y="666"/>
      <point x="90" y="639"/>
      <point x="90" y="610" type="curve" smooth="yes"/>
      <point x="90" y="535"/>
      <point x="245" y="363"/>
      <point x="350" y="363" type="curve" smooth="yes"/>
      <point x="409" y="363"/>
      <point x="439" y="416"/>
      <point x="439" y="524" type="curve" smooth="yes"/>
      <point x="439" y="1197" type="line"/>
      <point x="874" y="1197" type="line"/>
      <point x="874" y="19" type="line"/>
      <point x="1025" y="-19" type="line"/>
    </contour>
    <contour>
      <point x="459" y="172"/>
      <point x="416" y="129"/>
      <point x="416" y="77" type="curve" smooth="yes"/>
      <point x="416" y="24"/>
      <point x="459" y="-19"/>
      <point x="512" y="-19" type="curve" smooth="yes"/>
      <point x="564" y="-19"/>
      <point x="607" y="24"/>
      <point x="607" y="77" type="curve" smooth="yes"/>
      <point x="607" y="129"/>
      <point x="564" y="172"/>
      <point x="512" y="172" type="curve" smooth="yes"/>
    </contour>
  </outline>
</glyph>
<glyph name="yyadeva" format="1">
  <advance width="1288"/>
  <unicode hex="095F"/>
  <outline>
    <contour>
      <point x="1032" y="-19" type="line"/>
      <point x="1041" y="-12" type="line"/>
      <point x="1041" y="1197" type="line"/>
      <point x="1298" y="1197" type="line"/>
      <point x="1304" y="1206" type="line"/>
      <point x="1248" y="1330" type="line"/>
      <point x="-50" y="1330" type="line"/>
      <point x="-56" y="1321" type="line"/>
      <point x="0" y="1197" type="line"/>
      <point x="339" y="1197" type="line"/>
      <point x="363" y="1149"/>
      <point x="382" y="1082"/>
      <point x="382" y="1017" type="curve" smooth="yes"/>
      <point x="382" y="891"/>
      <point x="311" y="813"/>
      <point x="87" y="750" type="curve"/>
      <point x="82" y="740" type="line"/>
      <point x="255" y="403"/>
      <point x="455" y="261"/>
      <point x="658" y="261" type="curve" smooth="yes"/>
      <point x="742" y="261"/>
      <point x="812" y="285"/>
      <point x="881" y="334" type="curve"/>
      <point x="881" y="19" type="line"/>
    </contour>
    <contour>
      <point x="522" y="1015"/>
      <point x="488" y="1109"/>
      <point x="440" y="1197" type="curve"/>
      <point x="881" y="1197" type="line"/>
      <point x="881" y="690" type="line" smooth="yes"/>
      <point x="881" y="528"/>
      <point x="741" y="421"/>
      <point x="589" y="421" type="curve" smooth="yes"/>
      <point x="480" y="421"/>
      <point x="357" y="476"/>
      <point x="267" y="628" type="curve"/>
      <point x="434" y="688"/>
      <point x="522" y="783"/>
      <point x="522" y="926" type="curve" smooth="yes"/>
    </contour>
    <contour>
      <point x="259" y="172"/>
      <point x="216" y="129"/>
      <point x="216" y="77" type="curve" smooth="yes"/>
      <point x="216" y="24"/>
      <point x="259" y="-19"/>
      <point x="312" y="-19" type="curve" smooth="yes"/>
      <point x="364" y="-19"/>
      <point x="407" y="24"/>
      <point x="407" y="77" type="curve" smooth="yes"/>
      <point x="407" y="129"/>
      <point x="364" y="172"/>
      <point x="312" y="172" type="curve" smooth="yes"/>
    </contour>
  </outline>
</glyph>
<glyph name="rrvocalicdeva" format="1">
  <advance width="1771"/>
  <unicode hex="0960"/>
  <outline>
    <contour>
      <point x="954" y="1197" type="line"/>
      <point x="1821" y="1197" type="line"/>
      <point x="1827" y="1206" type="line"/>
      <point x="1771" y="1330" type="line"/>
      <point x="-50" y="1330" type="line"/>
      <point x="-56" y="1321" type="line"/>
      <point x="0" y="1197" type="line"/>
      <point x="794" y="1197" type="line"/>
      <point x="794" y="763" type="line"/>
      <point x="509" y="976"/>
      <point x="429" y="1019"/>
      <point x="324" y="1019" type="curve" smooth="yes"/>
      <point x="175" y="1019"/>
      <point x="94" y="931"/>
      <point x="94" y="859" type="curve" smooth="yes"/>
      <point x="94" y="811"/>
      <point x="130" y="765"/>
      <point x="194" y="725" type="curve"/>
      <point x="250" y="823"/>
      <point x="318" y="879"/>
      <point x="392" y="879" type="curve" smooth="yes"/>
      <point x="466" y="879"/>
      <point x="558" y="824"/>
      <point x="741" y="686" type="curve"/>
      <point x="538" y="553"/>
      <point x="376" y="427"/>
      <point x="221" y="288" type="curve"/>
      <point x="221" y="276" type="line"/>
      <point x="343" y="158" type="line"/>
      <point x="486" y="289"/>
      <point x="617" y="397"/>
      <point x="794" y="522" type="curve"/>
      <point x="794" y="19" type="line"/>
      <point x="945" y="-19" type="line"/>
      <point x="954" y="-12" type="line"/>
      <point x="954" y="567" type="line"/>
      <point x="1091" y="573"/>
      <point x="1216" y="613"/>
      <point x="1311" y="669" type="curve"/>
      <point x="1336" y="617"/>
      <point x="1360" y="572"/>
      <point x="1383" y="528" type="curve"/>
      <point x="1244" y="444"/>
      <point x="1186" y="376"/>
      <point x="1186" y="287" type="curve" smooth="yes"/>
      <point x="1186" y="148"/>
      <point x="1325" y="-10"/>
      <point x="1509" y="-10" type="curve" smooth="yes"/>
      <point x="1642" y="-10"/>
      <point x="1746" y="73"/>
      <point x="1746" y="154" type="curve" smooth="yes"/>
      <point x="1746" y="209"/>
      <point x="1697" y="254"/>
      <point x="1661" y="267" type="curve"/>
      <point x="1608" y="186"/>
      <point x="1497" y="123"/>
      <point x="1419" y="123" type="curve" smooth="yes"/>
      <point x="1360" y="123"/>
      <point x="1315" y="159"/>
      <point x="1315" y="216" type="curve" smooth="yes"/>
      <point x="1315" y="273"/>
      <point x="1361" y="335"/>
      <point x="1534" y="438" type="curve"/>
      <point x="1536" y="446" type="line"/>
      <point x="1489" y="527"/>
      <point x="1441" y="617"/>
      <point x="1388" y="725" type="curve"/>
      <point x="1444" y="775"/>
      <point x="1477" y="832"/>
      <point x="1477" y="888" type="curve" smooth="yes"/>
      <point x="1477" y="968"/>
      <point x="1409" y="1045"/>
      <point x="1316" y="1045" type="curve" smooth="yes"/>
      <point x="1239" y="1045"/>
      <point x="1193" y="992"/>
      <point x="1193" y="928" type="curve" smooth="yes"/>
      <point x="1193" y="893"/>
      <point x="1207" y="855"/>
      <point x="1236" y="808" type="curve"/>
      <point x="1156" y="753"/>
      <point x="1065" y="722"/>
      <point x="954" y="713" type="curve"/>
    </contour>
  </outline>
</glyph>
<glyph name="twodeva" format="1">
  <advance width="1062"/>
  <unicode hex="0968"/>
  <outline>
    <contour>
      <point x="911" y="36"/>
      <point x="877" y="25"/>
      <point x="831" y="25" type="curve" smooth="yes"/>
      <point x="715" y="25"/>
      <point x="627" y="94"/>
      <point x="521" y="337" type="curve"/>
      <point x="799" y="451"/>
      <point x="946" y="657"/>
      <point x="946" y="857" type="curve" smooth="yes"/>
      <point x="946" y="1087"/>
      <point x="753" y="1277"/>
      <point x="518" y="1277" type="curve" smooth="yes"/>
      <point x="322" y="1277"/>
      <point x="171" y="1144"/>
      <point x="171" y="1014" type="curve" smooth="yes"/>
      <point x="171" y="934"/>
      <point x="227" y="889"/>
      <point x="317" y="889" type="curve"/>
      <point x="317" y="1029"/>
      <point x="416" y="1152"/>
      <point x="579" y="1152" type="curve" smooth="yes"/>
      <point x="711" y="1152"/>
      <point x="806" y="1072"/>
      <point x="806" y="925" type="curve" smooth="yes"/>
      <point x="806" y="771"/>
      <point x="702" y="598"/>
      <point x="454" y="496" type="curve"/>
      <point x="410" y="575"/>
      <point x="346" y="615"/>
      <point x="280" y="615" type="curve" smooth="yes"/>
      <point x="206" y="615"/>
      <point x="150" y="565"/>
      <point x="150" y="492" type="curve" smooth="yes"/>
      <point x="150" y="402"/>
      <point x="234" y="304"/>
      <point x="389" y="304" type="curve" smooth="yes"/>
      <point x="405" y="304"/>
      <point x="412" y="305"/>
      <point x="424" y="306" type="curve"/>
      <point x="585" y="-43"/>
      <point x="743" y="-148"/>
      <point x="868" y="-148" type="curve" smooth="yes"/>
      <point x="952" y="-148"/>
      <point x="1002" y="-101"/>
      <point x="1002" y="-39" type="curve" smooth="yes"/>
      <point x="1002" y="-4"/>
      <point x="986" y="35"/>
      <point x="957" y="61" type="curve"/>
    </contour>
  </outline>
</glyph>
<glyph name="eightdeva" format="1">
  <advance width="987"/>
  <unicode hex="096E"/>
  <outline>
    <contour>
      <point x="927" y="251"/>
      <point x="735" y="89"/>
      <point x="526" y="89" type="curve" smooth="yes"/>
      <point x="319" y="89"/>
      <point x="120" y="248"/>
      <point x="120" y="475" type="curve" smooth="yes"/>
      <point x="120" y="555"/>
      <point x="145" y="639"/>
      <point x="362" y="866" type="curve" smooth="yes"/>
      <point x="529" y="1041"/>
      <point x="720" y="1207"/>
      <point x="752" y="1239" type="curve"/>
      <point x="878" y="1154" type="line"/>
      <point x="879" y="1145" type="line"/>
      <point x="841" y="1108"/>
      <point x="640" y="915"/>
      <point x="468" y="736" type="curve" smooth="yes"/>
      <point x="304" y="565"/>
      <point x="251" y="496"/>
      <point x="251" y="408" type="curve" smooth="yes"/>
      <point x="251" y="299"/>
      <point x="331" y="217"/>
      <point x="460" y="217" type="curve" smooth="yes"/>
      <point x="603" y="217"/>
      <point x="734" y="318"/>
      <point x="842" y="482" type="curve"/>
      <point x="896" y="442"/>
      <point x="927" y="405"/>
      <point x="927" y="361" type="curve" smooth="yes"/>
    </contour>
  </outline>
</glyph>
<glyph name="abbreviationsigndeva" format="1">
  <advance width="1038"/>
  <unicode hex="0970"/>
  <outline>
    <contour>
      <point x="878" y="1139"/>
      <point x="701" y="1326"/>
      <point x="483" y="1326" type="curve" smooth="yes"/>
      <point x="300" y="1326"/>
      <point x="160" y="1195"/>
      <point x="160" y="1027" type="curve" smooth="yes"/>
      <point x="160" y="832"/>
      <point x="349" y="646"/>
      <point x="565" y="646" type="curve" smooth="yes"/>
      <point x="738" y="646"/>
      <point x="878" y="765"/>
      <point x="878" y="941" type="curve" smooth="yes"/>
    </contour>
    <contour>
      <point x="657" y="1195"/>
      <point x="747" y="1122"/>
      <point x="747" y="998" type="curve" smooth="yes"/>
      <point x="747" y="861"/>
      <point x="637" y="773"/>
      <point x="509" y="773" type="curve" smooth="yes"/>
      <point x="384" y="773"/>
      <point x="292" y="858"/>
      <point x="292" y="975" type="curve" smooth="yes"/>
      <point x="292" y="1099"/>
      <point x="394" y="1195"/>
      <point x="535" y="1195" type="curve" smooth="yes"/>
    </contour>
  </outline>
</glyph>
<glyph name="yaheavydeva" format="1">
  <advance width="1248"/>
  <unicode hex="097A"/>
  <outline>
    <contour>
      <point x="1032" y="-19" type="line"/>
      <point x="1041" y="-12" type="line"/>
      <point x="1041" y="1197" type="line"/>
      <point x="1298" y="1197" type="line"/>
      <point x="1304" y="1206" type="line"/>
      <point x="1248" y="1330" type="line"/>
      <point x="-50" y="1330" type="line"/>
      <point x="-56" y="1321" type="line"/>
      <point x="0" y="1197" type="line"/>
      <point x="339" y="1197" type="line"/>
      <point x="363" y="1149"/>
      <point x="382" y="1082"/>
      <point x="382" y="1017" type="curve" smooth="yes"/>
      <point x="382" y="891"/>
      <point x="311" y="813"/>
      <point x="87" y="750" type="curve"/>
      <point x="82" y="740" type="line"/>
      <point x="255" y="403"/>
      <point x="456" y="261"/>
      <point x="657" y="261" type="curve" smooth="yes"/>
      <point x="743" y="261"/>
      <point x="812" y="285"/>
      <point x="881" y="334" type="curve"/>
      <point x="881" y="19" type="line"/>
    </contour>
    <contour>
      <point x="440" y="1197" type="line"/>
      <point x="881" y="1197" type="line"/>
      <point x="881" y="690" type="line" smooth="yes"/>
      <point x="881" y="659"/>
      <point x="877" y="630"/>
      <point x="870" y="604" type="curve"/>
    </contour>
    <contour>
      <point x="482" y="421"/>
      <point x="354" y="477"/>
      <point x="267" y="627" type="curve"/>
      <point x="429" y="688"/>
      <point x="510" y="765"/>
      <point x="521" y="910" type="curve"/>
      <point x="812" y="514" type="line"/>
      <point x="756" y="455"/>
      <point x="675" y="421"/>
      <point x="590" y="421" type="curve" smooth="yes"/>
    </contour>
  </outline>
</glyph>
<glyph name="jjadeva" format="1">
  <advance width="1421"/>
  <unicode hex="097C"/>
  <outline>
    <contour>
      <point x="1471" y="1197" type="line"/>
      <point x="1477" y="1206" type="line"/>
      <point x="1421" y="1330" type="line"/>
      <point x="-50" y="1330" type="line"/>
      <point x="-56" y="1321" type="line"/>
      <point x="0" y="1197" type="line"/>
      <point x="1054" y="1197" type="line"/>
      <point x="1054" y="923" type="line"/>
      <point x="444" y="923" type="line"/>
      <point x="438" y="914" type="line"/>
      <point x="494" y="790" type="line"/>
      <point x="631" y="790"/>
      <point x="704" y="688"/>
      <point x="704" y="578" type="curve" smooth="yes"/>
      <point x="704" y="456"/>
      <point x="615" y="389"/>
      <point x="511" y="389" type="curve" smooth="yes"/>
      <point x="350" y="389"/>
      <point x="221" y="551"/>
      <point x="171" y="923" type="curve"/>
      <point x="110" y="917"/>
      <point x="89" y="891"/>
      <point x="90" y="826" type="curve" smooth="yes"/>
      <point x="92" y="656"/>
      <point x="227" y="227"/>
      <point x="554" y="227" type="curve" smooth="yes"/>
      <point x="720" y="227"/>
      <point x="842" y="337"/>
      <point x="842" y="505" type="curve" smooth="yes"/>
      <point x="842" y="602"/>
      <point x="804" y="699"/>
      <point x="721" y="790" type="curve"/>
      <point x="1054" y="790" type="line"/>
      <point x="1054" y="60" type="line"/>
      <point x="108" y="60" type="line"/>
      <point x="102" y="51" type="line"/>
      <point x="148" y="-53" type="line"/>
      <point x="1214" y="-53" type="line"/>
      <point x="1214" y="1197" type="line"/>
    </contour>
  </outline>
</glyph>
<glyph name="glottalstopdeva" format="1">
  <advance width="945"/>
  <unicode hex="097D"/>
  <outline>
    <contour>
      <point x="855" y="1156"/>
      <point x="659" y="1335"/>
      <point x="395" y="1335" type="curve" smooth="yes"/>
      <point x="197" y="1335"/>
      <point x="90" y="1234"/>
      <point x="90" y="1136" type="curve" smooth="yes"/>
      <point x="90" y="1065"/>
      <point x="146" y="1017"/>
      <point x="236" y="1017" type="curve"/>
      <point x="236" y="1135"/>
      <point x="319" y="1224"/>
      <point x="462" y="1224" type="curve" smooth="yes"/>
      <point x="601" y="1224"/>
      <point x="709" y="1139"/>
      <point x="709" y="976" type="curve" smooth="yes"/>
      <point x="709" y="808"/>
      <point x="593" y="699"/>
      <point x="345" y="679" type="curve"/>
      <point x="345" y="39" type="line"/>
      <point x="496" y="1" type="line"/>
      <point x="505" y="8" type="line"/>
      <point x="505" y="528" type="line"/>
      <point x="711" y="579"/>
      <point x="855" y="700"/>
      <point x="855" y="911" type="curve" smooth="yes"/>
    </contour>
  </outline>
</glyph>
<glyph name="zerowidthnonjoiner" format="1">
  <advance width="0"/>
  <unicode hex="200C"/>
  <outline>
    <contour>
      <point x="103" y="2056" type="line"/>
      <point x="103" y="-492" type="line"/>
      <point x="0" y="-492" type="line"/>
      <point x="0" y="2056" type="line"/>
    </contour>
  </outline>
</glyph>
<glyph name="zerowidthjoiner" format="1">
  <advance width="0"/>
  <unicode hex="200D"/>
  <outline>
    <contour>
      <point x="0" y="-492" type="line"/>
      <point x="103" y="-492" type="line"/>
      <point x="103" y="1971" type="line"/>
      <point x="394" y="1971" type="line"/>
      <point x="394" y="2056" type="line"/>
      <point x="0" y="2056" type="line"/>
    </contour>
  </outline>
</glyph>
<glyph name="endash" format="1">
  <advance width="1024"/>
  <unicode hex="2013"/>
  <outline>
    <contour>
      <point x="1034" y="489" type="line"/>
      <point x="-10" y="489" type="line"/>
      <point x="-10" y="610" type="line"/>
      <point x="1034" y="610" type="line"/>
    </contour>
  </outline>
</glyph>
<glyph name="emdash" format="1">
  <advance width="2048"/>
  <unicode hex="2014"/>
  <outline>
    <contour>
      <point x="2058" y="489" type="line"/>
      <point x="-10" y="489" type="line"/>
      <point x="-10" y="610" type="line"/>
      <point x="2058" y="610" type="line"/>
    </contour>
  </outline>
</glyph>
<glyph name="quotedblleft" format="1">
  <advance width="922"/>
  <unicode hex="201C"/>
  <outline>
    <contour>
      <point x="115" y="1150"/>
      <point x="138" y="1233"/>
      <point x="192" y="1302" type="curve" smooth="yes"/>
      <point x="246" y="1371"/>
      <point x="330" y="1428"/>
      <point x="451" y="1464" type="curve"/>
      <point x="451" y="1378" type="line"/>
      <point x="316" y="1335"/>
      <point x="256" y="1274"/>
      <point x="256" y="1194" type="curve" smooth="yes"/>
      <point x="256" y="1167"/>
      <point x="272" y="1151"/>
      <point x="295" y="1137" type="curve" smooth="yes"/>
      <point x="306" y="1130"/>
      <point x="318" y="1123"/>
      <point x="331" y="1116" type="curve" smooth="yes"/>
      <point x="356" y="1103"/>
      <point x="380" y="1085"/>
      <point x="395" y="1058" type="curve"/>
      <point x="402" y="1044"/>
      <point x="406" y="1027"/>
      <point x="406" y="1006" type="curve" smooth="yes"/>
      <point x="406" y="927"/>
      <point x="348" y="885"/>
      <point x="272" y="885" type="curve" smooth="yes"/>
      <point x="231" y="885"/>
      <point x="191" y="901"/>
      <point x="162" y="931" type="curve" smooth="yes"/>
      <point x="133" y="961"/>
      <point x="115" y="1006"/>
      <point x="115" y="1063" type="curve" smooth="yes"/>
    </contour>
    <contour>
      <point x="524" y="1150"/>
      <point x="547" y="1233"/>
      <point x="601" y="1302" type="curve" smooth="yes"/>
      <point x="655" y="1371"/>
      <point x="739" y="1428"/>
      <point x="860" y="1464" type="curve"/>
      <point x="860" y="1378" type="line"/>
      <point x="727" y="1335"/>
      <point x="666" y="1274"/>
      <point x="666" y="1194" type="curve" smooth="yes"/>
      <point x="666" y="1167"/>
      <point x="683" y="1151"/>
      <point x="705" y="1137" type="curve" smooth="yes"/>
      <point x="716" y="1130"/>
      <point x="728" y="1123"/>
      <point x="741" y="1116" type="curve" smooth="yes"/>
      <point x="767" y="1103"/>
      <point x="789" y="1085"/>
      <point x="804" y="1058" type="curve"/>
      <point x="811" y="1044"/>
      <point x="815" y="1027"/>
      <point x="815" y="1006" type="curve" smooth="yes"/>
      <point x="815" y="927"/>
      <point x="758" y="885"/>
      <point x="682" y="885" type="curve" smooth="yes"/>
      <point x="641" y="885"/>
      <point x="600" y="901"/>
      <point x="572" y="931" type="curve" smooth="yes"/>
      <point x="543" y="961"/>
      <point x="524" y="1006"/>
      <point x="524" y="1063" type="curve" smooth="yes"/>
    </contour>
  </outline>
</glyph>
<glyph name="minus" format="1">
  <advance width="635"/>
  <unicode hex="2212"/>
  <outline>
    <contour>
      <point x="584" y="481" type="line"/>
      <point x="51" y="481" type="line"/>
      <point x="51" y="635" type="line"/>
      <point x="584" y="635" type="line"/>
    </contour>
  </outline>
</glyph>
<glyph name="zerocombiningdigitdeva" format="1">
  <advance width="0"/>
  <unicode hex="A8E0"/>
  <outline>
    <contour>
      <point x="-92" y="1831"/>
      <point x="-193" y="1937"/>
      <point x="-327" y="1937" type="curve" smooth="yes"/>
      <point x="-431" y="1937"/>
      <point x="-509" y="1855"/>
      <point x="-509" y="1764" type="curve" smooth="yes"/>
      <point x="-509" y="1645"/>
      <point x="-407" y="1535"/>
      <point x="-270" y="1535" type="curve" smooth="yes"/>
      <point x="-172" y="1535"/>
      <point x="-92" y="1610"/>
      <point x="-92" y="1705" type="curve" smooth="yes"/>
    </contour>
    <contour>
      <point x="-233" y="1848"/>
      <point x="-191" y="1808"/>
      <point x="-191" y="1744" type="curve" smooth="yes"/>
      <point x="-191" y="1669"/>
      <point x="-249" y="1622"/>
      <point x="-308" y="1622" type="curve" smooth="yes"/>
      <point x="-363" y="1622"/>
      <point x="-405" y="1667"/>
      <point x="-405" y="1728" type="curve" smooth="yes"/>
      <point x="-405" y="1793"/>
      <point x="-355" y="1848"/>
      <point x="-290" y="1848" type="curve" smooth="yes"/>
    </contour>
    <contour>
      <point x="-633" y="1781" type="move" name="_class0"/>
    </contour>
  </outline>
</glyph>
<glyph name="threecombiningdigitdeva" format="1">
  <advance width="0"/>
  <unicode hex="A8E3"/>
  <outline>
    <contour>
      <point x="-204" y="1442"/>
      <point x="-217" y="1438"/>
      <point x="-243" y="1438" type="curve" smooth="yes"/>
      <point x="-261" y="1438"/>
      <point x="-278" y="1440"/>
      <point x="-308" y="1482" type="curve"/>
      <point x="-186" y="1491"/>
      <point x="-128" y="1560"/>
      <point x="-128" y="1626" type="curve" smooth="yes"/>
      <point x="-128" y="1672"/>
      <point x="-156" y="1724"/>
      <point x="-206" y="1762" type="curve"/>
      <point x="-161" y="1794"/>
      <point x="-143" y="1830"/>
      <point x="-143" y="1870" type="curve" smooth="yes"/>
      <point x="-143" y="1958"/>
      <point x="-229" y="2040"/>
      <point x="-347" y="2040" type="curve" smooth="yes"/>
      <point x="-447" y="2040"/>
      <point x="-508" y="1982"/>
      <point x="-508" y="1932" type="curve" smooth="yes"/>
      <point x="-508" y="1888"/>
      <point x="-462" y="1860"/>
      <point x="-402" y="1870" type="curve"/>
      <point x="-405" y="1928"/>
      <point x="-374" y="1970"/>
      <point x="-317" y="1970" type="curve" smooth="yes"/>
      <point x="-274" y="1970"/>
      <point x="-246" y="1947"/>
      <point x="-246" y="1904" type="curve" smooth="yes"/>
      <point x="-246" y="1845"/>
      <point x="-298" y="1808"/>
      <point x="-431" y="1804" type="curve"/>
      <point x="-437" y="1797" type="line"/>
      <point x="-404" y="1708" type="line"/>
      <point x="-355" y="1711"/>
      <point x="-311" y="1719"/>
      <point x="-278" y="1730" type="curve"/>
      <point x="-249" y="1713"/>
      <point x="-233" y="1684"/>
      <point x="-233" y="1655" type="curve" smooth="yes"/>
      <point x="-233" y="1612"/>
      <point x="-267" y="1578"/>
      <point x="-330" y="1569" type="curve"/>
      <point x="-347" y="1607"/>
      <point x="-383" y="1636"/>
      <point x="-426" y="1636" type="curve" smooth="yes"/>
      <point x="-470" y="1636"/>
      <point x="-499" y="1606"/>
      <point x="-499" y="1570" type="curve" smooth="yes"/>
      <point x="-499" y="1521"/>
      <point x="-446" y="1479"/>
      <point x="-369" y="1473" type="curve"/>
      <point x="-328" y="1389"/>
      <point x="-271" y="1347"/>
      <point x="-220" y="1347" type="curve" smooth="yes"/>
      <point x="-179" y="1347"/>
      <point x="-149" y="1374"/>
      <point x="-149" y="1406" type="curve" smooth="yes"/>
      <point x="-149" y="1424"/>
      <point x="-159" y="1445"/>
      <point x="-177" y="1460" type="curve"/>
    </contour>
    <contour>
      <point x="-642" y="1759" type="move" name="_class0"/>
    </contour>
  </outline>
</glyph>
<glyph name="fivecombiningdigitdeva" format="1">
  <advance width="0"/>
  <unicode hex="A8E5"/>
  <outline>
    <contour>
      <point x="-142" y="1691"/>
      <point x="-134" y="1717"/>
      <point x="-134" y="1741" type="curve" smooth="yes"/>
      <point x="-134" y="1791"/>
      <point x="-170" y="1844"/>
      <point x="-228" y="1844" type="curve" smooth="yes"/>
      <point x="-276" y="1844"/>
      <point x="-308" y="1808"/>
      <point x="-308" y="1768" type="curve" smooth="yes"/>
      <point x="-308" y="1750"/>
      <point x="-301" y="1721"/>
      <point x="-266" y="1685" type="curve"/>
      <point x="-312" y="1637"/>
      <point x="-351" y="1627"/>
      <point x="-380" y="1627" type="curve" smooth="yes"/>
      <point x="-427" y="1627"/>
      <point x="-452" y="1654"/>
      <point x="-452" y="1704" type="curve" smooth="yes"/>
      <point x="-452" y="1767"/>
      <point x="-413" y="1866"/>
      <point x="-333" y="1982" type="curve"/>
      <point x="-334" y="1990" type="line"/>
      <point x="-422" y="2044" type="line"/>
      <point x="-497" y="1939"/>
      <point x="-554" y="1824"/>
      <point x="-554" y="1741" type="curve" smooth="yes"/>
      <point x="-554" y="1630"/>
      <point x="-452" y="1543"/>
      <point x="-353" y="1543" type="curve" smooth="yes"/>
      <point x="-302" y="1543"/>
      <point x="-252" y="1566"/>
      <point x="-206" y="1604" type="curve"/>
      <point x="-185" y="1576"/>
      <point x="-177" y="1554"/>
      <point x="-177" y="1532" type="curve" smooth="yes"/>
      <point x="-177" y="1494"/>
      <point x="-200" y="1480"/>
      <point x="-259" y="1474" type="curve"/>
      <point x="-246" y="1427"/>
      <point x="-207" y="1402"/>
      <point x="-168" y="1402" type="curve" smooth="yes"/>
      <point x="-116" y="1402"/>
      <point x="-80" y="1444"/>
      <point x="-80" y="1494" type="curve" smooth="yes"/>
      <point x="-80" y="1536"/>
      <point x="-105" y="1592"/>
      <point x="-157" y="1664" type="curve"/>
    </contour>
    <contour>
      <point x="-635" y="1763" type="move" name="_class0"/>
    </contour>
  </outline>
</glyph>
<glyph name="sevencombiningdigitdeva" format="1">
  <advance width="0"/>
  <unicode hex="A8E7"/>
  <outline>
    <contour>
      <point x="-369" y="1999"/>
      <point x="-420" y="1951"/>
      <point x="-420" y="1877" type="curve" smooth="yes"/>
      <point x="-420" y="1783"/>
      <point x="-336" y="1692"/>
      <point x="-218" y="1675" type="curve"/>
      <point x="-237" y="1630"/>
      <point x="-277" y="1605"/>
      <point x="-318" y="1605" type="curve" smooth="yes"/>
      <point x="-411" y="1605"/>
      <point x="-505" y="1736"/>
      <point x="-510" y="2024" type="curve"/>
      <point x="-577" y="2033"/>
      <point x="-583" y="1993"/>
      <point x="-583" y="1944" type="curve" smooth="yes"/>
      <point x="-583" y="1738"/>
      <point x="-475" y="1507"/>
      <point x="-289" y="1507" type="curve" smooth="yes"/>
      <point x="-183" y="1507"/>
      <point x="-108" y="1582"/>
      <point x="-108" y="1725" type="curve" smooth="yes"/>
      <point x="-108" y="1872"/>
      <point x="-188" y="1999"/>
      <point x="-300" y="1999" type="curve" smooth="yes"/>
    </contour>
    <contour>
      <point x="-315" y="1890"/>
      <point x="-295" y="1912"/>
      <point x="-271" y="1912" type="curve" smooth="yes"/>
      <point x="-229" y="1912"/>
      <point x="-204" y="1845"/>
      <point x="-204" y="1763" type="curve" smooth="yes"/>
      <point x="-204" y="1757"/>
      <point x="-204" y="1748"/>
      <point x="-205" y="1741" type="curve"/>
      <point x="-283" y="1753"/>
      <point x="-315" y="1797"/>
      <point x="-315" y="1849" type="curve" smooth="yes"/>
    </contour>
    <contour>
      <point x="-638" y="1763" type="move" name="_class0"/>
    </contour>
  </outline>
</glyph>
<glyph name="eightcombiningdigitdeva" format="1">
  <advance width="0"/>
  <unicode hex="A8E8"/>
  <outline>
    <contour>
      <point x="-69" y="1573"/>
      <point x="-154" y="1487"/>
      <point x="-270" y="1487" type="curve" smooth="yes"/>
      <point x="-378" y="1487"/>
      <point x="-472" y="1566"/>
      <point x="-472" y="1661" type="curve" smooth="yes"/>
      <point x="-472" y="1706"/>
      <point x="-461" y="1746"/>
      <point x="-357" y="1853" type="curve" smooth="yes"/>
      <point x="-286" y="1927"/>
      <point x="-199" y="2004"/>
      <point x="-182" y="2021" type="curve"/>
      <point x="-101" y="1971" type="line"/>
      <point x="-100" y="1962" type="line"/>
      <point x="-121" y="1941"/>
      <point x="-204" y="1860"/>
      <point x="-281" y="1781" type="curve"/>
      <point x="-351" y="1703"/>
      <point x="-373" y="1671"/>
      <point x="-373" y="1631" type="curve" smooth="yes"/>
      <point x="-373" y="1594"/>
      <point x="-344" y="1570"/>
      <point x="-309" y="1570" type="curve" smooth="yes"/>
      <point x="-241" y="1570"/>
      <point x="-190" y="1609"/>
      <point x="-136" y="1691" type="curve"/>
      <point x="-98" y="1678"/>
      <point x="-69" y="1644"/>
      <point x="-69" y="1619" type="curve" smooth="yes"/>
    </contour>
    <contour>
      <point x="-532" y="1670" type="move" name="_class0"/>
    </contour>
  </outline>
</glyph>
<glyph name="ninecombiningdigitdeva" format="1">
  <advance width="0"/>
  <unicode hex="A8E9"/>
  <outline>
    <contour>
      <point x="-251" y="1646"/>
      <point x="-268" y="1666"/>
      <point x="-308" y="1714" type="curve"/>
      <point x="-216" y="1727"/>
      <point x="-169" y="1787"/>
      <point x="-169" y="1855" type="curve" smooth="yes"/>
      <point x="-169" y="1953"/>
      <point x="-261" y="2038"/>
      <point x="-359" y="2038" type="curve" smooth="yes"/>
      <point x="-452" y="2038"/>
      <point x="-510" y="1979"/>
      <point x="-510" y="1903" type="curve" smooth="yes"/>
      <point x="-510" y="1836"/>
      <point x="-472" y="1784"/>
      <point x="-399" y="1702" type="curve" smooth="yes"/>
      <point x="-327" y="1621"/>
      <point x="-284" y="1582"/>
      <point x="-284" y="1535" type="curve" smooth="yes"/>
      <point x="-284" y="1509"/>
      <point x="-309" y="1485"/>
      <point x="-340" y="1479" type="curve"/>
      <point x="-326" y="1440"/>
      <point x="-295" y="1415"/>
      <point x="-260" y="1415" type="curve" smooth="yes"/>
      <point x="-215" y="1415"/>
      <point x="-175" y="1454"/>
      <point x="-175" y="1503" type="curve" smooth="yes"/>
      <point x="-175" y="1535"/>
      <point x="-189" y="1565"/>
      <point x="-223" y="1610" type="curve" smooth="yes"/>
    </contour>
    <contour>
      <point x="-296" y="1960"/>
      <point x="-266" y="1929"/>
      <point x="-266" y="1881" type="curve" smooth="yes"/>
      <point x="-266" y="1832"/>
      <point x="-299" y="1799"/>
      <point x="-376" y="1794" type="curve"/>
      <point x="-394" y="1819"/>
      <point x="-402" y="1841"/>
      <point x="-402" y="1876" type="curve" smooth="yes"/>
      <point x="-402" y="1933"/>
      <point x="-368" y="1960"/>
      <point x="-332" y="1960" type="curve" smooth="yes"/>
    </contour>
    <contour>
      <point x="-638" y="1760" type="move" name="_class0"/>
    </contour>
  </outline>
</glyph>
<glyph name="acombiningletterdeva" format="1">
  <advance width="0"/>
  <unicode hex="A8EA"/>
  <outline>
    <contour>
      <point x="-181" y="1704"/>
      <point x="-165" y="1705"/>
      <point x="-144" y="1710" type="curve"/>
      <point x="-144" y="1459" type="line"/>
      <point x="-38" y="1450" type="line"/>
      <point x="-32" y="1455" type="line"/>
      <point x="-32" y="1985" type="line"/>
      <point x="70" y="1985" type="line"/>
      <point x="75" y="1992" type="line"/>
      <point x="58" y="2065" type="line"/>
      <point x="-226" y="2065" type="line"/>
      <point x="-231" y="2058" type="line"/>
      <point x="-212" y="1985" type="line"/>
      <point x="-144" y="1985" type="line"/>
      <point x="-144" y="1865" type="line" smooth="yes"/>
      <point x="-144" y="1807"/>
      <point x="-184" y="1780"/>
      <point x="-234" y="1780" type="curve" smooth="yes"/>
      <point x="-251" y="1780"/>
      <point x="-273" y="1783"/>
      <point x="-291" y="1792" type="curve"/>
      <point x="-261" y="1820"/>
      <point x="-245" y="1850"/>
      <point x="-245" y="1893" type="curve" smooth="yes"/>
      <point x="-245" y="1990"/>
      <point x="-329" y="2067"/>
      <point x="-449" y="2067" type="curve" smooth="yes"/>
      <point x="-549" y="2067"/>
      <point x="-606" y="2013"/>
      <point x="-606" y="1968" type="curve" smooth="yes"/>
      <point x="-606" y="1928"/>
      <point x="-559" y="1896"/>
      <point x="-501" y="1905" type="curve"/>
      <point x="-505" y="1959"/>
      <point x="-473" y="1997"/>
      <point x="-420" y="1997" type="curve" smooth="yes"/>
      <point x="-378" y="1997"/>
      <point x="-350" y="1974"/>
      <point x="-350" y="1925" type="curve" smooth="yes"/>
      <point x="-350" y="1862"/>
      <point x="-397" y="1830"/>
      <point x="-497" y="1825" type="curve"/>
      <point x="-502" y="1818" type="line"/>
      <point x="-472" y="1729" type="line"/>
      <point x="-428" y="1731"/>
      <point x="-390" y="1739"/>
      <point x="-361" y="1751" type="curve"/>
      <point x="-335" y="1736"/>
      <point x="-314" y="1699"/>
      <point x="-314" y="1659" type="curve" smooth="yes"/>
      <point x="-314" y="1602"/>
      <point x="-356" y="1567"/>
      <point x="-414" y="1567" type="curve" smooth="yes"/>
      <point x="-493" y="1567"/>
      <point x="-560" y="1633"/>
      <point x="-589" y="1808" type="curve"/>
      <point x="-626" y="1807"/>
      <point x="-646" y="1800"/>
      <point x="-646" y="1758" type="curve" smooth="yes"/>
      <point x="-646" y="1677"/>
      <point x="-570" y="1475"/>
      <point x="-385" y="1475" type="curve" smooth="yes"/>
      <point x="-277" y="1475"/>
      <point x="-213" y="1543"/>
      <point x="-213" y="1625" type="curve" smooth="yes"/>
      <point x="-213" y="1652"/>
      <point x="-220" y="1679"/>
      <point x="-234" y="1708" type="curve"/>
      <point x="-224" y="1706"/>
      <point x="-207" y="1704"/>
      <point x="-192" y="1704" type="curve" smooth="yes"/>
    </contour>
    <contour>
      <point x="-638" y="1763" type="move" name="_class0"/>
    </contour>
  </outline>
</glyph>
<glyph name="pacombiningletterdeva" format="1">
  <advance width="0"/>
  <unicode hex="A8EE"/>
  <outline>
    <contour>
      <point x="-261" y="1459" type="line"/>
      <point x="-155" y="1450" type="line"/>
      <point x="-149" y="1455" type="line"/>
      <point x="-149" y="1985" type="line"/>
      <point x="-47" y="1985" type="line"/>
      <point x="-42" y="1992" type="line"/>
      <point x="-61" y="2065" type="line"/>
      <point x="-607" y="2065" type="line"/>
      <point x="-612" y="2058" type="line"/>
      <point x="-592" y="1985" type="line"/>
      <point x="-538" y="1985" type="line"/>
      <point x="-538" y="1796" type="line" smooth="yes"/>
      <point x="-538" y="1697"/>
      <point x="-443" y="1605"/>
      <point x="-341" y="1605" type="curve" smooth="yes"/>
      <point x="-317" y="1605"/>
      <point x="-291" y="1610"/>
      <point x="-261" y="1621" type="curve"/>
    </contour>
    <contour>
      <point x="-402" y="1679"/>
      <point x="-426" y="1703"/>
      <point x="-426" y="1758" type="curve" smooth="yes"/>
      <point x="-426" y="1985" type="line"/>
      <point x="-261" y="1985" type="line"/>
      <point x="-261" y="1794" type="line" smooth="yes"/>
      <point x="-261" y="1728"/>
      <point x="-316" y="1679"/>
      <point x="-368" y="1679" type="curve" smooth="yes"/>
    </contour>
    <contour>
      <point x="-602" y="1758" type="move" name="_class0"/>
    </contour>
  </outline>
</glyph>
<glyph name="racombiningletterdeva" format="1">
  <advance width="0"/>
  <unicode hex="A8EF"/>
  <outline>
    <contour>
      <point x="-212" y="1694"/>
      <point x="-172" y="1768"/>
      <point x="-172" y="1844" type="curve" smooth="yes"/>
      <point x="-172" y="1887"/>
      <point x="-189" y="1933"/>
      <point x="-215" y="1985" type="curve"/>
      <point x="-65" y="1985" type="line"/>
      <point x="-60" y="1992" type="line"/>
      <point x="-77" y="2065" type="line"/>
      <point x="-514" y="2065" type="line"/>
      <point x="-519" y="2058" type="line"/>
      <point x="-499" y="1985" type="line"/>
      <point x="-296" y="1985" type="line"/>
      <point x="-280" y="1948"/>
      <point x="-272" y="1909"/>
      <point x="-272" y="1877" type="curve" smooth="yes"/>
      <point x="-272" y="1839"/>
      <point x="-284" y="1812"/>
      <point x="-305" y="1796" type="curve"/>
      <point x="-333" y="1810"/>
      <point x="-365" y="1817"/>
      <point x="-387" y="1817" type="curve" smooth="yes"/>
      <point x="-439" y="1817"/>
      <point x="-468" y="1783"/>
      <point x="-468" y="1750" type="curve" smooth="yes"/>
      <point x="-468" y="1657"/>
      <point x="-290" y="1446"/>
      <point x="-195" y="1446" type="curve" smooth="yes"/>
      <point x="-167" y="1446"/>
      <point x="-133" y="1467"/>
      <point x="-133" y="1489" type="curve"/>
      <point x="-219" y="1533"/>
      <point x="-287" y="1586"/>
      <point x="-344" y="1667" type="curve"/>
    </contour>
    <contour>
      <point x="-638" y="1763" type="move" name="_class0"/>
    </contour>
  </outline>
</glyph>
<glyph name="candrabinduviramadeva" format="1">
  <advance width="843"/>
  <unicode hex="A8F3"/>
  <outline>
    <contour>
      <point x="457" y="1155"/>
      <point x="501" y="1199"/>
      <point x="501" y="1253" type="curve" smooth="yes"/>
      <point x="501" y="1306"/>
      <point x="457" y="1350"/>
      <point x="403" y="1350" type="curve" smooth="yes"/>
      <point x="350" y="1350"/>
      <point x="306" y="1306"/>
      <point x="306" y="1253" type="curve" smooth="yes"/>
      <point x="306" y="1199"/>
      <point x="350" y="1155"/>
      <point x="403" y="1155" type="curve" smooth="yes"/>
    </contour>
    <contour>
      <point x="115" y="1266"/>
      <point x="100" y="1252"/>
      <point x="100" y="1208" type="curve" smooth="yes"/>
      <point x="100" y="1079"/>
      <point x="231" y="882"/>
      <point x="436" y="882" type="curve" smooth="yes"/>
      <point x="616" y="882"/>
      <point x="743" y="1035"/>
      <point x="743" y="1156" type="curve" smooth="yes"/>
      <point x="743" y="1208"/>
      <point x="720" y="1234"/>
      <point x="653" y="1262" type="curve"/>
      <point x="611" y="1092"/>
      <point x="512" y="1015"/>
      <point x="400" y="1015" type="curve" smooth="yes"/>
      <point x="294" y="1015"/>
      <point x="202" y="1085"/>
      <point x="141" y="1280" type="curve"/>
    </contour>
    <contour>
      <point x="237" y="628"/>
      <point x="184" y="593"/>
      <point x="184" y="542" type="curve" smooth="yes"/>
      <point x="184" y="508"/>
      <point x="208" y="474"/>
      <point x="251" y="442" type="curve"/>
      <point x="287" y="452"/>
      <point x="341" y="463"/>
      <point x="398" y="463" type="curve" smooth="yes"/>
      <point x="516" y="463"/>
      <point x="654" y="416"/>
      <point x="859" y="181" type="curve"/>
      <point x="881" y="190"/>
      <point x="890" y="211"/>
      <point x="890" y="224" type="curve" smooth="yes"/>
      <point x="890" y="273"/>
      <point x="759" y="442"/>
      <point x="583" y="549" type="curve" smooth="yes"/>
      <point x="476" y="614"/>
      <point x="396" y="628"/>
      <point x="334" y="628" type="curve" smooth="yes"/>
    </contour>
  </outline>
</glyph>
<glyph name="doublecandrabinduviramadeva" format="1">
  <advance width="843"/>
  <unicode hex="A8F4"/>
  <outline>
    <contour>
      <point x="457" y="1155"/>
      <point x="501" y="1199"/>
      <point x="501" y="1253" type="curve" smooth="yes"/>
      <point x="501" y="1306"/>
      <point x="457" y="1350"/>
      <point x="403" y="1350" type="curve" smooth="yes"/>
      <point x="350" y="1350"/>
      <point x="306" y="1306"/>
      <point x="306" y="1253" type="curve" smooth="yes"/>
      <point x="306" y="1199"/>
      <point x="350" y="1155"/>
      <point x="403" y="1155" type="curve" smooth="yes"/>
    </contour>
    <contour>
      <point x="115" y="1266"/>
      <point x="100" y="1252"/>
      <point x="100" y="1208" type="curve" smooth="yes"/>
      <point x="100" y="1079"/>
      <point x="231" y="882"/>
      <point x="436" y="882" type="curve" smooth="yes"/>
      <point x="616" y="882"/>
      <point x="743" y="1035"/>
      <point x="743" y="1156" type="curve" smooth="yes"/>
      <point x="743" y="1208"/>
      <point x="720" y="1234"/>
      <point x="653" y="1262" type="curve"/>
      <point x="611" y="1092"/>
      <point x="512" y="1015"/>
      <point x="400" y="1015" type="curve" smooth="yes"/>
      <point x="294" y="1015"/>
      <point x="202" y="1085"/>
      <point x="141" y="1280" type="curve"/>
    </contour>
    <contour>
      <point x="457" y="555"/>
      <point x="501" y="599"/>
      <point x="501" y="653" type="curve" smooth="yes"/>
      <point x="501" y="706"/>
      <point x="457" y="750"/>
      <point x="403" y="750" type="curve" smooth="yes"/>
      <point x="350" y="750"/>
      <point x="306" y="706"/>
      <point x="306" y="653" type="curve" smooth="yes"/>
      <point x="306" y="599"/>
      <point x="350" y="555"/>
      <point x="403" y="555" type="curve" smooth="yes"/>
    </contour>
    <contour>
      <point x="115" y="666"/>
      <point x="100" y="652"/>
      <point x="100" y="608" type="curve" smooth="yes"/>
      <point x="100" y="479"/>
      <point x="231" y="282"/>
      <point x="436" y="282" type="curve" smooth="yes"/>
      <point x="616" y="282"/>
      <point x="743" y="435"/>
      <point x="743" y="556" type="curve" smooth="yes"/>
      <point x="743" y="608"/>
      <point x="720" y="634"/>
      <point x="653" y="662" type="curve"/>
      <point x="611" y="492"/>
      <point x="512" y="415"/>
      <point x="400" y="415" type="curve" smooth="yes"/>
      <point x="294" y="415"/>
      <point x="202" y="485"/>
      <point x="141" y="680" type="curve"/>
    </contour>
    <contour>
      <point x="237" y="68"/>
      <point x="184" y="33"/>
      <point x="184" y="-18" type="curve" smooth="yes"/>
      <point x="184" y="-52"/>
      <point x="208" y="-86"/>
      <point x="251" y="-118" type="curve"/>
      <point x="287" y="-108"/>
      <point x="341" y="-97"/>
      <point x="398" y="-97" type="curve" smooth="yes"/>
      <point x="516" y="-97"/>
      <point x="654" y="-144"/>
      <point x="859" y="-379" type="curve"/>
      <point x="881" y="-370"/>
      <point x="890" y="-349"/>
      <point x="890" y="-336" type="curve" smooth="yes"/>
      <point x="890" y="-287"/>
      <point x="759" y="-118"/>
      <point x="583" y="-11" type="curve" smooth="yes"/>
      <point x="476" y="54"/>
      <point x="396" y="68"/>
      <point x="334" y="68" type="curve" smooth="yes"/>
    </contour>
  </outline>
</glyph>
<glyph name="candrabindudigittwodeva" format="1">
  <advance width="843"/>
  <unicode hex="A8F5"/>
  <outline>
    <contour>
      <point x="457" y="1155"/>
      <point x="501" y="1199"/>
      <point x="501" y="1253" type="curve" smooth="yes"/>
      <point x="501" y="1306"/>
      <point x="457" y="1350"/>
      <point x="403" y="1350" type="curve" smooth="yes"/>
      <point x="350" y="1350"/>
      <point x="306" y="1306"/>
      <point x="306" y="1253" type="curve" smooth="yes"/>
      <point x="306" y="1199"/>
      <point x="350" y="1155"/>
      <point x="403" y="1155" type="curve" smooth="yes"/>
    </contour>
    <contour>
      <point x="115" y="1266"/>
      <point x="100" y="1252"/>
      <point x="100" y="1208" type="curve" smooth="yes"/>
      <point x="100" y="1079"/>
      <point x="231" y="882"/>
      <point x="436" y="882" type="curve" smooth="yes"/>
      <point x="616" y="882"/>
      <point x="743" y="1035"/>
      <point x="743" y="1156" type="curve" smooth="yes"/>
      <point x="743" y="1208"/>
      <point x="720" y="1234"/>
      <point x="653" y="1262" type="curve"/>
      <point x="611" y="1092"/>
      <point x="512" y="1015"/>
      <point x="400" y="1015" type="curve" smooth="yes"/>
      <point x="294" y="1015"/>
      <point x="202" y="1085"/>
      <point x="141" y="1280" type="curve"/>
    </contour>
    <contour>
      <point x="675" y="-101"/>
      <point x="652" y="-108"/>
      <point x="622" y="-108" type="curve" smooth="yes"/>
      <point x="553" y="-108"/>
      <point x="499" y="-66"/>
      <point x="422" y="93" type="curve"/>
      <point x="620" y="181"/>
      <point x="722" y="328"/>
      <point x="722" y="465" type="curve" smooth="yes"/>
      <point x="722" y="627"/>
      <point x="578" y="769"/>
      <point x="403" y="769" type="curve" smooth="yes"/>
      <point x="255" y="769"/>
      <point x="140" y="668"/>
      <point x="140" y="575" type="curve" smooth="yes"/>
      <point x="140" y="512"/>
      <point x="198" y="470"/>
      <point x="282" y="478" type="curve"/>
      <point x="278" y="577"/>
      <point x="343" y="661"/>
      <point x="445" y="661" type="curve" smooth="yes"/>
      <point x="526" y="661"/>
      <point x="584" y="611"/>
      <point x="584" y="512" type="curve" smooth="yes"/>
      <point x="584" y="410"/>
      <point x="518" y="297"/>
      <point x="368" y="229" type="curve"/>
      <point x="337" y="276"/>
      <point x="286" y="305"/>
      <point x="236" y="305" type="curve" smooth="yes"/>
      <point x="173" y="305"/>
      <point x="125" y="261"/>
      <point x="125" y="209" type="curve" smooth="yes"/>
      <point x="125" y="107"/>
      <point x="255" y="67"/>
      <point x="332" y="68" type="curve"/>
      <point x="440" y="-170"/>
      <point x="555" y="-249"/>
      <point x="648" y="-249" type="curve" smooth="yes"/>
      <point x="717" y="-249"/>
      <point x="761" y="-207"/>
      <point x="761" y="-163" type="curve" smooth="yes"/>
      <point x="761" y="-135"/>
      <point x="746" y="-102"/>
      <point x="713" y="-77" type="curve"/>
    </contour>
  </outline>
</glyph>
<glyph name="candrabinduavagrahadeva" format="1">
  <advance width="843"/>
  <unicode hex="A8F7"/>
  <outline>
    <contour>
      <point x="457" y="1155"/>
      <point x="501" y="1199"/>
      <point x="501" y="1253" type="curve" smooth="yes"/>
      <point x="501" y="1306"/>
      <point x="457" y="1350"/>
      <point x="403" y="1350" type="curve" smooth="yes"/>
      <point x="350" y="1350"/>
      <point x="306" y="1306"/>
      <point x="306" y="1253" type="curve" smooth="yes"/>
      <point x="306" y="1199"/>
      <point x="350" y="1155"/>
      <point x="403" y="1155" type="curve" smooth="yes"/>
    </contour>
    <contour>
      <point x="115" y="1266"/>
      <point x="100" y="1252"/>
      <point x="100" y="1208" type="curve" smooth="yes"/>
      <point x="100" y="1079"/>
      <point x="231" y="882"/>
      <point x="436" y="882" type="curve" smooth="yes"/>
      <point x="616" y="882"/>
      <point x="743" y="1035"/>
      <point x="743" y="1156" type="curve" smooth="yes"/>
      <point x="743" y="1208"/>
      <point x="720" y="1234"/>
      <point x="653" y="1262" type="curve"/>
      <point x="611" y="1092"/>
      <point x="512" y="1015"/>
      <point x="400" y="1015" type="curve" smooth="yes"/>
      <point x="294" y="1015"/>
      <point x="202" y="1085"/>
      <point x="141" y="1280" type="curve"/>
    </contour>
    <contour>
      <point x="685" y="652" type="line"/>
      <point x="689" y="659" type="line"/>
      <point x="649" y="765" type="line"/>
      <point x="385" y="765" type="line" smooth="yes"/>
      <point x="254" y="765"/>
      <point x="160" y="703"/>
      <point x="160" y="601" type="curve" smooth="yes"/>
      <point x="160" y="552"/>
      <point x="181" y="512"/>
      <point x="205" y="478" type="curve" smooth="yes"/>
      <point x="351" y="270"/>
      <point x="595" y="308"/>
      <point x="595" y="146" type="curve" smooth="yes"/>
      <point x="595" y="67"/>
      <point x="535" y="12"/>
      <point x="451" y="12" type="curve" smooth="yes"/>
      <point x="349" y="12"/>
      <point x="254" y="82"/>
      <point x="231" y="267" type="curve"/>
      <point x="161" y="263"/>
      <point x="151" y="218"/>
      <point x="151" y="186" type="curve" smooth="yes"/>
      <point x="151" y="69"/>
      <point x="276" y="-117"/>
      <point x="483" y="-117" type="curve" smooth="yes"/>
      <point x="631" y="-117"/>
      <point x="715" y="-20"/>
      <point x="715" y="100" type="curve" smooth="yes"/>
      <point x="715" y="151"/>
      <point x="701" y="202"/>
      <point x="667" y="254" type="curve" smooth="yes"/>
      <point x="546" y="435"/>
      <point x="300" y="425"/>
      <point x="300" y="553" type="curve" smooth="yes"/>
      <point x="300" y="608"/>
      <point x="346" y="652"/>
      <point x="443" y="652" type="curve" smooth="yes"/>
    </contour>
  </outline>
</glyph>
<glyph name="caretdeva" format="1">
  <advance width="926"/>
  <unicode hex="A8FA"/>
  <outline>
    <contour>
      <point x="244" y="1784" type="line"/>
      <point x="100" y="1735" type="line"/>
      <point x="387" y="1325" type="line"/>
      <point x="539" y="1325" type="line"/>
      <point x="826" y="1735" type="line"/>
      <point x="682" y="1784" type="line"/>
      <point x="467" y="1422" type="line"/>
      <point x="459" y="1422" type="line"/>
    </contour>
  </outline>
</glyph>
<glyph name="headstrokedeva" format="1">
  <advance width="1041"/>
  <unicode hex="A8FB"/>
  <outline>
    <contour>
      <point x="-56" y="1701" type="line"/>
      <point x="0" y="1577" type="line"/>
      <point x="1091" y="1577" type="line"/>
      <point x="1097" y="1586" type="line"/>
      <point x="1041" y="1710" type="line"/>
      <point x="-50" y="1710" type="line"/>
    </contour>
  </outline>
</glyph>
<glyph name="isigndeva.ja" format="1">
  <advance width="573"/>
  <unicode hex="FFED"/>
  <outline>
    <contour>
      <point x="1773" y="1296" type="line"/>
      <point x="1400" y="1677"/>
      <point x="923" y="1906"/>
      <point x="527" y="1906" type="curve" smooth="yes"/>
      <point x="212" y="1906"/>
      <point x="63" y="1761"/>
      <point x="63" y="1580" type="curve" smooth="yes"/>
      <point x="63" y="1484"/>
      <point x="103" y="1405"/>
      <point x="170" y="1330" type="curve"/>
      <point x="-50" y="1330" type="line"/>
      <point x="-56" y="1321" type="line"/>
      <point x="0" y="1197" type="line"/>
      <point x="206" y="1197" type="line"/>
      <point x="206" y="19" type="line"/>
      <point x="357" y="-19" type="line"/>
      <point x="366" y="-12" type="line"/>
      <point x="366" y="1197" type="line"/>
      <point x="623" y="1197" type="line"/>
      <point x="629" y="1206" type="line"/>
      <point x="573" y="1330" type="line"/>
      <point x="292" y="1330" type="line"/>
      <point x="233" y="1378"/>
      <point x="201" y="1435"/>
      <point x="201" y="1507" type="curve" smooth="yes"/>
      <point x="201" y="1643"/>
      <point x="316" y="1746"/>
      <point x="597" y="1746" type="curve" smooth="yes"/>
      <point x="908" y="1746"/>
      <point x="1286" y="1620"/>
      <point x="1667" y="1269" type="curve"/>
    </contour>
  </outline>
</glyph>
<glyph name="isigndeva_anusvara.tha" format="1">
  <advance width="573"/>
  <unicode hex="FFEE"/>
  <outline>
    <contour>
      <point x="1693" y="1296" type="line"/>
      <point x="1341" y="1679"/>
      <point x="902" y="1906"/>
      <point x="520" y="1906" type="curve" smooth="yes"/>
      <point x="215" y="1906"/>
      <point x="63" y="1761"/>
      <point x="63" y="1580" type="curve" smooth="yes"/>
      <point x="63" y="1484"/>
      <point x="103" y="1405"/>
      <point x="170" y="1330" type="curve"/>
      <point x="-50" y="1330" type="line"/>
      <point x="-56" y="1321" type="line"/>
      <point x="0" y="1197" type="line"/>
      <point x="206" y="1197" type="line"/>
      <point x="206" y="19" type="line"/>
      <point x="357" y="-19" type="line"/>
      <point x="366" y="-12" type="line"/>
      <point x="366" y="1197" type="line"/>
      <point x="623" y="1197" type="line"/>
      <point x="629" y="1206" type="line"/>
      <point x="573" y="1330" type="line"/>
      <point x="292" y="1330" type="line"/>
      <point x="233" y="1378"/>
      <point x="201" y="1435"/>
      <point x="201" y="1506" type="curve" smooth="yes"/>
      <point x="201" y="1643"/>
      <point x="319" y="1746"/>
      <point x="590" y="1746" type="curve" smooth="yes"/>
      <point x="895" y="1746"/>
      <point x="1242" y="1615"/>
      <point x="1587" y="1269" type="curve"/>
    </contour>
    <contour>
      <point x="1685" y="1636"/>
      <point x="1641" y="1592"/>
      <point x="1641" y="1539" type="curve" smooth="yes"/>
      <point x="1641" y="1485"/>
      <point x="1685" y="1441"/>
      <point x="1738" y="1441" type="curve" smooth="yes"/>
      <point x="1792" y="1441"/>
      <point x="1836" y="1485"/>
      <point x="1836" y="1539" type="curve" smooth="yes"/>
      <point x="1836" y="1592"/>
      <point x="1792" y="1636"/>
      <point x="1738" y="1636" type="curve" smooth="yes"/>
    </contour>
  </outline>
</glyph>
<glyph name="isign_ra_virama.tha" format="1">
  <advance width="573"/>
  <unicode hex="FFF0"/>
  <outline>
    <contour>
      <point x="1461" y="1924"/>
      <point x="1357" y="1792"/>
      <point x="1357" y="1647" type="curve" smooth="yes"/>
      <point x="1357" y="1626"/>
      <point x="1358" y="1605"/>
      <point x="1361" y="1584" type="curve"/>
      <point x="1141" y="1758"/>
      <point x="813" y="1906"/>
      <point x="513" y="1906" type="curve" smooth="yes"/>
      <point x="220" y="1906"/>
      <point x="63" y="1761"/>
      <point x="63" y="1579" type="curve" smooth="yes"/>
      <point x="63" y="1484"/>
      <point x="103" y="1405"/>
      <point x="170" y="1330" type="curve"/>
      <point x="-50" y="1330" type="line"/>
      <point x="-56" y="1321" type="line"/>
      <point x="0" y="1197" type="line"/>
      <point x="206" y="1197" type="line"/>
      <point x="206" y="19" type="line"/>
      <point x="357" y="-19" type="line"/>
      <point x="366" y="-12" type="line"/>
      <point x="366" y="1197" type="line"/>
      <point x="623" y="1197" type="line"/>
      <point x="629" y="1206" type="line"/>
      <point x="573" y="1330" type="line"/>
      <point x="292" y="1330" type="line"/>
      <point x="233" y="1378"/>
      <point x="201" y="1435"/>
      <point x="201" y="1506" type="curve" smooth="yes"/>
      <point x="201" y="1643"/>
      <point x="321" y="1746"/>
      <point x="586" y="1746" type="curve" smooth="yes"/>
      <point x="890" y="1746"/>
      <point x="1229" y="1611"/>
      <point x="1596" y="1269" type="curve"/>
      <point x="1712" y="1296" type="line"/>
      <point x="1574" y="1391"/>
      <point x="1495" y="1487"/>
      <point x="1495" y="1600" type="curve" smooth="yes"/>
      <point x="1495" y="1703"/>
      <point x="1561" y="1785"/>
      <point x="1675" y="1785" type="curve" smooth="yes"/>
      <point x="1729" y="1785"/>
      <point x="1791" y="1767"/>
      <point x="1844" y="1728" type="curve"/>
      <point x="1847" y="1738"/>
      <point x="1848" y="1748"/>
      <point x="1848" y="1757" type="curve" smooth="yes"/>
      <point x="1848" y="1843"/>
      <point x="1752" y="1924"/>
      <point x="1624" y="1924" type="curve" smooth="yes"/>
    </contour>
  </outline>
</glyph>
<glyph name="isigndeva_anusvara.alt1" format="1">
  <advance width="573"/>
  <unicode hex="FFF4"/>
  <outline>
    <contour>
      <point x="2143" y="1296" type="line"/>
      <point x="1729" y="1617"/>
      <point x="1075" y="1906"/>
      <point x="564" y="1906" type="curve" smooth="yes"/>
      <point x="202" y="1906"/>
      <point x="63" y="1761"/>
      <point x="63" y="1582" type="curve" smooth="yes"/>
      <point x="63" y="1480"/>
      <point x="105" y="1403"/>
      <point x="170" y="1330" type="curve"/>
      <point x="-50" y="1330" type="line"/>
      <point x="-56" y="1321" type="line"/>
      <point x="0" y="1197" type="line"/>
      <point x="206" y="1197" type="line"/>
      <point x="206" y="19" type="line"/>
      <point x="357" y="-19" type="line"/>
      <point x="366" y="-12" type="line"/>
      <point x="366" y="1197" type="line"/>
      <point x="623" y="1197" type="line"/>
      <point x="629" y="1206" type="line"/>
      <point x="573" y="1330" type="line"/>
      <point x="292" y="1330" type="line"/>
      <point x="236" y="1374"/>
      <point x="201" y="1446"/>
      <point x="201" y="1519" type="curve" smooth="yes"/>
      <point x="201" y="1646"/>
      <point x="308" y="1746"/>
      <point x="632" y="1746" type="curve" smooth="yes"/>
      <point x="1015" y="1746"/>
      <point x="1512" y="1606"/>
      <point x="2027" y="1269" type="curve"/>
    </contour>
    <contour>
      <point x="2105" y="1636"/>
      <point x="2061" y="1592"/>
      <point x="2061" y="1539" type="curve" smooth="yes"/>
      <point x="2061" y="1485"/>
      <point x="2105" y="1441"/>
      <point x="2158" y="1441" type="curve" smooth="yes"/>
      <point x="2212" y="1441"/>
      <point x="2256" y="1485"/>
      <point x="2256" y="1539" type="curve" smooth="yes"/>
      <point x="2256" y="1592"/>
      <point x="2212" y="1636"/>
      <point x="2158" y="1636" type="curve" smooth="yes"/>
    </contour>
  </outline>
</glyph>
<glyph name="isigndeva_anusvaradeva.alt4" format="1">
  <advance width="573"/>
  <unicode hex="FFF5"/>
  <outline>
    <contour>
      <point x="1603" y="1296" type="line"/>
      <point x="1193" y="1729"/>
      <point x="832" y="1906"/>
      <point x="501" y="1906" type="curve" smooth="yes"/>
      <point x="202" y="1906"/>
      <point x="63" y="1761"/>
      <point x="63" y="1582" type="curve" smooth="yes"/>
      <point x="63" y="1486"/>
      <point x="101" y="1407"/>
      <point x="170" y="1330" type="curve"/>
      <point x="-50" y="1330" type="line"/>
      <point x="-56" y="1321" type="line"/>
      <point x="0" y="1197" type="line"/>
      <point x="206" y="1197" type="line"/>
      <point x="206" y="19" type="line"/>
      <point x="357" y="-19" type="line"/>
      <point x="366" y="-12" type="line"/>
      <point x="366" y="1197" type="line"/>
      <point x="623" y="1197" type="line"/>
      <point x="629" y="1206" type="line"/>
      <point x="573" y="1330" type="line"/>
      <point x="292" y="1330" type="line"/>
      <point x="233" y="1378"/>
      <point x="201" y="1434"/>
      <point x="201" y="1507" type="curve" smooth="yes"/>
      <point x="201" y="1643"/>
      <point x="311" y="1746"/>
      <point x="558" y="1746" type="curve" smooth="yes"/>
      <point x="831" y="1746"/>
      <point x="1151" y="1621"/>
      <point x="1507" y="1269" type="curve"/>
    </contour>
    <contour>
      <point x="1595" y="1636"/>
      <point x="1551" y="1592"/>
      <point x="1551" y="1539" type="curve" smooth="yes"/>
      <point x="1551" y="1485"/>
      <point x="1595" y="1441"/>
      <point x="1648" y="1441" type="curve" smooth="yes"/>
      <point x="1702" y="1441"/>
      <point x="1746" y="1485"/>
      <point x="1746" y="1539" type="curve" smooth="yes"/>
      <point x="1746" y="1592"/>
      <point x="1702" y="1636"/>
      <point x="1648" y="1636" type="curve" smooth="yes"/>
    </contour>
  </outline>
</glyph>
<glyph name="aisign_ra_virama.alt1" format="1">
  <advance width="0"/>
  <outline>
    <contour>
      <point x="-269" y="1924"/>
      <point x="-349" y="1845"/>
      <point x="-385" y="1752" type="curve"/>
      <point x="-501" y="1979"/>
      <point x="-592" y="2022"/>
      <point x="-677" y="2022" type="curve" smooth="yes"/>
      <point x="-777" y="2022"/>
      <point x="-825" y="1962"/>
      <point x="-825" y="1905" type="curve" smooth="yes"/>
      <point x="-825" y="1853"/>
      <point x="-784" y="1820"/>
      <point x="-732" y="1801" type="curve"/>
      <point x="-705" y="1839"/>
      <point x="-669" y="1864"/>
      <point x="-623" y="1864" type="curve" smooth="yes"/>
      <point x="-553" y="1864"/>
      <point x="-491" y="1804"/>
      <point x="-368" y="1445" type="curve"/>
      <point x="-586" y="1616"/>
      <point x="-808" y="1732"/>
      <point x="-938" y="1732" type="curve" smooth="yes"/>
      <point x="-1027" y="1732"/>
      <point x="-1095" y="1677"/>
      <point x="-1095" y="1603" type="curve" smooth="yes"/>
      <point x="-1095" y="1551"/>
      <point x="-1061" y="1508"/>
      <point x="-983" y="1488" type="curve"/>
      <point x="-958" y="1550"/>
      <point x="-914" y="1589"/>
      <point x="-850" y="1589" type="curve" smooth="yes"/>
      <point x="-752" y="1589"/>
      <point x="-568" y="1501"/>
      <point x="-376" y="1330" type="curve"/>
      <point x="-376" y="1282" type="line"/>
      <point x="-233" y="1282" type="line"/>
      <point x="-233" y="1330" type="line"/>
      <point x="-274" y="1438"/>
      <point x="-289" y="1526"/>
      <point x="-289" y="1584" type="curve" smooth="yes"/>
      <point x="-289" y="1713"/>
      <point x="-216" y="1785"/>
      <point x="-101" y="1785" type="curve" smooth="yes"/>
      <point x="-44" y="1785"/>
      <point x="17" y="1767"/>
      <point x="70" y="1728" type="curve"/>
      <point x="73" y="1738"/>
      <point x="74" y="1748"/>
      <point x="74" y="1757" type="curve" smooth="yes"/>
      <point x="74" y="1843"/>
      <point x="-23" y="1924"/>
      <point x="-147" y="1924" type="curve" smooth="yes"/>
    </contour>
    <contour>
      <point x="-131" y="665" type="move" name="_class0"/>
    </contour>
  </outline>
</glyph>
<glyph name="ausign_ra_virama.alt1" format="1">
  <advance width="573"/>
  <outline>
    <contour>
      <point x="539" y="1785"/>
      <point x="600" y="1767"/>
      <point x="653" y="1728" type="curve"/>
      <point x="656" y="1738"/>
      <point x="657" y="1748"/>
      <point x="657" y="1757" type="curve" smooth="yes"/>
      <point x="657" y="1843"/>
      <point x="560" y="1924"/>
      <point x="436" y="1924" type="curve" smooth="yes"/>
      <point x="314" y="1924"/>
      <point x="234" y="1845"/>
      <point x="198" y="1752" type="curve"/>
      <point x="82" y="1979"/>
      <point x="-9" y="2022"/>
      <point x="-94" y="2022" type="curve" smooth="yes"/>
      <point x="-194" y="2022"/>
      <point x="-242" y="1962"/>
      <point x="-242" y="1905" type="curve" smooth="yes"/>
      <point x="-242" y="1853"/>
      <point x="-201" y="1820"/>
      <point x="-149" y="1801" type="curve"/>
      <point x="-122" y="1839"/>
      <point x="-87" y="1864"/>
      <point x="-39" y="1864" type="curve" smooth="yes"/>
      <point x="29" y="1864"/>
      <point x="92" y="1813"/>
      <point x="215" y="1445" type="curve"/>
      <point x="-3" y="1616"/>
      <point x="-225" y="1732"/>
      <point x="-355" y="1732" type="curve" smooth="yes"/>
      <point x="-444" y="1732"/>
      <point x="-512" y="1677"/>
      <point x="-512" y="1603" type="curve" smooth="yes"/>
      <point x="-512" y="1551"/>
      <point x="-478" y="1508"/>
      <point x="-400" y="1488" type="curve"/>
      <point x="-375" y="1550"/>
      <point x="-331" y="1589"/>
      <point x="-267" y="1589" type="curve" smooth="yes"/>
      <point x="-169" y="1589"/>
      <point x="15" y="1501"/>
      <point x="207" y="1330" type="curve"/>
      <point x="-50" y="1330" type="line"/>
      <point x="-56" y="1321" type="line"/>
      <point x="0" y="1197" type="line"/>
      <point x="206" y="1197" type="line"/>
      <point x="206" y="19" type="line"/>
      <point x="357" y="-19" type="line"/>
      <point x="366" y="-12" type="line"/>
      <point x="366" y="1197" type="line"/>
      <point x="623" y="1197" type="line"/>
      <point x="629" y="1206" type="line"/>
      <point x="573" y="1330" type="line"/>
      <point x="350" y="1330" type="line"/>
      <point x="309" y="1438"/>
      <point x="294" y="1526"/>
      <point x="294" y="1584" type="curve" smooth="yes"/>
      <point x="294" y="1713"/>
      <point x="367" y="1785"/>
      <point x="482" y="1785" type="curve" smooth="yes"/>
    </contour>
  </outline>
</glyph>
<glyph name="badeva_viramadeva" format="1">
  <advance width="611"/>
  <outline>
    <contour>
      <point x="-50" y="1330" type="line"/>
      <point x="-56" y="1321" type="line"/>
      <point x="0" y="1197" type="line"/>
      <point x="710" y="1197" type="line"/>
      <point x="716" y="1206" type="line"/>
      <point x="660" y="1330" type="line"/>
    </contour>
    <contour>
      <point x="813" y="598" type="line"/>
      <point x="792" y="533"/>
      <point x="757" y="480"/>
      <point x="714" y="441" type="curve"/>
      <point x="389" y="837" type="line"/>
      <point x="432" y="856"/>
      <point x="467" y="863"/>
      <point x="517" y="863" type="curve" smooth="yes"/>
      <point x="666" y="863"/>
      <point x="752" y="800"/>
      <point x="827" y="649" type="curve"/>
      <point x="908" y="702" type="line"/>
      <point x="807" y="877"/>
      <point x="658" y="1007"/>
      <point x="453" y="1007" type="curve" smooth="yes"/>
      <point x="235" y="1007"/>
      <point x="79" y="861"/>
      <point x="79" y="664" type="curve" smooth="yes"/>
      <point x="79" y="413"/>
      <point x="334" y="219"/>
      <point x="557" y="219" type="curve" smooth="yes"/>
      <point x="727" y="219"/>
      <point x="874" y="331"/>
      <point x="945" y="519" type="curve"/>
    </contour>
    <contour>
      <point x="342" y="350"/>
      <point x="228" y="449"/>
      <point x="228" y="594" type="curve" smooth="yes"/>
      <point x="228" y="666"/>
      <point x="256" y="731"/>
      <point x="296" y="774" type="curve"/>
      <point x="624" y="383" type="line"/>
      <point x="578" y="361"/>
      <point x="538" y="350"/>
      <point x="489" y="350" type="curve" smooth="yes"/>
    </contour>
  </outline>
</glyph>
<glyph name="badeva_viramadeva_radeva" format="1">
  <advance width="1160"/>
  <outline>
    <contour>
      <point x="944" y="-19" type="line"/>
      <point x="953" y="-12" type="line"/>
      <point x="953" y="1197" type="line"/>
      <point x="1210" y="1197" type="line"/>
      <point x="1216" y="1206" type="line"/>
      <point x="1160" y="1330" type="line"/>
      <point x="-50" y="1330" type="line"/>
      <point x="-56" y="1321" type="line"/>
      <point x="0" y="1197" type="line"/>
      <point x="793" y="1197" type="line"/>
      <point x="793" y="885" type="line"/>
      <point x="688" y="988"/>
      <point x="560" y="1027"/>
      <point x="449" y="1027" type="curve" smooth="yes"/>
      <point x="235" y="1027"/>
      <point x="79" y="884"/>
      <point x="79" y="694" type="curve" smooth="yes"/>
      <point x="79" y="507"/>
      <point x="231" y="343"/>
      <point x="424" y="278" type="curve"/>
      <point x="139" y="82" type="line"/>
      <point x="142" y="70" type="line"/>
      <point x="262" y="-24" type="line"/>
      <point x="793" y="347" type="line"/>
      <point x="793" y="19" type="line"/>
    </contour>
    <contour>
      <point x="674" y="883"/>
      <point x="793" y="789"/>
      <point x="793" y="662" type="curve" smooth="yes"/>
      <point x="793" y="548" type="line"/>
      <point x="766" y="526"/>
      <point x="740" y="506"/>
      <point x="715" y="489" type="curve"/>
      <point x="408" y="865" type="line"/>
      <point x="430" y="875"/>
      <point x="471" y="883"/>
      <point x="517" y="883" type="curve" smooth="yes"/>
    </contour>
    <contour>
      <point x="228" y="698"/>
      <point x="256" y="761"/>
      <point x="309" y="809" type="curve"/>
      <point x="622" y="434" type="line"/>
      <point x="566" y="402"/>
      <point x="522" y="392"/>
      <point x="476" y="392" type="curve" smooth="yes"/>
      <point x="333" y="392"/>
      <point x="228" y="487"/>
      <point x="228" y="626" type="curve" smooth="yes"/>
    </contour>
  </outline>
</glyph>
<glyph name="cadeva_viramadeva_cadeva" format="1">
  <advance width="1941"/>
  <outline>
    <contour>
      <point x="1734" y="-12" type="line"/>
      <point x="1734" y="1197" type="line"/>
      <point x="1991" y="1197" type="line"/>
      <point x="1997" y="1206" type="line"/>
      <point x="1941" y="1330" type="line"/>
      <point x="-50" y="1330" type="line"/>
      <point x="-56" y="1321" type="line"/>
      <point x="0" y="1197" type="line"/>
      <point x="1574" y="1197" type="line"/>
      <point x="1574" y="660" type="line" smooth="yes"/>
      <point x="1574" y="508"/>
      <point x="1425" y="373"/>
      <point x="1252" y="373" type="curve" smooth="yes"/>
      <point x="1117" y="373"/>
      <point x="1031" y="456"/>
      <point x="1031" y="565" type="curve" smooth="yes"/>
      <point x="1031" y="699"/>
      <point x="1160" y="830"/>
      <point x="1361" y="830" type="curve" smooth="yes"/>
      <point x="1416" y="830" type="line"/>
      <point x="1422" y="839" type="line"/>
      <point x="1366" y="963" type="line"/>
      <point x="68" y="963" type="line"/>
      <point x="62" y="954" type="line"/>
      <point x="118" y="830" type="line"/>
      <point x="355" y="830" type="line"/>
      <point x="304" y="763"/>
      <point x="279" y="700"/>
      <point x="279" y="625" type="curve" smooth="yes"/>
      <point x="279" y="437"/>
      <point x="454" y="251"/>
      <point x="698" y="251" type="curve" smooth="yes"/>
      <point x="816" y="251"/>
      <point x="920" y="295"/>
      <point x="1009" y="382" type="curve"/>
      <point x="1083" y="304"/>
      <point x="1195" y="251"/>
      <point x="1318" y="251" type="curve" smooth="yes"/>
      <point x="1407" y="251"/>
      <point x="1491" y="276"/>
      <point x="1574" y="331" type="curve"/>
      <point x="1574" y="19" type="line"/>
      <point x="1725" y="-19" type="line"/>
    </contour>
    <contour>
      <point x="495" y="373"/>
      <point x="411" y="456"/>
      <point x="411" y="565" type="curve" smooth="yes"/>
      <point x="411" y="700"/>
      <point x="541" y="830"/>
      <point x="741" y="830" type="curve" smooth="yes"/>
      <point x="975" y="830" type="line"/>
      <point x="924" y="763"/>
      <point x="899" y="699"/>
      <point x="899" y="627" type="curve" smooth="yes"/>
      <point x="899" y="588"/>
      <point x="907" y="552"/>
      <point x="919" y="520" type="curve"/>
      <point x="846" y="424"/>
      <point x="744" y="373"/>
      <point x="635" y="373" type="curve" smooth="yes"/>
    </contour>
  </outline>
</glyph>
<glyph name="cadeva_viramadeva_chadeva" format="1">
  <advance width="2068"/>
  <outline>
    <contour>
      <point x="2118" y="1197" type="line"/>
      <point x="2124" y="1206" type="line"/>
      <point x="2068" y="1330" type="line"/>
      <point x="-50" y="1330" type="line"/>
      <point x="-56" y="1321" type="line"/>
      <point x="0" y="1197" type="line"/>
      <point x="1619" y="1197" type="line"/>
      <point x="1619" y="1055" type="line"/>
      <point x="1527" y="1031"/>
      <point x="1472" y="955"/>
      <point x="1472" y="853" type="curve" smooth="yes"/>
      <point x="1472" y="735"/>
      <point x="1545" y="598"/>
      <point x="1724" y="458" type="curve"/>
      <point x="1628" y="309"/>
      <point x="1473" y="197"/>
      <point x="1309" y="197" type="curve" smooth="yes"/>
      <point x="1190" y="197"/>
      <point x="1098" y="257"/>
      <point x="1098" y="358" type="curve" smooth="yes"/>
      <point x="1098" y="461"/>
      <point x="1192" y="557"/>
      <point x="1390" y="589" type="curve"/>
      <point x="1394" y="599" type="line"/>
      <point x="1283" y="728" type="line"/>
      <point x="1210.42" y="720.224"/>
      <point x="1146.81" y="696.771"/>
      <point x="1096.66" y="662.156" type="curve"/>
      <point x="1022.34" y="698.463"/>
      <point x="989" y="741.194"/>
      <point x="989" y="798" type="curve" smooth="yes"/>
      <point x="989" y="886"/>
      <point x="1070" y="947"/>
      <point x="1283" y="947" type="curve"/>
      <point x="1240" y="1045"/>
      <point x="1186" y="1088"/>
      <point x="1093" y="1088" type="curve" smooth="yes"/>
      <point x="953" y="1088"/>
      <point x="843" y="993"/>
      <point x="843" y="858" type="curve" smooth="yes"/>
      <point x="843" y="762.051"/>
      <point x="898.251" y="666.892"/>
      <point x="1015.06" y="599.167" type="curve"/>
      <point x="913.156" y="451.006"/>
      <point x="768.147" y="373"/>
      <point x="634" y="373" type="curve" smooth="yes"/>
      <point x="495" y="373"/>
      <point x="411" y="456"/>
      <point x="411" y="566" type="curve" smooth="yes"/>
      <point x="411" y="699"/>
      <point x="533" y="830"/>
      <point x="721" y="830" type="curve" smooth="yes"/>
      <point x="736" y="830" type="line"/>
      <point x="742" y="839" type="line"/>
      <point x="686" y="963" type="line"/>
      <point x="68.0001" y="963" type="line"/>
      <point x="62.0001" y="954" type="line"/>
      <point x="118" y="830" type="line"/>
      <point x="355" y="830" type="line"/>
      <point x="304" y="763"/>
      <point x="279" y="699"/>
      <point x="279" y="625" type="curve" smooth="yes"/>
      <point x="279" y="428"/>
      <point x="461" y="251"/>
      <point x="694" y="251" type="curve" smooth="yes"/>
      <point x="796.652" y="251"/>
      <point x="892.966" y="285.504"/>
      <point x="977.721" y="345.738" type="curve"/>
      <point x="1021.32" y="195.45"/>
      <point x="1182.25" y="61"/>
      <point x="1388" y="61" type="curve" smooth="yes"/>
      <point x="1703" y="61"/>
      <point x="1951" y="374"/>
      <point x="1951" y="694" type="curve" smooth="yes"/>
      <point x="1951" y="860"/>
      <point x="1884" y="995"/>
      <point x="1759" y="1042" type="curve"/>
      <point x="1759" y="1197" type="line"/>
    </contour>
    <contour>
      <point x="1827" y="702"/>
      <point x="1808" y="617"/>
      <point x="1774" y="539" type="curve"/>
      <point x="1662" y="632"/>
      <point x="1612" y="715"/>
      <point x="1612" y="791" type="curve" smooth="yes"/>
      <point x="1612" y="867"/>
      <point x="1663" y="932"/>
      <point x="1733" y="932" type="curve" smooth="yes"/>
      <point x="1794" y="932"/>
      <point x="1827" y="883"/>
      <point x="1827" y="780" type="curve" smooth="yes"/>
    </contour>
  </outline>
</glyph>
<glyph name="cadeva_viramadeva_madeva" format="1">
  <advance width="2006"/>
  <outline>
    <contour>
      <point x="2006" y="1330" type="line"/>
      <point x="-50" y="1330" type="line"/>
      <point x="-56" y="1321" type="line"/>
      <point x="0" y="1197" type="line"/>
      <point x="1020" y="1197" type="line"/>
      <point x="1020" y="652" type="line"/>
      <point x="909" y="649"/>
      <point x="875" y="609"/>
      <point x="875" y="562" type="curve" smooth="yes"/>
      <point x="875" y="540.141"/>
      <point x="882.179" y="515.611"/>
      <point x="894.25" y="490.414" type="curve"/>
      <point x="823.538" y="412.715"/>
      <point x="731.451" y="373"/>
      <point x="635" y="373" type="curve" smooth="yes"/>
      <point x="495" y="373"/>
      <point x="411" y="456"/>
      <point x="411" y="565" type="curve" smooth="yes"/>
      <point x="411" y="700"/>
      <point x="541" y="830"/>
      <point x="741" y="830" type="curve" smooth="yes"/>
      <point x="796" y="830" type="line"/>
      <point x="802" y="839" type="line"/>
      <point x="746" y="963" type="line"/>
      <point x="68" y="963" type="line"/>
      <point x="62" y="954" type="line"/>
      <point x="118" y="830" type="line"/>
      <point x="355" y="830" type="line"/>
      <point x="304" y="763"/>
      <point x="279" y="700"/>
      <point x="279" y="624" type="curve" smooth="yes"/>
      <point x="279" y="429"/>
      <point x="459" y="251"/>
      <point x="697" y="251" type="curve" smooth="yes"/>
      <point x="809.808" y="251"/>
      <point x="910.534" y="291.044"/>
      <point x="990.253" y="362.816" type="curve"/>
      <point x="1037.9" y="316.875"/>
      <point x="1089.68" y="284"/>
      <point x="1123" y="284" type="curve" smooth="yes"/>
      <point x="1151" y="284"/>
      <point x="1178" y="307"/>
      <point x="1178" y="363" type="curve" smooth="yes"/>
      <point x="1178" y="508" type="line"/>
      <point x="1639" y="508" type="line"/>
      <point x="1639" y="19" type="line"/>
      <point x="1790" y="-19" type="line"/>
      <point x="1799" y="-12" type="line"/>
      <point x="1799" y="1197" type="line"/>
      <point x="2056" y="1197" type="line"/>
      <point x="2062" y="1206" type="line"/>
    </contour>
    <contour>
      <point x="1639" y="653" type="line"/>
      <point x="1178" y="653" type="line"/>
      <point x="1178" y="1197" type="line"/>
      <point x="1639" y="1197" type="line"/>
    </contour>
  </outline>
</glyph>
<glyph name="cadeva_viramadeva_nadeva" format="1">
  <advance width="2034"/>
  <outline>
    <contour>
      <point x="2034" y="1330" type="line"/>
      <point x="-50" y="1330" type="line"/>
      <point x="-56" y="1321" type="line"/>
      <point x="0" y="1197" type="line"/>
      <point x="1667" y="1197" type="line"/>
      <point x="1667" y="853" type="line"/>
      <point x="1149" y="853" type="line" smooth="yes"/>
      <point x="1048" y="853"/>
      <point x="968" y="837"/>
      <point x="968" y="763" type="curve" smooth="yes"/>
      <point x="968" y="727.525"/>
      <point x="986.219" y="685.588"/>
      <point x="1013.42" y="645.153" type="curve"/>
      <point x="935.075" y="472.43"/>
      <point x="786.949" y="373"/>
      <point x="637" y="373" type="curve" smooth="yes"/>
      <point x="494" y="373"/>
      <point x="411" y="456"/>
      <point x="411" y="564" type="curve" smooth="yes"/>
      <point x="411" y="700"/>
      <point x="541" y="830"/>
      <point x="741" y="830" type="curve" smooth="yes"/>
      <point x="796" y="830" type="line"/>
      <point x="802" y="839" type="line"/>
      <point x="746" y="963" type="line"/>
      <point x="68" y="963" type="line"/>
      <point x="62" y="954" type="line"/>
      <point x="118" y="830" type="line"/>
      <point x="355" y="830" type="line"/>
      <point x="304" y="763"/>
      <point x="279" y="699"/>
      <point x="279" y="625" type="curve" smooth="yes"/>
      <point x="279" y="429"/>
      <point x="457" y="251"/>
      <point x="699" y="251" type="curve" smooth="yes"/>
      <point x="880.504" y="251"/>
      <point x="1037.71" y="359.179"/>
      <point x="1131.05" y="522.094" type="curve"/>
      <point x="1163.12" y="498.645"/>
      <point x="1193.69" y="484"/>
      <point x="1216" y="484" type="curve" smooth="yes"/>
      <point x="1244" y="484"/>
      <point x="1271" y="507"/>
      <point x="1271" y="563" type="curve" smooth="yes"/>
      <point x="1271" y="708" type="line"/>
      <point x="1667" y="708" type="line"/>
      <point x="1667" y="19" type="line"/>
      <point x="1818" y="-19" type="line"/>
      <point x="1827" y="-12" type="line"/>
      <point x="1827" y="1197" type="line"/>
      <point x="2084" y="1197" type="line"/>
      <point x="2090" y="1206" type="line"/>
    </contour>
  </outline>
</glyph>
<glyph name="cadeva_viramadeva_radeva" format="1">
  <advance width="1321"/>
  <outline>
    <contour>
      <point x="1114" y="-12" type="line"/>
      <point x="1114" y="1197" type="line"/>
      <point x="1371" y="1197" type="line"/>
      <point x="1377" y="1206" type="line"/>
      <point x="1321" y="1330" type="line"/>
      <point x="-50" y="1330" type="line"/>
      <point x="-56" y="1321" type="line"/>
      <point x="0" y="1197" type="line"/>
      <point x="954" y="1197" type="line"/>
      <point x="954" y="551" type="line"/>
      <point x="820" y="443"/>
      <point x="721" y="399"/>
      <point x="624" y="399" type="curve" smooth="yes"/>
      <point x="500" y="399"/>
      <point x="411" y="471"/>
      <point x="411" y="573" type="curve" smooth="yes"/>
      <point x="411" y="696"/>
      <point x="541" y="830"/>
      <point x="741" y="830" type="curve" smooth="yes"/>
      <point x="796" y="830" type="line"/>
      <point x="802" y="839" type="line"/>
      <point x="746" y="963" type="line"/>
      <point x="68" y="963" type="line"/>
      <point x="62" y="954" type="line"/>
      <point x="118" y="830" type="line"/>
      <point x="355" y="830" type="line"/>
      <point x="303" y="761"/>
      <point x="279" y="700"/>
      <point x="279" y="627" type="curve" smooth="yes"/>
      <point x="279" y="476"/>
      <point x="382" y="348"/>
      <point x="585" y="294" type="curve"/>
      <point x="269" y="82" type="line"/>
      <point x="272" y="70" type="line"/>
      <point x="392" y="-24" type="line"/>
      <point x="954" y="364" type="line"/>
      <point x="954" y="19" type="line"/>
      <point x="1105" y="-19" type="line"/>
    </contour>
  </outline>
</glyph>
<glyph name="cadeva_viramadeva_yadeva" format="1">
  <advance width="2068"/>
  <outline>
    <contour>
      <point x="2068" y="1330" type="line"/>
      <point x="-50" y="1330" type="line"/>
      <point x="-56" y="1321" type="line"/>
      <point x="0" y="1197" type="line"/>
      <point x="1159" y="1197" type="line"/>
      <point x="1183" y="1149"/>
      <point x="1202" y="1082"/>
      <point x="1202" y="1017" type="curve" smooth="yes"/>
      <point x="1202" y="891"/>
      <point x="1131" y="813"/>
      <point x="907" y="750" type="curve"/>
      <point x="902" y="740" type="line"/>
      <point x="933.907" y="677.846"/>
      <point x="966.733" y="622.325"/>
      <point x="1000.33" y="573.104" type="curve"/>
      <point x="899.46" y="443.343"/>
      <point x="761.388" y="373"/>
      <point x="634" y="373" type="curve" smooth="yes"/>
      <point x="495" y="373"/>
      <point x="411" y="456"/>
      <point x="411" y="565" type="curve" smooth="yes"/>
      <point x="411" y="700"/>
      <point x="541" y="830"/>
      <point x="741" y="830" type="curve" smooth="yes"/>
      <point x="796" y="830" type="line"/>
      <point x="802" y="839" type="line"/>
      <point x="746" y="963" type="line"/>
      <point x="67.9999" y="963" type="line"/>
      <point x="61.9999" y="954" type="line"/>
      <point x="118" y="830" type="line"/>
      <point x="355" y="830" type="line"/>
      <point x="304" y="763"/>
      <point x="279" y="699"/>
      <point x="279" y="625" type="curve" smooth="yes"/>
      <point x="279" y="428"/>
      <point x="460" y="251"/>
      <point x="695" y="251" type="curve" smooth="yes"/>
      <point x="848.507" y="251"/>
      <point x="989.926" y="326.752"/>
      <point x="1098.28" y="449.319" type="curve"/>
      <point x="1219.43" y="319.144"/>
      <point x="1348.1" y="261"/>
      <point x="1478" y="261" type="curve" smooth="yes"/>
      <point x="1562" y="261"/>
      <point x="1632" y="285"/>
      <point x="1701" y="334" type="curve"/>
      <point x="1701" y="19" type="line"/>
      <point x="1852" y="-19" type="line"/>
      <point x="1861" y="-12" type="line"/>
      <point x="1861" y="1197" type="line"/>
      <point x="2118" y="1197" type="line"/>
      <point x="2124" y="1206" type="line"/>
    </contour>
    <contour>
      <point x="1701" y="690" type="line" smooth="yes"/>
      <point x="1701" y="528"/>
      <point x="1561" y="421"/>
      <point x="1409" y="421" type="curve" smooth="yes"/>
      <point x="1300" y="421"/>
      <point x="1177" y="476"/>
      <point x="1087" y="628" type="curve"/>
      <point x="1254" y="688"/>
      <point x="1342" y="783"/>
      <point x="1342" y="926" type="curve" smooth="yes"/>
      <point x="1342" y="1015"/>
      <point x="1308" y="1109"/>
      <point x="1260" y="1197" type="curve"/>
      <point x="1701" y="1197" type="line"/>
    </contour>
  </outline>
</glyph>
<glyph name="chadeva_viramadeva" format="1">
  <advance width="1021"/>
  <outline>
    <contour>
      <point x="1021" y="1330" type="line"/>
      <point x="-50" y="1330" type="line"/>
      <point x="-56" y="1321" type="line"/>
      <point x="0" y="1197" type="line"/>
      <point x="1071" y="1197" type="line"/>
      <point x="1077" y="1206" type="line"/>
    </contour>
    <contour>
      <point x="1254" y="918"/>
      <point x="1128" y="1061"/>
      <point x="979" y="1061" type="curve" smooth="yes"/>
      <point x="882" y="1061"/>
      <point x="775" y="1000"/>
      <point x="775" y="854" type="curve" smooth="yes"/>
      <point x="775" y="734"/>
      <point x="848" y="598"/>
      <point x="1027" y="458" type="curve"/>
      <point x="931" y="309"/>
      <point x="776" y="197"/>
      <point x="612" y="197" type="curve" smooth="yes"/>
      <point x="493" y="197"/>
      <point x="401" y="257"/>
      <point x="401" y="358" type="curve" smooth="yes"/>
      <point x="401" y="461"/>
      <point x="495" y="557"/>
      <point x="693" y="589" type="curve"/>
      <point x="697" y="599" type="line"/>
      <point x="586" y="728" type="line"/>
      <point x="508" y="720"/>
      <point x="440" y="693"/>
      <point x="388" y="654" type="curve"/>
      <point x="301" y="692"/>
      <point x="262" y="737"/>
      <point x="262" y="798" type="curve" smooth="yes"/>
      <point x="262" y="886"/>
      <point x="343" y="947"/>
      <point x="556" y="947" type="curve"/>
      <point x="513" y="1045"/>
      <point x="459" y="1088"/>
      <point x="366" y="1088" type="curve" smooth="yes"/>
      <point x="226" y="1088"/>
      <point x="116" y="993"/>
      <point x="116" y="858" type="curve" smooth="yes"/>
      <point x="116" y="755"/>
      <point x="180" y="652"/>
      <point x="319" y="584" type="curve"/>
      <point x="288" y="538"/>
      <point x="269" y="481"/>
      <point x="269" y="424" type="curve" smooth="yes"/>
      <point x="269" y="248"/>
      <point x="449" y="61"/>
      <point x="691" y="61" type="curve" smooth="yes"/>
      <point x="1006" y="61"/>
      <point x="1254" y="375"/>
      <point x="1254" y="692" type="curve" smooth="yes"/>
    </contour>
    <contour>
      <point x="1130" y="701"/>
      <point x="1113" y="627"/>
      <point x="1073" y="542" type="curve"/>
      <point x="968" y="628"/>
      <point x="915" y="715"/>
      <point x="915" y="791" type="curve" smooth="yes"/>
      <point x="915" y="867"/>
      <point x="966" y="932"/>
      <point x="1036" y="932" type="curve" smooth="yes"/>
      <point x="1097" y="932"/>
      <point x="1130" y="883"/>
      <point x="1130" y="777" type="curve" smooth="yes"/>
    </contour>
  </outline>
</glyph>
<glyph name="chadeva_viramadeva_vadeva" format="1">
  <advance width="1371"/>
  <outline>
    <contour>
      <point x="272" y="909"/>
      <point x="353" y="970"/>
      <point x="566" y="970" type="curve"/>
      <point x="523" y="1068"/>
      <point x="469" y="1111"/>
      <point x="376" y="1111" type="curve" smooth="yes"/>
      <point x="237" y="1111"/>
      <point x="126" y="1017"/>
      <point x="126" y="880" type="curve" smooth="yes"/>
      <point x="126" y="779"/>
      <point x="187" y="696"/>
      <point x="322" y="632" type="curve"/>
      <point x="295" y="591"/>
      <point x="279" y="542"/>
      <point x="279" y="489" type="curve" smooth="yes"/>
      <point x="279" y="368"/>
      <point x="363" y="245"/>
      <point x="501" y="174" type="curve"/>
      <point x="450" y="131"/>
      <point x="419" y="69"/>
      <point x="419" y="1" type="curve" smooth="yes"/>
      <point x="419" y="-158"/>
      <point x="586" y="-290"/>
      <point x="737" y="-290" type="curve" smooth="yes"/>
      <point x="777" y="-290"/>
      <point x="841" y="-281"/>
      <point x="908" y="-237" type="curve"/>
      <point x="908" y="-393" type="line"/>
      <point x="1024" y="-423" type="line"/>
      <point x="1031" y="-417" type="line"/>
      <point x="1031" y="264" type="line"/>
      <point x="1165" y="378"/>
      <point x="1254" y="550"/>
      <point x="1254" y="718" type="curve" smooth="yes"/>
      <point x="1254" y="881"/>
      <point x="1170" y="1017"/>
      <point x="1062" y="1062" type="curve"/>
      <point x="1062" y="1197" type="line"/>
      <point x="1421" y="1197" type="line"/>
      <point x="1427" y="1206" type="line"/>
      <point x="1371" y="1330" type="line"/>
      <point x="-50" y="1330" type="line"/>
      <point x="-56" y="1321" type="line"/>
      <point x="0" y="1197" type="line"/>
      <point x="922" y="1197" type="line"/>
      <point x="922" y="1075" type="line"/>
      <point x="841" y="1055"/>
      <point x="775" y="981"/>
      <point x="775" y="879" type="curve" smooth="yes"/>
      <point x="775" y="759"/>
      <point x="866" y="629"/>
      <point x="1033" y="509" type="curve"/>
      <point x="940" y="370"/>
      <point x="797" y="267"/>
      <point x="628" y="267" type="curve" smooth="yes"/>
      <point x="501" y="267"/>
      <point x="411" y="326"/>
      <point x="411" y="428" type="curve" smooth="yes"/>
      <point x="411" y="528"/>
      <point x="499" y="613"/>
      <point x="693" y="639" type="curve"/>
      <point x="697" y="649" type="line"/>
      <point x="586" y="778" type="line"/>
      <point x="507" y="770"/>
      <point x="434" y="740"/>
      <point x="379" y="694" type="curve"/>
      <point x="302" y="730"/>
      <point x="272" y="773"/>
      <point x="272" y="824" type="curve" smooth="yes"/>
    </contour>
    <contour>
      <point x="1130" y="732"/>
      <point x="1107" y="650"/>
      <point x="1074" y="581" type="curve"/>
      <point x="970" y="662"/>
      <point x="915" y="740"/>
      <point x="915" y="816" type="curve" smooth="yes"/>
      <point x="915" y="895"/>
      <point x="975" y="952"/>
      <point x="1036" y="952" type="curve" smooth="yes"/>
      <point x="1081" y="952"/>
      <point x="1130" y="920"/>
      <point x="1130" y="808" type="curve" smooth="yes"/>
    </contour>
    <contour>
      <point x="792" y="138"/>
      <point x="848" y="154"/>
      <point x="908" y="182" type="curve"/>
      <point x="908" y="57" type="line" smooth="yes"/>
      <point x="908" y="-101"/>
      <point x="789" y="-183"/>
      <point x="686" y="-183" type="curve" smooth="yes"/>
      <point x="602" y="-183"/>
      <point x="543" y="-129"/>
      <point x="543" y="-44" type="curve" smooth="yes"/>
      <point x="543" y="47"/>
      <point x="610" y="110"/>
      <point x="734" y="133" type="curve"/>
    </contour>
  </outline>
</glyph>
<glyph name="dadeva_rvocalicsigndeva" format="1">
  <advance width="1130"/>
  <outline>
    <contour>
      <point x="834" y="819" type="line"/>
      <point x="842" y="827" type="line"/>
      <point x="842" y="1197" type="line"/>
      <point x="1180" y="1197" type="line"/>
      <point x="1186" y="1206" type="line"/>
      <point x="1130" y="1330" type="line"/>
      <point x="-50" y="1330" type="line"/>
      <point x="-56" y="1321" type="line"/>
      <point x="0" y="1197" type="line"/>
      <point x="688" y="1197" type="line"/>
      <point x="688" y="974" type="line" smooth="yes"/>
      <point x="688" y="969"/>
      <point x="685" y="966"/>
      <point x="680" y="966" type="curve" smooth="yes"/>
      <point x="562" y="966" type="line" smooth="yes"/>
      <point x="243" y="966"/>
      <point x="107" y="785"/>
      <point x="107" y="594" type="curve" smooth="yes"/>
      <point x="107" y="346"/>
      <point x="335" y="91"/>
      <point x="620" y="91" type="curve" smooth="yes"/>
      <point x="695" y="91"/>
      <point x="766" y="109"/>
      <point x="826" y="140" type="curve"/>
      <point x="846" y="103"/>
      <point x="858" y="75"/>
      <point x="866" y="51" type="curve"/>
      <point x="683" y="-1"/>
      <point x="607" y="-89"/>
      <point x="607" y="-188" type="curve" smooth="yes"/>
      <point x="607" y="-315"/>
      <point x="733" y="-456"/>
      <point x="929" y="-456" type="curve" smooth="yes"/>
      <point x="1041" y="-456"/>
      <point x="1156" y="-410"/>
      <point x="1156" y="-339" type="curve" smooth="yes"/>
      <point x="1156" y="-298"/>
      <point x="1118" y="-251"/>
      <point x="1082" y="-239" type="curve"/>
      <point x="1033" y="-283"/>
      <point x="929" y="-337"/>
      <point x="840" y="-337" type="curve" smooth="yes"/>
      <point x="762" y="-337"/>
      <point x="726" y="-294"/>
      <point x="726" y="-249" type="curve" smooth="yes"/>
      <point x="726" y="-189"/>
      <point x="791" y="-116"/>
      <point x="994" y="-62" type="curve"/>
      <point x="994" y="-11"/>
      <point x="961" y="85"/>
      <point x="898" y="193" type="curve"/>
      <point x="937" y="231"/>
      <point x="965" y="284"/>
      <point x="965" y="339" type="curve" smooth="yes"/>
      <point x="965" y="420"/>
      <point x="906" y="499"/>
      <point x="813" y="499" type="curve" smooth="yes"/>
      <point x="732" y="499"/>
      <point x="679" y="438"/>
      <point x="679" y="364" type="curve" smooth="yes"/>
      <point x="679" y="326"/>
      <point x="693" y="294"/>
      <point x="723" y="257" type="curve"/>
      <point x="675" y="231"/>
      <point x="615" y="219"/>
      <point x="557" y="219" type="curve" smooth="yes"/>
      <point x="355" y="219"/>
      <point x="249" y="366"/>
      <point x="249" y="518" type="curve" smooth="yes"/>
      <point x="249" y="690"/>
      <point x="384" y="819"/>
      <point x="613" y="819" type="curve" smooth="yes"/>
    </contour>
  </outline>
</glyph>
<glyph name="dadeva_viramadeva_bhadeva" format="1">
  <advance width="1208"/>
  <outline>
    <contour>
      <point x="984" y="869" type="line"/>
      <point x="992" y="877" type="line"/>
      <point x="992" y="1197" type="line"/>
      <point x="1258" y="1197" type="line"/>
      <point x="1264" y="1206" type="line"/>
      <point x="1208" y="1330" type="line"/>
      <point x="-50" y="1330" type="line"/>
      <point x="-56" y="1321" type="line"/>
      <point x="0" y="1197" type="line"/>
      <point x="838" y="1197" type="line"/>
      <point x="838" y="1024" type="line" smooth="yes"/>
      <point x="838" y="1019"/>
      <point x="835" y="1016"/>
      <point x="830" y="1016" type="curve" smooth="yes"/>
      <point x="712" y="1016" type="line" smooth="yes"/>
      <point x="401" y="1016"/>
      <point x="267" y="851"/>
      <point x="267" y="675" type="curve" smooth="yes"/>
      <point x="267" y="472"/>
      <point x="446" y="260"/>
      <point x="693" y="202" type="curve"/>
      <point x="534" y="110" type="line"/>
      <point x="517" y="129"/>
      <point x="501" y="147"/>
      <point x="475" y="174" type="curve" smooth="yes"/>
      <point x="355" y="298"/>
      <point x="279" y="344"/>
      <point x="203" y="344" type="curve" smooth="yes"/>
      <point x="115" y="344"/>
      <point x="65" y="284"/>
      <point x="65" y="215" type="curve" smooth="yes"/>
      <point x="65" y="125"/>
      <point x="149" y="60"/>
      <point x="228" y="60" type="curve" smooth="yes"/>
      <point x="266" y="60"/>
      <point x="296" y="75"/>
      <point x="302" y="109" type="curve"/>
      <point x="241" y="109"/>
      <point x="200" y="140"/>
      <point x="200" y="179" type="curve" smooth="yes"/>
      <point x="200" y="210"/>
      <point x="226" y="233"/>
      <point x="264" y="233" type="curve" smooth="yes"/>
      <point x="298" y="233"/>
      <point x="322" y="214"/>
      <point x="372" y="156" type="curve" smooth="yes"/>
      <point x="413" y="109"/>
      <point x="436" y="76"/>
      <point x="451" y="56" type="curve"/>
      <point x="416" y="30"/>
      <point x="387" y="0"/>
      <point x="387" y="-33" type="curve" smooth="yes"/>
      <point x="387" y="-99"/>
      <point x="504" y="-163"/>
      <point x="592" y="-163" type="curve" smooth="yes"/>
      <point x="644" y="-163"/>
      <point x="672" y="-140"/>
      <point x="672" y="-114" type="curve" smooth="yes"/>
      <point x="672" y="-92"/>
      <point x="652" y="-50"/>
      <point x="616" y="3" type="curve"/>
      <point x="907" y="187" type="line"/>
      <point x="1094" y="-125" type="line"/>
      <point x="1208" y="-112" type="line"/>
      <point x="1213" y="-105" type="line"/>
      <point x="989" y="239" type="line"/>
      <point x="1069" y="285"/>
      <point x="1115" y="354"/>
      <point x="1115" y="430" type="curve" smooth="yes"/>
      <point x="1115" y="523"/>
      <point x="1046" y="599"/>
      <point x="952" y="599" type="curve" smooth="yes"/>
      <point x="869" y="599"/>
      <point x="799" y="540"/>
      <point x="799" y="456" type="curve" smooth="yes"/>
      <point x="799" y="421"/>
      <point x="811" y="384"/>
      <point x="838" y="336" type="curve"/>
      <point x="810" y="325"/>
      <point x="774" y="319"/>
      <point x="732" y="319" type="curve" smooth="yes"/>
      <point x="532" y="319"/>
      <point x="409" y="457"/>
      <point x="409" y="601" type="curve" smooth="yes"/>
      <point x="409" y="750"/>
      <point x="539" y="869"/>
      <point x="763" y="869" type="curve" smooth="yes"/>
    </contour>
  </outline>
</glyph>
<glyph name="dadeva_viramadeva_dhadeva" format="1">
  <advance width="1178"/>
  <outline>
    <contour>
      <point x="924" y="869" type="line"/>
      <point x="932" y="877" type="line"/>
      <point x="932" y="1197" type="line"/>
      <point x="1228" y="1197" type="line"/>
      <point x="1234" y="1206" type="line"/>
      <point x="1178" y="1330" type="line"/>
      <point x="-50" y="1330" type="line"/>
      <point x="-56" y="1321" type="line"/>
      <point x="0" y="1197" type="line"/>
      <point x="778" y="1197" type="line"/>
      <point x="778" y="1024" type="line" smooth="yes"/>
      <point x="778" y="1019"/>
      <point x="775" y="1016"/>
      <point x="770" y="1016" type="curve" smooth="yes"/>
      <point x="652" y="1016" type="line" smooth="yes"/>
      <point x="333" y="1016"/>
      <point x="197" y="844"/>
      <point x="197" y="666" type="curve" smooth="yes"/>
      <point x="197" y="435"/>
      <point x="427" y="201"/>
      <point x="706" y="201" type="curve" smooth="yes"/>
      <point x="762" y="201"/>
      <point x="815" y="210"/>
      <point x="869" y="229" type="curve"/>
      <point x="881" y="198"/>
      <point x="890" y="155"/>
      <point x="890" y="115" type="curve" smooth="yes"/>
      <point x="890" y="-38"/>
      <point x="769" y="-146"/>
      <point x="682" y="-146" type="curve" smooth="yes"/>
      <point x="642" y="-146"/>
      <point x="601" y="-123"/>
      <point x="601" y="-81" type="curve" smooth="yes"/>
      <point x="601" y="-46"/>
      <point x="629" y="5"/>
      <point x="697" y="56" type="curve"/>
      <point x="695" y="64" type="line"/>
      <point x="574" y="137" type="line"/>
      <point x="518" y="101"/>
      <point x="486" y="57"/>
      <point x="474" y="12" type="curve"/>
      <point x="449" y="3"/>
      <point x="423" y="0"/>
      <point x="402" y="0" type="curve" smooth="yes"/>
      <point x="327" y="0"/>
      <point x="274" y="37"/>
      <point x="274" y="100" type="curve" smooth="yes"/>
      <point x="274" y="142"/>
      <point x="297" y="172"/>
      <point x="347" y="190" type="curve"/>
      <point x="295" y="255"/>
      <point x="259" y="278"/>
      <point x="222" y="278" type="curve" smooth="yes"/>
      <point x="165" y="278"/>
      <point x="117" y="223"/>
      <point x="117" y="152" type="curve" smooth="yes"/>
      <point x="117" y="30"/>
      <point x="257" y="-93"/>
      <point x="440" y="-93" type="curve" smooth="yes"/>
      <point x="456" y="-93"/>
      <point x="470" y="-92"/>
      <point x="482" y="-90" type="curve"/>
      <point x="515" y="-175"/>
      <point x="619" y="-240"/>
      <point x="732" y="-240" type="curve" smooth="yes"/>
      <point x="854" y="-240"/>
      <point x="954" y="-168"/>
      <point x="1006" y="-42" type="curve"/>
      <point x="1084" y="-195" type="line"/>
      <point x="1198" y="-182" type="line"/>
      <point x="1203" y="-175" type="line"/>
      <point x="954" y="272" type="line"/>
      <point x="1016" y="314"/>
      <point x="1055" y="371"/>
      <point x="1055" y="438" type="curve" smooth="yes"/>
      <point x="1055" y="520"/>
      <point x="996" y="599"/>
      <point x="904" y="599" type="curve" smooth="yes"/>
      <point x="822" y="599"/>
      <point x="769" y="536"/>
      <point x="769" y="468" type="curve" smooth="yes"/>
      <point x="769" y="444"/>
      <point x="775" y="406"/>
      <point x="796" y="360" type="curve"/>
      <point x="793" y="352" type="line"/>
      <point x="749" y="337"/>
      <point x="700" y="329"/>
      <point x="646" y="329" type="curve" smooth="yes"/>
      <point x="436" y="329"/>
      <point x="339" y="455"/>
      <point x="339" y="589" type="curve" smooth="yes"/>
      <point x="339" y="747"/>
      <point x="474" y="869"/>
      <point x="703" y="869" type="curve" smooth="yes"/>
    </contour>
  </outline>
</glyph>
<glyph name="dadeva_viramadeva_gadeva" format="1">
  <advance width="1058"/>
  <outline>
    <contour>
      <point x="834" y="869" type="line"/>
      <point x="842" y="877" type="line"/>
      <point x="842" y="1197" type="line"/>
      <point x="1108" y="1197" type="line"/>
      <point x="1114" y="1206" type="line"/>
      <point x="1058" y="1330" type="line"/>
      <point x="-50" y="1330" type="line"/>
      <point x="-56" y="1321" type="line"/>
      <point x="0" y="1197" type="line"/>
      <point x="688" y="1197" type="line"/>
      <point x="688" y="1024" type="line" smooth="yes"/>
      <point x="688" y="1019"/>
      <point x="685" y="1016"/>
      <point x="680" y="1016" type="curve" smooth="yes"/>
      <point x="562" y="1016" type="line" smooth="yes"/>
      <point x="243" y="1016"/>
      <point x="107" y="845"/>
      <point x="107" y="665" type="curve" smooth="yes"/>
      <point x="107" y="504"/>
      <point x="216" y="339"/>
      <point x="376" y="253" type="curve"/>
      <point x="427" y="29" type="line"/>
      <point x="340" y="9" type="line" smooth="yes"/>
      <point x="307" y="2"/>
      <point x="290" y="-17"/>
      <point x="290" y="-34" type="curve" smooth="yes"/>
      <point x="290" y="-80"/>
      <point x="408" y="-189"/>
      <point x="510" y="-189" type="curve" smooth="yes"/>
      <point x="562" y="-189"/>
      <point x="580" y="-161"/>
      <point x="580" y="-116" type="curve" smooth="yes"/>
      <point x="580" y="-80"/>
      <point x="569" y="-30"/>
      <point x="515" y="201" type="curve"/>
      <point x="553" y="194"/>
      <point x="583" y="191"/>
      <point x="615" y="191" type="curve" smooth="yes"/>
      <point x="667" y="191"/>
      <point x="718" y="199"/>
      <point x="770" y="217" type="curve"/>
      <point x="924" y="-195" type="line"/>
      <point x="1048" y="-182" type="line"/>
      <point x="1053" y="-175" type="line"/>
      <point x="864" y="265" type="line"/>
      <point x="926" y="308"/>
      <point x="965" y="368"/>
      <point x="965" y="437" type="curve" smooth="yes"/>
      <point x="965" y="520"/>
      <point x="907" y="599"/>
      <point x="814" y="599" type="curve" smooth="yes"/>
      <point x="733" y="599"/>
      <point x="679" y="539"/>
      <point x="679" y="461" type="curve" smooth="yes"/>
      <point x="679" y="428"/>
      <point x="689" y="394"/>
      <point x="711" y="351" type="curve"/>
      <point x="665" y="330"/>
      <point x="613" y="319"/>
      <point x="555" y="319" type="curve" smooth="yes"/>
      <point x="356" y="319"/>
      <point x="249" y="450"/>
      <point x="249" y="590" type="curve" smooth="yes"/>
      <point x="249" y="747"/>
      <point x="384" y="869"/>
      <point x="613" y="869" type="curve" smooth="yes"/>
    </contour>
  </outline>
</glyph>
<glyph name="dadeva_viramadeva_nadeva" format="1">
  <advance width="1058"/>
  <outline>
    <contour>
      <point x="817" y="144" type="line"/>
      <point x="880" y="80"/>
      <point x="904" y="43"/>
      <point x="904" y="9" type="curve" smooth="yes"/>
      <point x="904" y="-39"/>
      <point x="857" y="-79"/>
      <point x="785" y="-98" type="curve"/>
      <point x="811" y="-164"/>
      <point x="855" y="-202"/>
      <point x="911" y="-202" type="curve" smooth="yes"/>
      <point x="978" y="-202"/>
      <point x="1030" y="-147"/>
      <point x="1030" y="-60" type="curve" smooth="yes"/>
      <point x="1030" y="1"/>
      <point x="1005" y="68"/>
      <point x="895" y="190" type="curve"/>
      <point x="936" y="228"/>
      <point x="965" y="280"/>
      <point x="965" y="338" type="curve" smooth="yes"/>
      <point x="965" y="420"/>
      <point x="906" y="499"/>
      <point x="813" y="499" type="curve" smooth="yes"/>
      <point x="732" y="499"/>
      <point x="679" y="439"/>
      <point x="679" y="363" type="curve" smooth="yes"/>
      <point x="679" y="325"/>
      <point x="692" y="297"/>
      <point x="724" y="257" type="curve"/>
      <point x="673" y="224"/>
      <point x="619" y="209"/>
      <point x="558" y="209" type="curve" smooth="yes"/>
      <point x="363" y="209"/>
      <point x="249" y="360"/>
      <point x="249" y="518" type="curve" smooth="yes"/>
      <point x="249" y="690"/>
      <point x="384" y="819"/>
      <point x="613" y="819" type="curve" smooth="yes"/>
      <point x="834" y="819" type="line"/>
      <point x="842" y="827" type="line"/>
      <point x="842" y="1197" type="line"/>
      <point x="1108" y="1197" type="line"/>
      <point x="1114" y="1206" type="line"/>
      <point x="1058" y="1330" type="line"/>
      <point x="-50" y="1330" type="line"/>
      <point x="-56" y="1321" type="line"/>
      <point x="0" y="1197" type="line"/>
      <point x="688" y="1197" type="line"/>
      <point x="688" y="974" type="line" smooth="yes"/>
      <point x="688" y="969"/>
      <point x="685" y="966"/>
      <point x="680" y="966" type="curve" smooth="yes"/>
      <point x="562" y="966" type="line" smooth="yes"/>
      <point x="243" y="966"/>
      <point x="107" y="788"/>
      <point x="107" y="589" type="curve" smooth="yes"/>
      <point x="107" y="381"/>
      <point x="255" y="176"/>
      <point x="495" y="108" type="curve"/>
      <point x="301" y="3" type="line" smooth="yes"/>
      <point x="249" y="-25"/>
      <point x="232" y="-61"/>
      <point x="232" y="-90" type="curve" smooth="yes"/>
      <point x="232" y="-166"/>
      <point x="349" y="-234"/>
      <point x="444" y="-234" type="curve" smooth="yes"/>
      <point x="478" y="-234"/>
      <point x="509" y="-225"/>
      <point x="509" y="-190" type="curve" smooth="yes"/>
      <point x="509" y="-162"/>
      <point x="491" y="-135"/>
      <point x="450" y="-67" type="curve"/>
    </contour>
  </outline>
</glyph>
<glyph name="dadeva_viramadeva_radeva" format="1">
  <advance width="1058"/>
  <outline>
    <contour>
      <point x="834" y="819" type="line"/>
      <point x="842" y="827" type="line"/>
      <point x="842" y="1197" type="line"/>
      <point x="1108" y="1197" type="line"/>
      <point x="1114" y="1206" type="line"/>
      <point x="1058" y="1330" type="line"/>
      <point x="-50" y="1330" type="line"/>
      <point x="-56" y="1321" type="line"/>
      <point x="0" y="1197" type="line"/>
      <point x="688" y="1197" type="line"/>
      <point x="688" y="974" type="line" smooth="yes"/>
      <point x="688" y="969"/>
      <point x="685" y="966"/>
      <point x="680" y="966" type="curve" smooth="yes"/>
      <point x="562" y="966" type="line" smooth="yes"/>
      <point x="243" y="966"/>
      <point x="107" y="786"/>
      <point x="107" y="591" type="curve" smooth="yes"/>
      <point x="107" y="385"/>
      <point x="258" y="174"/>
      <point x="494" y="107" type="curve"/>
      <point x="202" y="-68" type="line"/>
      <point x="205" y="-80" type="line"/>
      <point x="325" y="-174" type="line"/>
      <point x="827" y="142" type="line"/>
      <point x="880" y="91"/>
      <point x="904" y="46"/>
      <point x="904" y="3" type="curve" smooth="yes"/>
      <point x="904" y="-54"/>
      <point x="861" y="-91"/>
      <point x="815" y="-108" type="curve"/>
      <point x="829" y="-165"/>
      <point x="869" y="-202"/>
      <point x="924" y="-202" type="curve" smooth="yes"/>
      <point x="992" y="-202"/>
      <point x="1030" y="-145"/>
      <point x="1030" y="-71" type="curve" smooth="yes"/>
      <point x="1030" y="-14"/>
      <point x="1007" y="68"/>
      <point x="893" y="188" type="curve"/>
      <point x="934" y="226"/>
      <point x="965" y="280"/>
      <point x="965" y="339" type="curve" smooth="yes"/>
      <point x="965" y="420"/>
      <point x="906" y="499"/>
      <point x="813" y="499" type="curve" smooth="yes"/>
      <point x="732" y="499"/>
      <point x="679" y="438"/>
      <point x="679" y="364" type="curve" smooth="yes"/>
      <point x="679" y="327"/>
      <point x="693" y="295"/>
      <point x="723" y="257" type="curve"/>
      <point x="672" y="227"/>
      <point x="619" y="212"/>
      <point x="557" y="212" type="curve" smooth="yes"/>
      <point x="363" y="212"/>
      <point x="249" y="362"/>
      <point x="249" y="519" type="curve" smooth="yes"/>
      <point x="249" y="690"/>
      <point x="384" y="819"/>
      <point x="613" y="819" type="curve" smooth="yes"/>
    </contour>
  </outline>
</glyph>
<glyph name="dadeva_viramadeva_vadeva" format="1">
  <advance width="1098"/>
  <outline>
    <contour>
      <point x="844" y="869" type="line"/>
      <point x="852" y="877" type="line"/>
      <point x="852" y="1197" type="line"/>
      <point x="1148" y="1197" type="line"/>
      <point x="1154" y="1206" type="line"/>
      <point x="1098" y="1330" type="line"/>
      <point x="-50" y="1330" type="line"/>
      <point x="-56" y="1321" type="line"/>
      <point x="0" y="1197" type="line"/>
      <point x="698" y="1197" type="line"/>
      <point x="698" y="1024" type="line" smooth="yes"/>
      <point x="698" y="1019"/>
      <point x="695" y="1016"/>
      <point x="690" y="1016" type="curve" smooth="yes"/>
      <point x="572" y="1016" type="line" smooth="yes"/>
      <point x="253" y="1016"/>
      <point x="117" y="846"/>
      <point x="117" y="664" type="curve" smooth="yes"/>
      <point x="117" y="506"/>
      <point x="220" y="342"/>
      <point x="393" y="248" type="curve"/>
      <point x="338" y="207"/>
      <point x="306" y="147"/>
      <point x="306" y="82" type="curve" smooth="yes"/>
      <point x="306" y="-68"/>
      <point x="475" y="-219"/>
      <point x="654" y="-219" type="curve" smooth="yes"/>
      <point x="774" y="-219"/>
      <point x="876" y="-151"/>
      <point x="919" y="-26" type="curve"/>
      <point x="1004" y="-195" type="line"/>
      <point x="1118" y="-182" type="line"/>
      <point x="1123" y="-175" type="line"/>
      <point x="877" y="267" type="line"/>
      <point x="937" y="310"/>
      <point x="975" y="369"/>
      <point x="975" y="437" type="curve" smooth="yes"/>
      <point x="975" y="521"/>
      <point x="916" y="599"/>
      <point x="825" y="599" type="curve" smooth="yes"/>
      <point x="742" y="599"/>
      <point x="689" y="536"/>
      <point x="689" y="470" type="curve" smooth="yes"/>
      <point x="689" y="444"/>
      <point x="697" y="401"/>
      <point x="719" y="357" type="curve"/>
      <point x="717" y="349" type="line"/>
      <point x="672" y="329"/>
      <point x="621" y="319"/>
      <point x="565" y="319" type="curve" smooth="yes"/>
      <point x="366" y="319"/>
      <point x="259" y="450"/>
      <point x="259" y="590" type="curve" smooth="yes"/>
      <point x="259" y="747"/>
      <point x="394" y="869"/>
      <point x="623" y="869" type="curve" smooth="yes"/>
    </contour>
    <contour>
      <point x="680" y="192"/>
      <point x="721" y="197"/>
      <point x="791" y="221" type="curve"/>
      <point x="800" y="182"/>
      <point x="805" y="140"/>
      <point x="805" y="108" type="curve" smooth="yes"/>
      <point x="805" y="-31"/>
      <point x="709" y="-112"/>
      <point x="593" y="-112" type="curve" smooth="yes"/>
      <point x="506" y="-112"/>
      <point x="440" y="-66"/>
      <point x="440" y="20" type="curve" smooth="yes"/>
      <point x="440" y="97"/>
      <point x="494" y="165"/>
      <point x="602" y="192" type="curve"/>
    </contour>
  </outline>
</glyph>
